<?xml version="1.0" encoding="utf-8"?>
<!-- Generator: Adobe Illustrator 18.0.0, SVG Export Plug-In . SVG Version: 6.00 Build 0)  -->
<!DOCTYPE svg PUBLIC "-//W3C//DTD SVG 1.1//EN" "http://www.w3.org/Graphics/SVG/1.1/DTD/svg11.dtd">
<svg version="1.1" id="Layer_1" xmlns="http://www.w3.org/2000/svg" xmlns:xlink="http://www.w3.org/1999/xlink" x="0px" y="0px"
	 width="1400px" height="1400px" viewBox="0 0 1400 1400" enable-background="new 0 0 1400 1400" xml:space="preserve">
<rect fill="#6474E8" width="1400" height="1400"/>
<g>
	<g>
		<g>
			<g enable-background="new    ">
				<g>
					<polygon fill="#F4F4F4" points="700.7,734.9 535,830.8 419.3,764.3 585,668.5 					"/>
				</g>
				<g>
					<polygon fill="#D6D6D6" points="700.7,734.9 700.6,742.6 535,838.4 535,830.8 					"/>
				</g>
				<g>
					<polygon fill="#D6D6D6" points="535,830.8 535,838.4 419.3,772 419.3,764.3 					"/>
				</g>
			</g>
		</g>
		<g>
			<g enable-background="new    ">
				<g>
					<polygon fill="#F4F4F4" points="700.7,723.9 535,819.7 419.3,753.3 585,657.5 					"/>
				</g>
				<g>
					<polygon fill="#D6D6D6" points="700.7,723.9 700.6,731.6 535,827.4 535,819.7 					"/>
				</g>
				<g>
					<polygon fill="#D6D6D6" points="535,819.7 535,827.4 419.3,761 419.3,753.3 					"/>
				</g>
			</g>
		</g>
		<g>
			<g enable-background="new    ">
				<g>
					<polygon fill="#F4F4F4" points="700.7,712.9 535,808.7 419.3,742.2 585,646.4 					"/>
				</g>
				<g>
					<polygon fill="#D6D6D6" points="700.7,712.9 700.6,720.6 535,816.4 535,808.7 					"/>
				</g>
				<g>
					<polygon fill="#D6D6D6" points="535,808.7 535,816.4 419.3,749.9 419.3,742.2 					"/>
				</g>
			</g>
		</g>
		<g>
			<g enable-background="new    ">
				<g>
					<polygon fill="#F4F4F4" points="700.7,701.8 535,797.6 419.3,731.2 585,635.4 					"/>
				</g>
				<g>
					<polygon fill="#D6D6D6" points="700.7,701.8 700.6,709.5 535,805.3 535,797.6 					"/>
				</g>
				<g>
					<polygon fill="#D6D6D6" points="535,797.6 535,805.3 419.3,738.9 419.3,731.2 					"/>
				</g>
			</g>
		</g>
		<g>
			<g enable-background="new    ">
				<g>
					<polygon fill="#F4F4F4" points="700.7,690.8 535,786.6 419.3,720.2 585,624.4 					"/>
				</g>
				<g>
					<polygon fill="#D6D6D6" points="700.7,690.8 700.6,698.5 535,794.3 535,786.6 					"/>
				</g>
				<g>
					<polygon fill="#D6D6D6" points="535,786.6 535,794.3 419.3,727.9 419.3,720.2 					"/>
				</g>
			</g>
		</g>
		<g>
			<g enable-background="new    ">
				<g>
					<polygon fill="#F4F4F4" points="700.7,679.8 535,775.6 419.3,709.1 585,613.3 					"/>
				</g>
				<g>
					<polygon fill="#D6D6D6" points="700.7,679.8 700.6,687.5 535,783.3 535,775.6 					"/>
				</g>
				<g>
					<polygon fill="#D6D6D6" points="535,775.6 535,783.3 419.3,716.8 419.3,709.1 					"/>
				</g>
			</g>
		</g>
		<g>
			<g enable-background="new    ">
				<g>
					<polygon fill="#F4F4F4" points="700.7,668.7 535,764.5 419.3,698.1 585,602.3 					"/>
				</g>
				<g>
					<polygon fill="#D6D6D6" points="700.7,668.7 700.6,676.4 535,772.2 535,764.5 					"/>
				</g>
				<g>
					<polygon fill="#D6D6D6" points="535,764.5 535,772.2 419.3,705.8 419.3,698.1 					"/>
				</g>
			</g>
		</g>
		<g>
			<g enable-background="new    ">
				<g>
					<polygon fill="#F4F4F4" points="700.7,657.7 535,753.5 419.3,687.1 585,591.3 					"/>
				</g>
				<g>
					<polygon fill="#D6D6D6" points="700.7,657.7 700.6,665.4 535,761.2 535,753.5 					"/>
				</g>
				<g>
					<polygon fill="#D6D6D6" points="535,753.5 535,761.2 419.3,694.8 419.3,687.1 					"/>
				</g>
			</g>
		</g>
	</g>
	<g>
		<path fill="#C5D2D3" d="M696.2,142.6c7.6-4.4,18.2-3.8,29.9,2.9l233.8,135c23.2,13.4,42,45.9,41.9,72.6l-1.8,640.5
			c0,13.3-4.7,22.6-12.3,27l-20.8,12.1c7.5-4.4,12.2-13.7,12.3-27l1.8-640.5c0.1-26.7-18.7-59.2-41.9-72.6l-233.8-135
			c-11.7-6.7-22.3-7.4-29.9-2.9L696.2,142.6z"/>
		<g>
			<path fill="#6573EC" d="M705.3,174.8c-15-8.6-27.1-1.7-27.2,15.5l-1.8,640.5c0,17.2,12,38.2,27,46.8l233.8,135
				c15,8.6,27.1,1.7,27.2-15.5l1.8-640.5c0-17.2-12-38.2-27-46.8l-32.2-18.6c-2.3-1.3-4.2-0.3-4.2,2.4c0,11.2-7.9,15.7-17.7,10.1
				L759.2,231c-9.7-5.6-17.6-19.2-17.6-30.4c0-2.7-1.9-5.9-4.2-7.2L705.3,174.8z"/>
		</g>
		<path fill="#47436B" d="M661.3,822.2c-0.1,26.7,18.7,59.2,41.9,72.6l233.8,135c23.2,13.4,42.1,2.6,42.2-24l1.8-640.5
			c0.1-26.7-18.7-59.2-41.9-72.6l-233.8-135c-23.2-13.4-42.1-2.6-42.2,24L661.3,822.2z M772.2,220.3c0,2.9-2,4-4.5,2.6
			c-2.5-1.4-4.5-4.9-4.5-7.8c0-2.9,2-4,4.5-2.6C770.2,213.9,772.2,217.4,772.2,220.3z M866.1,274.5c0,1.4-1,2-2.2,1.3l-83.4-48.2
			c-1.2-0.7-2.2-2.4-2.2-3.8c0-1.4,1-2,2.2-1.3l83.4,48.2C865.1,271.4,866.1,273.1,866.1,274.5z M676.3,830.8l1.8-640.5
			c0-17.2,12.2-24.1,27.2-15.5l32.2,18.6c2.3,1.3,4.2,4.6,4.2,7.2c0,11.2,7.8,24.8,17.6,30.4L885,303.6c9.7,5.6,17.6,1.1,17.7-10.1
			c0-2.7,1.9-3.7,4.2-2.4l32.2,18.6c15,8.6,27.1,29.6,27,46.8l-1.8,640.5c0,17.2-12.2,24.1-27.2,15.5l-233.8-135
			C688.3,869,676.2,848,676.3,830.8z"/>
		<path fill="#FFFFFF" d="M767.7,212.5c-2.5-1.4-4.5-0.3-4.5,2.6c0,2.9,2,6.4,4.5,7.8c2.5,1.4,4.5,0.3,4.5-2.6
			C772.2,217.4,770.2,213.9,767.7,212.5z"/>
		<path fill="#FFFFFF" d="M863.9,270.7l-83.4-48.2c-1.2-0.7-2.2-0.1-2.2,1.3c0,1.4,1,3.1,2.2,3.8l83.4,48.2c1.2,0.7,2.2,0.1,2.2-1.3
			C866.1,273.1,865.1,271.4,863.9,270.7z"/>
	</g>
	<polygon fill="#A6D2DD" points="629.6,498.4 628.7,787.6 896,941.9 896.8,652.7 	"/>
	<polygon fill="#47436B" points="896.6,716.4 629.3,562.1 629.5,487.4 896.8,641.7 	"/>
	<g>
		<polygon fill="#FFFFFF" points="793.8,688.1 793.6,755.6 852.3,789.5 852.5,722 		"/>
	</g>
	<g>
		<polygon fill="#FED250" points="793.8,779.8 793.6,847.2 852.3,881.2 852.5,813.7 		"/>
	</g>
	<g>
		<polygon fill="#FFEFC7" points="665.9,634.4 665.9,643.1 768.7,702.5 768.7,693.8 		"/>
	</g>
	<g>
		<polygon fill="#FFEFC7" points="665.9,655.1 665.9,663.8 768.7,723.1 768.7,714.4 		"/>
	</g>
	<g>
		<polygon fill="#FFEFC7" points="665.9,675.7 665.9,684.4 768.7,743.7 768.7,735 		"/>
	</g>
	<g>
		<polygon fill="#FFEFC7" points="665.9,696.3 665.9,705 768.7,764.3 768.7,755.6 		"/>
	</g>
	<g>
		<polygon fill="#FFEFC7" points="665.9,716.9 665.9,725.6 768.7,785 768.7,776.3 		"/>
	</g>
	<g>
		<polygon fill="#FFEFC7" points="665.9,737.5 665.9,746.2 768.7,805.6 768.7,796.9 		"/>
	</g>
	<g>
		<polygon fill="#FFEFC7" points="665.9,758.1 665.9,766.8 768.7,826.2 768.7,817.5 		"/>
	</g>
	<g>
		<polygon fill="#A6D2DD" points="600.5,437.2 867.8,591.5 868.5,309.1 601.3,154.8 		"/>
		<polygon fill="#47436B" points="601.3,154.8 868.5,309.1 868.4,370.1 601.1,215.8 		"/>
		<g>
			<polygon fill="#6288A3" points="732.6,334.3 732.5,343 835.4,402.3 835.4,393.6 			"/>
		</g>
		<g>
			<polygon fill="#6288A3" points="732.6,354.9 732.5,363.6 835.4,422.9 835.4,414.2 			"/>
		</g>
		<g>
			<polygon fill="#6288A3" points="732.6,375.5 732.5,384.2 835.4,443.5 835.4,434.8 			"/>
		</g>
		<g>
			<polygon fill="#6288A3" points="732.6,396.1 732.5,404.8 835.4,464.2 835.4,455.5 			"/>
		</g>
		<g>
			<polygon fill="#6288A3" points="732.6,416.7 732.5,425.4 835.4,484.8 835.4,476.1 			"/>
		</g>
		<g>
			<polygon fill="#6288A3" points="732.6,437.3 732.5,446 835.4,505.4 835.4,496.7 			"/>
		</g>
		<g>
			<polygon fill="#6288A3" points="732.6,457.9 732.5,466.6 835.4,526 835.4,517.3 			"/>
		</g>
		<g>
			<polygon fill="#6288A3" points="732.6,478.6 732.5,487.3 835.4,546.6 835.4,537.9 			"/>
		</g>
		<g>
			<polygon fill="#FFFFFF" points="642.1,276 641.9,433.8 700.6,467.7 700.8,309.9 			"/>
		</g>
		<g>
			<g>
				<path fill="#E94272" d="M626.2,191c-3.8-2.2-7-0.4-7,4c0,4.4,3.1,9.8,6.9,12c3.8,2.2,7,0.4,7-4C633.1,198.6,630,193.2,626.2,191
					z"/>
			</g>
			<g>
				<path fill="#FED250" d="M647.3,203.2c-3.8-2.2-7-0.4-7,4c0,4.4,3.1,9.8,6.9,12c3.8,2.2,7,0.4,7-4
					C654.2,210.8,651.1,205.4,647.3,203.2z"/>
			</g>
			<g>
				<path fill="#6474E8" d="M668.3,215.3c-3.8-2.2-7-0.4-7,4c0,4.4,3.1,9.8,6.9,12c3.8,2.2,7,0.4,7-4
					C675.3,222.9,672.2,217.6,668.3,215.3z"/>
			</g>
		</g>
	</g>
	<g>
		<g>
			<polygon fill="#FFFFFC" points="1033.4,326.6 1032.9,502.7 806.4,371.9 806.9,195.9 			"/>
		</g>
	</g>
	<g>
		<path fill="#47436B" d="M1009.7,457.3c2.3,1.3,4.2,4.6,4.2,7.3c0,2.7-1.9,3.8-4.2,2.4L828.8,362.5c-2.3-1.3-4.2-4.6-4.2-7.3
			c0-2.7,1.9-3.8,4.2-2.4L1009.7,457.3z"/>
	</g>
	<g>
		<g>
			<polygon fill="#FFFFFF" points="906.3,304.4 937,345.1 906.1,350.2 			"/>
		</g>
		<path fill="#E94272" d="M916.7,291.5c-19.7-11.4-35.7-2.2-35.8,20.4c-0.1,22.6,15.8,50.2,35.5,61.6c19.7,11.4,35.7,2.2,35.8-20.4
			C952.3,330.4,936.4,302.9,916.7,291.5z M906.1,350.2l0.1-45.8l30.7,40.7L906.1,350.2z"/>
	</g>
	<g>
		<polygon fill="#A6D2DD" points="1102.1,590.2 1101.7,728.9 923.3,625.8 923.7,487.1 		"/>
	</g>
	<polygon fill="#47436B" points="923.6,525.7 1102,628.7 1102.1,590.2 923.7,487.1 	"/>
	<polygon fill="#FFFFFF" points="936.7,611.3 995.5,645.2 995.6,583.1 936.8,549.2 	"/>
	<g>
		<polygon fill="#E94272" points="1013.1,597.9 1013.1,604.4 1089.3,648.3 1089.3,641.9 		"/>
	</g>
	<g>
		<polygon fill="#E94272" points="1013.1,612.5 1013.1,618.9 1089.3,662.9 1089.3,656.5 		"/>
	</g>
	<g>
		<polygon fill="#E94272" points="1013.1,627.1 1013.1,633.5 1089.3,677.5 1089.3,671 		"/>
	</g>
	<g>
		<polygon fill="#E94272" points="1013.1,641.6 1013.1,648.1 1089.3,692 1089.3,685.6 		"/>
	</g>
	<g>
		<path fill="#E94272" d="M734.8,558.5c11,6.4,19.9,21.8,19.9,34.4c0,12.6-9,17.7-20,11.4l-73.8-42.6c-11-6.4-19.9-21.8-19.9-34.4
			c0-12.7,9-17.8,20-11.4L734.8,558.5z"/>
	</g>
	<g>
		<path fill="#FFFFFF" d="M592.6,903c0,0,9.4-3.5,16-1.4c6.6,2.1,14.3,6.6,14.6,9.4c0.3,2.8-8.4,11.8-15.3,10.8
			c-7-1-20.5-0.5-25.1,0.1c-4.5,0.6-21.6,2.8-20.2-10.5C564.1,898.1,592.6,903,592.6,903z"/>
		<path fill="#FFFFFF" d="M555.8,854.9c0,0,6.6-2.4,13.6-0.7c7,1.7,3.1,8,0,9.7c-3.1,1.8-12.9,10.1-17.4,14.3
			c-4.5,4.2-20.7,11-19.7-1.8C533.1,863.6,555.8,854.9,555.8,854.9z"/>
		<path fill="#CBAB9F" d="M607.9,726.2l5.6,4.2c0,0,6.6,32,0,58.5c-6.6,26.4-13.9,59.2-15.7,75.2c-1.7,16,0,41.4,0,41.4
			s-8.4,13.9-21.2,12.9c-12.9-1-16-4.2-16-4.2s0.3-34.1,8.7-59.9c8.4-25.7,5.9-71.3,5.9-71.3S564.4,808,562,817.4
			c-2.4,9.4-1.4,49.1-1.4,49.1s-10.9,14.3-20.6,12.2c-9.7-2.1-10-3.5-10-3.5s-0.7-47,5.2-64c0,0,11.1-40.7,10.4-50.8
			c-0.7-10.1-3-43.6,2-56.1c5-12.5,24.1,2.5,24.1,2.5L607.9,726.2z"/>
		<path fill="#F8B38D" d="M597.2,593.6h4.5c0,0,0,9.8-2.2,13.3c-2.2,3.5-6.1,7.4-7.1,11.7c-1,4.3,0,12.3,0,12.3s-20.8,5.7-22.6-8
			c-1.7-12.8,0-24,0-24L597.2,593.6z"/>
		<path fill="#F8B38D" d="M678.6,581.8l-1.4-4.9c0,0,3.5-3.9,4.2-8.4c0.7-4.5-2.8-11.1,0-13.9c2.8-2.8,3.1,3.8,4.9,4.9
			c0,0,3.1-3.1,3.5-8.7c0.3-5.6,3.5-9,4.9-7.3c1.4,1.7,5.9,10.1,5.6,15c-0.3,4.9-4.9,11.5-5.6,13.6c-0.7,2.1-2.8,9.7-2.8,9.7H678.6z
			"/>
		<path fill="#505274" d="M570.7,612.4l-4.9,1.8c0,0-8-2.1-14.2-0.9c-6.3,1.2-14.6,16.2-10.4,31.2c4.2,15,4.9,11.5,6.6,21.9
			c1.7,10.4-0.3,41.4-0.3,41.4s1,16.7,23.3,25.7c22.3,9,42.8-3.1,42.8-3.1s-1-32.4,0-39c1-6.6,2.8-23.3,0-36.5
			c-2.8-13.2-16.8-23.5-26.4-29.9C577.4,618.6,570.7,612.4,570.7,612.4z"/>
		<path fill="#505274" d="M596.1,644.4c0,0-10.1,7-6.6,17.4c3.5,10.4,12.5,13.2,30.6,5.9c18.1-7.3,71-37.9,74.5-90.8
			c0,0-4.2-3.1-17.4,0c0,0-10.4,20.1-22.3,35.4c0,0-12.5,11.2-19.1,14S596.1,644.4,596.1,644.4z"/>
		<path fill="#4B291D" d="M573.9,617.5c-10.2-4-12.4-17.1-10.7-26.4c1.7-9.4,21.3-22.2,21.3-22.2s8-2.5,13.6,4.8s5.9,17.1,3.1,22.6
			c-2.8,5.6-7,13.2-9.4,15.3C589.4,613.8,583.4,621.3,573.9,617.5z"/>
	</g>
	<g>
		<path fill="#FDFDFF" d="M972.2,1070.5c0,0-24.8,3.9-29.8,5.9c-5,2-3.5,8.8,1.9,11.8c5.4,2.9,17.1,1.9,27.9,3.2
			c10.8,1.3,19.6,5.2,28.5-1.2L972.2,1070.5z"/>
		<path fill="#FDFDFF" d="M1014.9,1022.9c0,0-13.7-4.4-21.6-4.4c-7.8,0-6.9,9.3-2.9,11.3s9.8,3.4,15.7,9.3
			c5.9,5.9,18.1,15.7,29.4,9.8C1035.5,1048.9,1011.9,1034.7,1014.9,1022.9z"/>
		<path fill="#F8B38D" d="M962.9,740.6c0,0,0.5,12.5,3.9,19.4c3.4,6.9,4.9,9.3,6.4,13.7c1.5,4.4,0,6.4,0,6.4s20.9,2.1,24.5-10.8
			l-2.5-16.2L962.9,740.6z"/>
		<path fill="#FED250" d="M1016.8,862c0,0,3.9,21.6-7.4,40.7c-11.3,19.1-20.1,21.1-20.1,47.1s1.5,56.4,7.4,69.7
			c5.9,13.2,6.9,59.8,3.9,70.6c0,0-9.3,3.9-20.6-2.5s-13.2-12.8-13.2-12.8c0-3.9,2-25,0-37.8c-2-12.8-15.7-56.9-20.1-83.4
			c-4.4-26.5-1.5-60.3-1.5-60.3S992.8,853.7,1016.8,862z"/>
		<path fill="#FED250" d="M1013.9,881.6l2.9-19.6c0,0,5.4,48.6,4.4,69.7c0,0,0,3.4,5.9,23.5c5.9,20.1,11.3,55.4,8.3,93.7
			c0,0-9.5,3.9-18-2.9c-0.5-0.4-1-0.8-1.5-1.2c-6.6-5.6-10.3-13.8-10.2-22.4c0.1-13-0.3-34.6-4.2-46.2
			c-5.9-17.4-20.1-44.9-18.4-49.3C984.9,922.3,1013.9,881.6,1013.9,881.6z"/>
		<path fill="#3AE0C1" d="M980.3,774.2c0,0-14.6,3.9-22.1,10.3c-7.5,6.4-13.4,19.6-15.4,33.4s3.9,29.9,5.4,38.3
			c1.5,8.3-2.5,26-3.4,31.9l0.5,5.4c0,0,24.5,2.9,42.2-8.8c17.7-11.8,29.4-22.6,29.4-22.6s-4.4-24.5,0-34.8c4-9.3,14-41.8,0.4-61
			c-2.8-3.9-7.7-5.6-12.3-4.4C998.9,763.3,989.8,766.8,980.3,774.2z"/>
		<path fill="#F8B38D" d="M908.5,732.7l8.6-9.1c0,0-2.9-7.8,0-18.5c2.9-10.7-3.4-21.5-4.3-22.1c-0.9-0.6-7.1,1.1-10.6,12.6
			c-3.4,11.4-2.3,26.3-2.3,26.3L908.5,732.7z"/>
		<path fill="#3AE0C1" d="M962.9,794.9c0,0-8.1-6.9-23.5-2.3c-15.4,4.6-22.3-14.6-22.3-31.3c0-16.7,0-37.8,0-37.8l-19.4-8.7
			c0,0-4,45.5,0,65.4s6.3,37,27.4,39.8C946.2,822.9,977.8,813.8,962.9,794.9z"/>
		<path fill="#8F4F51" d="M967.8,752.1c0,0-8.8-8.8-9.3-15.2c-0.5-6.4-2-17.7,11.8-22.1c0,0,11.3,1.5,15.7,2.9
			c4.4,1.5,17.2,14.7,18.1,20.6c1,5.9-1,18.6-6.4,23.1c-5.4,4.4-12.8,4.9-16.5,4.9S970.2,760.5,967.8,752.1z"/>
	</g>
	<g>
		<path fill="#FCB794" d="M530.4,875.8c0,0,0.5,1.5,5,6.6c4.5,5.2,7.2,7.6,15.2,4.4c7.9-3.3,4.5-18.7,4.5-18.7s-9,6-11.4,8.2
			C541.4,878.4,530.4,875.8,530.4,875.8z"/>
		<path fill="#FDFDFF" d="M561.4,1070.8l-1.8,2.7v14.6c0,0,8,0.5,7.5,0c-0.5-0.5-0.3-7.3,1-12.9
			C569.4,1069.5,561.4,1070.8,561.4,1070.8z"/>
		<path fill="#4A3D57" d="M545.9,904.4c0,0,1.1,26.3,4.7,51.6c3.6,25.3,3.2,53.3,7.6,76c4.4,22.7,3.1,30.7,3.1,30.7
			s10.2,5.8,15.1,3.6l1.6-3.1c0,0-2.9-19.5-0.2-52.4c2.7-32.9,7.7-55.4,5.8-69.8c-2-14.4-21.8-50-21.8-50L545.9,904.4z"/>
		<path fill="#FDFDFF" d="M583.2,1070.1c-0.9-0.6-3.1-2.9-3.6-4.2c-0.9-2-2.6-3.5-4.7-4.1c-5.8-1.6-12.9,0.2-12.9,0.2
			s-3,1.8-2.5,11.5c0,0,5.3,0.8,8.5,4.5s5.3,8.8,11.3,8.5c10-0.5,6.9-8,6.9-8S586.9,1072.5,583.2,1070.1z"/>
		<path fill="#FDFDFF" d="M587,1074.7l-1.1,2.8c0,0,1.1,14,1.1,17.8v2.8h8.1c0,0,1-16.8-1.7-21.4C590.8,1072,587,1074.7,587,1074.7z
			"/>
		<path fill="#4A3D57" d="M572.9,917.8c0,0,2.2,16.9,12,31.6c9.8,14.7,12.9,27.1,12.9,27.1s-4.9,28.5-4,45.3
			c0.9,16.9-4.4,42.2-4.4,42.2s5.9,10.2,12.3,11.6c6.4,1.3,8.2-2.7,8.2-2.7s0.9-29.3,5.3-46.7c4.4-17.3,16.4-45.3,12.9-67.1
			c-3.6-21.8-12-43-12-43L572.9,917.8z"/>
		<path fill="#C04075" d="M544.5,902.6c0,0-10.2,32.6-3.4,50.2c6.8,17.6,9.5,41.9,9.5,41.9s12.1,7,27.9,8.1c15.8,1.1,30-2.2,38.8-3
			c8.7-0.9,11.4-7.7,11.4-7.7s4.3-22.2,2.1-33.7c-2.2-11.5-14.7-42.2-14.7-42.2S547.9,908.6,544.5,902.6z"/>
		<path fill="#FCB794" d="M603.1,772.1c0,0,2.1,19-9.7,26.7v10.4c0,0-14.1,2.6-20.5-10.2c-6.4-12.8,17.2-17.8,17.2-17.8L603.1,772.1
			z"/>
		<path fill="#CBE9ED" d="M571.2,804.3c0,0,24,2.7,38,14c0,0,7.2,2.3,6.8,19c-0.5,16.8-2.7,34,0,48.5c2.7,14.5,0,30.3,0,30.3
			s-10.5,14.5-34.5,10.4c-24-4.1-37.1-24-37.1-24s10-22.6,10.6-34.4c0.7-11.8-7.9-34-10.6-43c-2.7-9.1,2.7-21.7,10.6-23.1
			C563.1,800.7,571.2,804.3,571.2,804.3z"/>
		<path fill="#CBE9ED" d="M555.1,809.7l-4.1-5.8c0,0-20.1,14.5-27.8,21.3c-7.7,6.8-27.2,28.5-25.8,33.5c1.4,5,29.9,21.7,34.4,23.6
			c4.5,1.8,12-5.9,12-5.9l-17.6-19.9c0,0,20.1-14.5,26.4-25.8C559,819.2,555.1,809.7,555.1,809.7z"/>
		<path fill="#CBE9ED" d="M607.5,817c0,0,15.7,8.6,33.5,28.9c17.7,20.3,18.8,20.3,20.3,24.3c1.5,4.1-6.1,12.7-15.7,18.3
			c-9.6,5.6-22.8,11.2-22.8,11.2l-8.1-7.6l22.8-21.8c0,0-24.2-13.2-32.6-25.9C596.3,831.7,600.9,819.5,607.5,817z"/>
		<path fill="#FCB794" d="M622.3,897.9c0-2.5-1.3-4.8-3.4-6.2c-4.2-2.9-12.1-8.2-14.2-9.3c-2.9-1.5-5.3,5.1,0,11.2
			c5.3,6.1,4.7,6.1,11.3,6.1C620.7,899.6,622.3,900.1,622.3,897.9z"/>
		<path fill="#FDFDFF" d="M594,1062c0,0-4-1-7,3.6c-3,4.6-1.7,11.2-1.1,11.9s5.9,0.5,9.6,4.3s6.8,13,13,14.8
			c6.1,1.8,12.1,0,14.5-4.3c2.3-4.3-0.2-8.5-3.7-10c-3.5-1.5-8-4.3-10.1-11C606.9,1064.7,594,1062,594,1062z"/>
		<path fill="#4B291D" d="M593,754.5c0,0-16.3-3.2-24.9,6.8c-8.6,10-8.2,18.1-7.7,24.5c0.5,6.3,4.5,15.9,10.9,18.6
			c6.3,2.7,18.6-4.1,21.7-12.7c3.2-8.6,8.2-10.4,9.5-16.8C603.8,768.5,603.8,759.4,593,754.5z"/>
		<path fill="#4B291D" d="M564.9,781.6c0,0-6.8-2.7-11.8,7.2c-5,10-2.3,21.3,5.9,30.3c8.2,9.1,9.1,11.3,9.1,11.3s14.5-19.5,7.7-34
			C568.9,782.1,564.9,781.6,564.9,781.6z"/>
	</g>
	<g>
		<path fill="#FCB794" d="M603.5,1069.6c0,0,5.7,1.4,7.4,6.9c1.7,5.5-2,9.7-2.9,11.4c-0.9,1.7-3.9,2.1-4.5,3c-0.6,0.8-4,2.5-6.1,2.1
			c-2.1-0.4-5.1-10.2-3-16.5C596.5,1070.2,603.5,1069.6,603.5,1069.6z"/>
		<path fill="#C04075" d="M518.3,1104c-3.1-14.3-0.9-45.1-0.9-45.1s19.4-3.7,27.5,15c9.9-5.3,42.3-2.1,42.3-2.1s10.4,35.2,12.2,50.8
			c1.8,15.6-3.5,35.7-9.6,50.4c-6.1,14.7-11.8,58-12.3,60.6c-0.4,2.7,0,7.6,0,7.6l-16-19.2c0,0,1.4-29.4,3.1-45.9
			c1.8-16.5,3.8-33.4,3.8-33.4s-8.9-28.5-15.5-37.4l-3-4.9c0,0-0.4-0.6-1.1-1.5c1.2,30.8-3.4,62.2-3.8,70.2c-0.4,8.9,0,53.9,0,53.9
			l-12.5,4.5c0,0,0-7.1-4-27.2c-4-20.1-6.2-70-6.7-78.9S521.4,1118.3,518.3,1104z"/>
		<path fill="#FCB794" d="M574.9,925.6l-0.3-3.2c0,0,3.6-7,7-10.1c3.4-3.1,14.4-9.5,16.6-10.7c2.2-1.1,5.4-2.8,8.3-2.8
			c2.9,0,0.9,4.5-4.4,7.9s-7.9,5.5-7.9,5.5s-0.8,3.7,1.1,3.7c2,0,2.9,2.2,2.9,2.2s-0.9,5.6-2.9,7.4c-2,1.8-7,6.3-7,6.3l-16.7,8.4
			L574.9,925.6z"/>
		<path fill="#CBE9ED" d="M569.1,976.4c0,0,14.4-29.4,16.2-34c1.8-4.6,4.6-11.3,4.6-11.3l-15-10.4c0,0-19.6,21.7-20.5,22.3
			c-0.9,0.6-11.3,22-11.3,23.3c0,1.2,4.8,15.6,4.8,15.6L569.1,976.4z"/>
		<path fill="#FCB794" d="M565.9,967c0-4.6,0-9.9,0-9.9c7.5-7,5.8-16.8,5.8-16.8l0.2-4.8c0,0-5.2,7.7-8.7,10.5
			c-3.5,2.8-4.6,13-15.4,14.4c0,0-4.9,14.4,6,12.3C564.6,970.5,565.9,967,565.9,967z"/>
		<path fill="#965250" d="M568.8,944.5c0.4-1,3.1-9.1,3.1-9.1s1.7-3.5,0-11.2c-1.7-7.7-10.2-13.3-19.3-12.6
			c-9.1,0.7-24.9,7-23.5,23.9c0,0-5.6,3.5-8.1,16.5c-2.5,13,3.2,20.7,8.8,26c5.6,5.3,6.7,13.7,6.7,13.7s13.3-9.5,11.2-31.2
			C547.7,960.3,560.7,962.4,568.8,944.5z"/>
		<path fill="#CBE9ED" d="M523.5,963.5c-19.3,12.6-3.9,33,0.4,45.6c4.2,12.6,2.8,28.8-3.4,35.1s-6.4,16.1-6.4,16.1
			c1.8,4.6,18.6,30.5,47.4,27c28.8-3.5,30.5-18.6,30.5-18.6s-0.7-11.2-6.4-23.2c-5.7-11.9-2-23.9-0.6-37.5c1.4-13.7,0-27.4,0-27.4
			c-17.9-17.2-41-21.4-41-21.4L523.5,963.5z"/>
		<path fill="#CBE9ED" d="M591.9,988.8c0,0-4.4-10.2-11-6.9c-6.6,3.4-11.5,6-12.3,12.2c-0.9,6.2,4,30.9,3.3,37
			c-0.7,6.2,4.2,17.6,7.3,23.4c3.1,5.7,14.6,27.3,14.6,27.3l12.3-9.4c0,0-8.8-28.1-9.6-33.4c-0.8-5.3-4.5-28.7-4.5-28.7V988.8z"/>
		<path fill="#965250" d="M536.5,991.5c0,0-1.1-8.4-6.7-13.7c-5.6-5.3-11.2-13-8.8-26c2.5-13,8.1-16.5,8.1-16.5s13.7-0.4,18.6,24.9
			C549.8,982.1,536.5,991.5,536.5,991.5z"/>
		<path fill="#343254" d="M541.8,1237.2c0,0-3.1-0.5-6.1,4.1c-2.9,4.6-2.5,7.5-2.5,7.5h-4.7c0,0-1.6-11.2,1.1-15.2
			C532.4,1229.6,541,1232.5,541.8,1237.2z"/>
		<path fill="#615A8D" d="M539.8,1222.1c0,0,3.2-1.2,5.3,0.9c2.1,2,1.4,11,9.2,12.9c7.7,1.9,2.2,12.1,2.2,12.1s-6.3,1.7-9.9,0
			c-3.6-1.7-4.3-15.4-16.8-14.5C529.7,1233.6,527,1219.9,539.8,1222.1z"/>
		<path fill="#343254" d="M566.3,1242.8c0,0-5.2,3.6-4.7,8.7s0,8.7,0,8.7h-7.2c0,0-0.9-16.1,1.6-22.4
			C558.4,1231.6,566.3,1242.8,566.3,1242.8z"/>
		<path fill="#615A8D" d="M564.7,1223.3c0,0,5,2,8.1,9c3.1,6.9,5.8,11,9.9,11.4c4,0.4,7.9,0.9,10.5,3.1c0,0,1.8,5.2-0.9,9
			c-2.7,3.8-8.8,5.4-13,3.8c-4.2-1.6-8.9-13-14.5-16.8c-5.6-3.8-9.2-3.1-9.9-2.9c-0.7,0.2-2.4-14.2,6.8-17.7L564.7,1223.3z"/>
	</g>
	<g>
		<g>
			<g enable-background="new    ">
				<g>
					<polygon fill="#3AE0C1" points="588.7,465.5 588.4,538.9 553.7,518.9 553.9,536.8 535.2,508.2 498.8,487.2 499,413.7 					"/>
				</g>
				<g>
					<polygon fill="#27C4A6" points="588.7,465.5 593.6,462.6 593.4,536.1 588.4,538.9 					"/>
				</g>
				<g>
					<polygon fill="#27C4A6" points="499,413.7 504,410.9 593.6,462.6 588.7,465.5 					"/>
				</g>
			</g>
		</g>
		<g>
			<g>
				<path fill="#FFFFFF" d="M520.7,455.4c-4.2-2.4-7.6-0.5-7.6,4.4c0,4.8,3.4,10.7,7.6,13.1c4.2,2.4,7.6,0.5,7.6-4.3
					C528.3,463.7,524.9,457.8,520.7,455.4z"/>
			</g>
			<g>
				<path fill="#FFFFFF" d="M543.7,468.7c-4.2-2.4-7.6-0.5-7.6,4.4c0,4.8,3.4,10.7,7.6,13.1c4.2,2.4,7.6,0.5,7.6-4.3
					C551.4,477,548,471.1,543.7,468.7z"/>
			</g>
			<g>
				<path fill="#FFFFFF" d="M566.8,482c-4.2-2.4-7.6-0.5-7.6,4.4c0,4.8,3.4,10.7,7.6,13.1c4.2,2.4,7.6,0.5,7.6-4.4
					C574.4,490.3,571,484.4,566.8,482z"/>
			</g>
		</g>
	</g>
	<g>
		<g>
			<g enable-background="new    ">
				<g>
					<polygon fill="#FED250" points="572.3,829.6 572.1,898.9 539.2,880 538.8,895.3 521.8,869.9 487.4,850 487.6,780.7 					"/>
				</g>
				<g>
					<polygon fill="#F4BD37" points="572.3,829.6 576.9,826.9 576.7,896.2 572.1,898.9 					"/>
				</g>
				<g>
					<polygon fill="#F4BD37" points="487.6,780.7 492.2,777.9 576.9,826.9 572.3,829.6 					"/>
				</g>
			</g>
		</g>
		<g>
			<g>
				<path fill="#FFFFFC" d="M508,820c-4-2.3-7.2-0.5-7.2,4.1c0,4.6,3.2,10.1,7.2,12.4c4,2.3,7.2,0.5,7.2-4.1
					C515.2,827.8,512,822.3,508,820z"/>
			</g>
			<g>
				<path fill="#FFFFFC" d="M529.8,832.6c-4-2.3-7.2-0.5-7.2,4.1c0,4.6,3.2,10.1,7.2,12.4c4,2.3,7.2,0.5,7.2-4.1
					C537,840.4,533.8,834.9,529.8,832.6z"/>
			</g>
			<g>
				<path fill="#FFFFFC" d="M551.6,845.2c-4-2.3-7.2-0.5-7.2,4.1c0,4.6,3.2,10.1,7.2,12.4c4,2.3,7.2,0.5,7.2-4.1
					C558.8,853,555.6,847.4,551.6,845.2z"/>
			</g>
		</g>
	</g>
	<g>
		<g enable-background="new    ">
			<g>
				<polygon fill="#3AE0C1" points="455.8,701.9 456.2,903.2 425.5,920.9 425.1,719.6 				"/>
			</g>
			<g>
				<polygon fill="#2AC6A8" points="425.5,920.9 395.1,903.2 394.6,701.9 425.1,719.6 				"/>
			</g>
			<g>
				<polygon fill="#56F4D5" points="425.1,719.6 394.6,701.9 425.3,684.2 455.8,701.9 				"/>
			</g>
		</g>
		<g enable-background="new    ">
			<g>
				<polygon fill="#E94272" points="407.4,752.6 407.7,931.2 377,948.9 376.7,770.3 				"/>
			</g>
			<g>
				<polygon fill="#DB2E68" points="377,948.9 346.6,931.2 346.2,752.6 376.7,770.3 				"/>
			</g>
			<g>
				<polygon fill="#F4588C" points="376.7,770.3 346.2,752.6 376.9,734.9 407.4,752.6 				"/>
			</g>
		</g>
		<g enable-background="new    ">
			<g>
				<polygon fill="#FED250" points="359,807.8 359.3,959.2 328.6,976.9 328.3,825.5 				"/>
			</g>
			<g>
				<polygon fill="#F4BD37" points="328.6,976.9 298.1,959.2 297.9,807.8 328.3,825.5 				"/>
			</g>
			<g>
				<polygon fill="#FFD366" points="328.3,825.5 297.9,807.8 328.6,790.1 359,807.8 				"/>
			</g>
		</g>
	</g>
	<g>
		<polygon fill="#272747" points="707.4,910.6 777.3,950.4 777.3,936.2 706.1,896.3 		"/>
		<polygon fill="#272747" points="768.7,720.9 838.6,760.7 838.6,746.6 767.4,706.6 		"/>
		<polygon fill="#272747" points="746,784.1 815.9,823.9 815.9,809.8 744.7,769.8 		"/>
		<polygon fill="#272747" points="688.8,962.8 758.6,1002.7 758.6,988.5 687.4,948.6 		"/>
		<polygon fill="#272747" points="818.7,548.7 888.6,588.6 888.6,574.4 817.4,534.5 		"/>
		<polygon fill="#272747" points="801.4,606.5 871.2,646.4 871.2,632.2 800,592.3 		"/>
		<polygon fill="#272747" points="722.8,850.8 792.6,890.6 792.6,876.5 721.4,836.5 		"/>
		<g>
			<polygon fill="#424270" points="839.8,428.3 849.2,421.8 862.2,429.5 853,435.8 			"/>
			<polygon fill="#272747" points="862.2,429.5 687.1,989.5 678.2,992.7 830.9,483.6 853,435.8 			"/>
			<polygon fill="#343259" points="678.2,992.7 853,435.8 839.8,428.3 665.1,985.1 			"/>
		</g>
		<polygon fill="#343259" points="808.2,546.3 888.6,592.2 888.6,578 817.4,538.1 		"/>
		<polygon fill="#343259" points="790.8,604.2 871.2,650 871.2,635.9 800,595.9 		"/>
		<polygon fill="#272747" points="786.2,660.6 856.1,700.5 856.1,686.3 784.9,646.4 		"/>
		<polygon fill="#343259" points="775.7,658.3 856.1,704.1 856.1,690 784.9,650 		"/>
		<polygon fill="#343259" points="758.2,718.5 838.6,764.4 838.6,750.2 767.4,710.3 		"/>
		<polygon fill="#343259" points="735.5,781.7 815.9,827.6 815.9,813.4 744.7,773.5 		"/>
		<polygon fill="#343259" points="712.2,848.4 792.6,894.3 792.6,880.1 721.4,840.2 		"/>
		<polygon fill="#343259" points="696.9,908.2 777.3,954 777.3,939.9 706.1,899.9 		"/>
		<polygon fill="#343259" points="678.2,960.4 758.6,1006.3 758.6,992.1 687.4,952.2 		"/>
		<g>
			<polygon fill="#424270" points="916.9,470.8 926.2,464.3 939.2,472 930,478.3 			"/>
			<polygon fill="#272747" points="939.2,472 764.1,1032 755.3,1035.2 907.9,526.1 930,478.3 			"/>
			<polygon fill="#343259" points="755.3,1035.2 930,478.3 916.9,470.8 742.1,1027.6 			"/>
		</g>
		<path fill="#FDFDFF" d="M753.4,836.9c0,0-7.7,3.3-9.1,7.7c-1.5,4.4-0.7,9.8,2.2,12c2.9,2.2,10.6,2.9,16.4,6.6
			c5.8,3.6,10.9,10.6,15.7,11.7c4.7,1.1,14.2-2.6,12-7.3c-2.2-4.7-14.5-14.5-14.5-14.5L753.4,836.9z"/>
		<path fill="#FDFDFF" d="M708.6,918.6c0,0-0.4,5.1,0,10.9s4,7.3,11.7,5.5c7.7-1.8,7.3-9.5,15.7-12.8c8.4-3.3,13.1-0.7,15.7-3.6
			c2.6-2.9-1.1-6.6-8-9.1c-6.9-2.6-19.7,0-19.7,0L708.6,918.6z"/>
		<path fill="#4A3D57" d="M799,738.5c-16.8,0-50.3,5.8-50.3,5.8l-24.4,15.3l-30.7-5.1c0,0,1.8,22.6,7.3,39.7
			c5.5,17.1,3.6,44.1,2.9,51c-0.7,6.9-0.4,55,4.7,73.3c0,0,9.1,4.4,16,0c6.9-4.4,8-7.3,8-7.3s-1.1-41.2,0-53.6
			c0.9-9.6,6.8-40.5,8.5-61.9c18.3,0.2,36.7-13.9,36.7-13.9s-16.2,32.4-19.6,39c-3.4,6.6-7.8,16.6-7.8,16.6s13.1,14,27.3,15.8
			c0,0,15.7-35.7,24.4-51.4c8.7-15.7,20.8-37.2,20.4-47.4C822.3,744.4,815.8,738.5,799,738.5z"/>
		<path fill="#F8B38D" d="M769.8,644.9l4-4c0,0,13.5-1.1,18.2,0c4.7,1.1,19.3,5.6,19.7,13c0.4,7.4-4,3.9-11.3,0
			c-7.3-3.9-9.1-1.2-9.6,0c-0.6,1.2-3.5,7,0,10c3.5,2.9,4.5,1.7,6,6c1.5,4.2-4.4,1.3-10.2-4.4c-5.8-5.6-12.8-10.4-12.8-10.4
			L769.8,644.9z"/>
		<path fill="#FED250" d="M745.3,634.3c0,0,24.1,3.3,28.5,6.6v14.2c0,0-22.4,1.1-28.5,4.4c-6.1,3.3-10.5-12.6-10.5-12.6L745.3,634.3
			z"/>
		<path fill="#F8B38D" d="M742.9,602.5c0,0,10.4,6,12.6,10.4c2.2,4.4,0,19.2-3.3,21.4c-3.3,2.2-2.4,11.5-2.6,18.1
			c0,0-11.1,3.3-19.3,0c-8.2-3.3-9.9-14.2-9.9-14.2L742.9,602.5z"/>
		<path fill="#FED250" d="M715.9,632.8c0,0-13.1,2.9-20,9.5c-6.9,6.6-5.5,28.1-2.2,35.7c3.3,7.7,1.8,69.6,0,76.5
			c0,0,5.8,14.6,18.6,19.3c12.8,4.7,27.3,5.8,38.3,0c10.9-5.8,12-14.6,12-14.6s-2.6-24.8-1.5-40.5c1.1-15.7,12-44.5-1.1-57.2
			c-13.1-12.8-23-16.7-23-16.7S722.4,644,715.9,632.8z"/>
		<path fill="#F8B38D" d="M843.8,684.2l2.2-8c0,0,2.2-7.3,5.8-9.8c3.6-2.6,2.2,0.6,6.9,3.4c4.7,2.8,12,4.2,16.8,2
			c4.7-2.2,6.2,0,4,5.8c-2.2,5.8-4,20.4-33.5,13.1L843.8,684.2z"/>
		<path fill="#FED250" d="M756.4,669.9c0,0-10.6-17.1,0-11.7c10.6,5.5,37.5,35.8,54.3,33.3c16.8-2.6,35.4-15.3,35.4-15.3
			s10.6,8.4,3.3,18.2c0,0-14.6,21.1-42.6,23C778.6,719.2,743.2,688.5,756.4,669.9z"/>
		<path fill="#8F4F51" d="M745.1,611.7c0,0,2.3-9.5-6.7-14.6c-9-5.1-18.5,7.7-23.6,11.7c-5.1,4-7.7,18.6-4,25.1
			c3.6,6.6,7.7,10.2,16.4,10.9c8.7,0.7,13.8-9.1,13.5-14.9C740.3,624.1,745.1,611.7,745.1,611.7z"/>
	</g>
	<g>
		<g>
			<polygon fill="#C5D2D3" points="789.9,1052.9 782,1057.5 781.9,1081.1 789.8,1076.5 			"/>
			<polygon fill="#C5D2D3" points="690.1,1057.5 682.1,1052.9 682,1076.5 690,1081.1 			"/>
			<path fill="#C5D2D3" d="M713,1097.3c0-0.1,0-0.2,0-0.3c0-0.1,0-0.2,0.1-0.3c0-0.1,0-0.2,0.1-0.3c0-0.1,0.1-0.2,0.1-0.3
				c0-0.1,0.1-0.2,0.1-0.3c0-0.1,0.1-0.2,0.1-0.3c0-0.1,0.1-0.2,0.1-0.3c0-0.1,0.1-0.2,0.1-0.3c0-0.1,0.1-0.2,0.1-0.3
				c0.1-0.1,0.1-0.2,0.2-0.3c0.1-0.1,0.1-0.2,0.2-0.3c0.1-0.1,0.2-0.3,0.3-0.4c0.1-0.1,0.1-0.2,0.2-0.2c0.1-0.1,0.2-0.3,0.3-0.4
				c0-0.1,0.1-0.1,0.1-0.2c0.2-0.2,0.4-0.5,0.6-0.7c0.1-0.1,0.1-0.1,0.2-0.2c0.2-0.2,0.3-0.3,0.5-0.5c0.1-0.1,0.2-0.2,0.3-0.2
				c0.1-0.1,0.2-0.2,0.3-0.3c0.1-0.1,0.2-0.2,0.3-0.3c0.1-0.1,0.2-0.2,0.4-0.3c0.1-0.1,0.2-0.2,0.3-0.3c0.1-0.1,0.3-0.2,0.4-0.3
				c0.1-0.1,0.2-0.2,0.4-0.2c0.1-0.1,0.3-0.2,0.4-0.3c0.2-0.1,0.3-0.2,0.5-0.3c0.3-0.2,0.7-0.4,1.1-0.6c0.1-0.1,0.2-0.1,0.3-0.2
				c0.3-0.1,0.6-0.3,0.9-0.4c0.1,0,0.2-0.1,0.3-0.1c0.4-0.2,0.8-0.3,1.1-0.5c0.1,0,0.1,0,0.2-0.1c0.3-0.1,0.7-0.2,1-0.4
				c0.1,0,0.3-0.1,0.4-0.1c0.2-0.1,0.4-0.1,0.6-0.2c0.2,0,0.3-0.1,0.5-0.1c0.2-0.1,0.4-0.1,0.6-0.2c0.2,0,0.3-0.1,0.5-0.1
				c0.2,0,0.4-0.1,0.6-0.1c0.2,0,0.3-0.1,0.5-0.1c0.2,0,0.4-0.1,0.6-0.1c0.2,0,0.3-0.1,0.5-0.1c0.4-0.1,0.9-0.1,1.3-0.2
				c0.1,0,0.1,0,0.2,0c0.4-0.1,0.8-0.1,1.2-0.1c0.1,0,0.3,0,0.4,0c0.2,0,0.5,0,0.7-0.1c0.2,0,0.3,0,0.5,0c0.3,0,0.5,0,0.8,0
				c0.1,0,0.3,0,0.4,0c0.2,0,0.5,0,0.7,0c0.2,0,0.3,0,0.5,0c0.2,0,0.5,0,0.7,0c0.1,0,0.3,0,0.4,0c0.7,0,1.5,0.1,2.2,0.1
				c0,0,0,0,0.1,0c0.7,0.1,1.5,0.1,2.2,0.2c0.1,0,0.1,0,0.2,0c0.3,0,0.6,0.1,0.9,0.1c0.1,0,0.3,0,0.4,0.1c0.2,0,0.5,0.1,0.7,0.1
				c0.1,0,0.2,0.1,0.4,0.1c0.3,0.1,0.5,0.1,0.8,0.2c0.1,0,0.3,0.1,0.4,0.1c0.2,0.1,0.5,0.1,0.7,0.2c0.1,0,0.3,0.1,0.4,0.1
				c0.4,0.1,0.7,0.2,1.1,0.3c0.1,0,0.1,0,0.2,0.1c0.4,0.1,0.8,0.3,1.2,0.4c0.1,0,0.2,0.1,0.3,0.1c0.5,0.2,1,0.4,1.5,0.7
				c0.1,0,0.1,0,0.1,0.1c0.5,0.3,1,0.5,1.5,0.8c4.5,2.6,6.8,6.1,6.8,9.5l0.1-23.6c0-3.4-2.3-6.9-6.8-9.5c-0.5-0.3-1-0.5-1.5-0.8
				c-0.1,0-0.1-0.1-0.1-0.1c-0.5-0.2-1-0.5-1.5-0.7c0,0-0.1,0-0.1-0.1c0,0-0.1,0-0.1,0c-0.4-0.2-0.8-0.3-1.2-0.4
				c-0.1,0-0.1,0-0.2-0.1c-0.4-0.1-0.7-0.2-1.1-0.3c-0.1,0-0.1,0-0.2-0.1c-0.1,0-0.1,0-0.2-0.1c-0.2-0.1-0.5-0.1-0.7-0.2
				c-0.1,0-0.3-0.1-0.4-0.1c-0.3-0.1-0.5-0.1-0.8-0.2c-0.1,0-0.2,0-0.3-0.1c0,0-0.1,0-0.1,0c-0.2,0-0.5-0.1-0.7-0.1
				c-0.1,0-0.3-0.1-0.4-0.1c-0.3-0.1-0.6-0.1-0.9-0.1c-0.1,0-0.1,0-0.2,0c0,0,0,0,0,0c-0.7-0.1-1.5-0.2-2.2-0.2c0,0,0,0,0,0
				c0,0,0,0,0,0c-0.7-0.1-1.5-0.1-2.2-0.1c0,0,0,0,0,0c-0.1,0-0.2,0-0.4,0c-0.2,0-0.5,0-0.7,0c-0.2,0-0.3,0-0.5,0
				c-0.2,0-0.5,0-0.7,0c0,0-0.1,0-0.1,0c-0.1,0-0.2,0-0.3,0c-0.3,0-0.5,0-0.8,0c-0.2,0-0.3,0-0.5,0c-0.2,0-0.5,0-0.7,0.1
				c-0.1,0-0.2,0-0.3,0c-0.1,0-0.1,0-0.2,0c-0.4,0-0.8,0.1-1.2,0.1c-0.1,0-0.1,0-0.2,0c-0.4,0.1-0.9,0.1-1.3,0.2c0,0-0.1,0-0.1,0
				c-0.1,0-0.2,0-0.3,0.1c-0.2,0-0.4,0.1-0.6,0.1c-0.2,0-0.3,0.1-0.5,0.1c-0.2,0-0.4,0.1-0.6,0.1c-0.2,0-0.3,0.1-0.5,0.1
				c-0.2,0-0.4,0.1-0.6,0.2c-0.2,0-0.3,0.1-0.5,0.1c-0.2,0.1-0.4,0.1-0.6,0.2c-0.1,0-0.2,0-0.2,0.1c-0.1,0-0.1,0-0.2,0.1
				c-0.2,0.1-0.4,0.1-0.6,0.2l0.1-19.4l0-6.5l-0.1,23.6l0,2.3c-0.1,0-0.3,0.1-0.4,0.1c-0.1,0-0.1,0-0.2,0.1
				c-0.4,0.1-0.8,0.3-1.1,0.5c-0.1,0-0.2,0.1-0.3,0.1c-0.3,0.1-0.6,0.3-0.9,0.4c-0.1,0.1-0.2,0.1-0.3,0.2c-0.4,0.2-0.7,0.4-1.1,0.6
				c-0.1,0.1-0.2,0.1-0.3,0.2c-0.1,0.1-0.2,0.1-0.3,0.2c-0.1,0.1-0.3,0.2-0.4,0.3c-0.1,0.1-0.2,0.2-0.4,0.2
				c-0.1,0.1-0.3,0.2-0.4,0.3c-0.1,0.1-0.2,0.2-0.3,0.3c-0.1,0.1-0.2,0.2-0.4,0.3c-0.1,0.1-0.2,0.2-0.3,0.3
				c-0.1,0.1-0.2,0.2-0.3,0.3c0,0-0.1,0.1-0.1,0.1c0,0-0.1,0.1-0.1,0.1c-0.2,0.2-0.4,0.3-0.5,0.5c-0.1,0.1-0.1,0.1-0.2,0.2
				c-0.2,0.2-0.4,0.5-0.6,0.7c0,0,0,0,0,0c0,0.1-0.1,0.1-0.1,0.2c-0.1,0.1-0.2,0.3-0.3,0.4c-0.1,0.1-0.1,0.2-0.2,0.2
				c-0.1,0.1-0.2,0.3-0.3,0.4c0,0,0,0.1-0.1,0.1c0,0.1-0.1,0.1-0.1,0.2c-0.1,0.1-0.1,0.2-0.2,0.3c0,0.1-0.1,0.2-0.1,0.3
				c-0.1,0.1-0.1,0.2-0.1,0.3c0,0.1,0,0.1-0.1,0.2c0,0,0,0.1,0,0.1c0,0.1-0.1,0.2-0.1,0.3c0,0.1-0.1,0.2-0.1,0.3
				c0,0.1-0.1,0.2-0.1,0.3c0,0.1,0,0.1,0,0.2c0,0,0,0.1,0,0.1c0,0.1,0,0.2-0.1,0.3c0,0.1,0,0.2,0,0.3c0,0.1,0,0.2,0,0.3
				c0,0.1,0,0.1,0,0.2c0,0.1,0,0.1,0,0.2L713,1098c0-0.1,0-0.3,0-0.4C713,1097.5,713,1097.4,713,1097.3z"/>
			<path fill="#C5D2D3" d="M800.6,1081.3l-11.3,0c-0.2,0.4-0.3,0.8-0.5,1.2c0,0.1-0.1,0.1-0.1,0.2c-0.2,0.4-0.4,0.8-0.6,1.1
				c0,0.1-0.1,0.1-0.1,0.2c-0.2,0.4-0.4,0.8-0.7,1.2c0,0,0,0,0,0c-0.2,0.4-0.5,0.7-0.7,1.1c-0.1,0.1-0.1,0.2-0.2,0.2
				c-0.3,0.4-0.5,0.7-0.8,1.1c-0.1,0.1-0.1,0.2-0.2,0.2c-0.2,0.3-0.5,0.6-0.7,0.9c-0.1,0.1-0.2,0.2-0.3,0.3
				c-0.3,0.3-0.5,0.6-0.8,0.9c-0.1,0.1-0.1,0.2-0.2,0.2c-0.4,0.4-0.8,0.8-1.2,1.1l0,9.3l-8.6,5l-8-4.6c-0.9,0.3-1.7,0.6-2.6,0.9
				c-0.3,0.1-0.6,0.2-0.8,0.3c-0.5,0.1-0.9,0.3-1.4,0.4c-0.3,0.1-0.6,0.2-0.9,0.3c-0.5,0.1-1,0.3-1.5,0.4c-0.3,0.1-0.6,0.2-0.9,0.2
				c-0.6,0.1-1.1,0.3-1.7,0.4c-0.2,0-0.4,0.1-0.7,0.2c-0.8,0.2-1.6,0.3-2.4,0.5c-0.5,0.1-1,0.2-1.5,0.2c-0.2,0-0.5,0.1-0.7,0.1
				c-0.7,0.1-1.5,0.2-2.3,0.3l0,6.5l-23.5,0l0-6.5c-0.6-0.1-1.1-0.2-1.7-0.2c-0.5-0.1-1.1-0.2-1.6-0.3c-0.3,0-0.6-0.1-0.9-0.1
				c-0.6-0.1-1.3-0.2-1.9-0.4c-0.2,0-0.4-0.1-0.6-0.1c-0.9-0.2-1.7-0.4-2.6-0.6c-0.2-0.1-0.5-0.1-0.7-0.2c-0.6-0.2-1.3-0.3-1.9-0.5
				c-0.3-0.1-0.6-0.2-0.8-0.2c-0.6-0.2-1.1-0.3-1.7-0.5c-0.2-0.1-0.5-0.2-0.7-0.2c-0.8-0.3-1.6-0.5-2.4-0.8l-7.9,4.6l-8.8-5.1l0-9.2
				c-2.6-2.4-4.6-4.9-6.1-7.5c-0.5-0.9-0.9-1.7-1.2-2.6h0l0,0l0,0l-11.3,0l-0.1-13.7l-0.1,23.6l0.1,13.7l10.7,0l0,14.7l16.7,9.7
				l7.9-4.6c0.8,0.3,1.6,0.6,2.4,0.8c0.2,0.1,0.5,0.2,0.8,0.2c0.6,0.2,1.1,0.3,1.7,0.5c0.1,0,0.3,0.1,0.4,0.1c0.1,0,0.3,0.1,0.4,0.1
				c0.6,0.2,1.3,0.3,1.9,0.5c0.2,0.1,0.5,0.1,0.7,0.2c0.9,0.2,1.7,0.4,2.6,0.6c0,0,0.1,0,0.1,0c0.2,0,0.3,0.1,0.5,0.1
				c0.6,0.1,1.3,0.2,1.9,0.4c0.3,0.1,0.6,0.1,0.9,0.1c0.5,0.1,1.1,0.2,1.6,0.3c0.1,0,0.3,0,0.4,0.1c0.4,0.1,0.8,0.1,1.2,0.2l0,6.5
				l23.6,0l0-6.5c0.7-0.1,1.5-0.2,2.2-0.3c0.2,0,0.5-0.1,0.7-0.1c0.5-0.1,1-0.2,1.4-0.2c0,0,0,0,0.1,0c0.8-0.1,1.6-0.3,2.4-0.5
				c0.2,0,0.4-0.1,0.7-0.2c0.6-0.1,1.2-0.3,1.7-0.4c0.3-0.1,0.6-0.1,0.9-0.2c0.5-0.1,1-0.3,1.5-0.4c0.3-0.1,0.6-0.2,0.9-0.3
				c0.5-0.1,1-0.3,1.4-0.4c0.2-0.1,0.3-0.1,0.5-0.2c0.1,0,0.2-0.1,0.3-0.1c0.9-0.3,1.8-0.6,2.6-0.9l8,4.6l16.6-9.7l0-14.7l10.4,0
				L800.6,1081.3z"/>
		</g>
		<path fill="#FFFFFF" d="M789.3,1081.3l11.3,0l-0.1-13.7l-11.3,0c-1.4-3.5-3.8-7-7.3-10.1l7.9-4.6l-16.7-9.7l-7.9,4.6
			c-5.5-2-11.4-3.4-17.5-4.2l0-6.5l-23.6,0l0,6.5c-6.1,0.8-12,2.2-17.5,4.2l-8-4.6l-16.6,9.7l8,4.6c-3.5,3.2-5.9,6.6-7.2,10.1
			l-11.3,0l0.1,13.7l11.3,0c1.4,3.5,3.8,7,7.3,10.1l-7.9,4.6l16.7,9.7l7.9-4.6c5.5,2,11.4,3.4,17.5,4.2l0,6.5l23.6,0l0-6.5
			c6.1-0.8,12-2.2,17.5-4.2l8,4.6l16.6-9.7l-8-4.6C785.6,1088.3,788,1084.9,789.3,1081.3z M752.4,1083.9c-9,5.2-23.5,5.2-32.6,0
			c-9-5.2-9.1-13.7-0.1-18.9c9-5.2,23.6-5.2,32.6,0C761.4,1070.3,761.4,1078.7,752.4,1083.9z"/>
	</g>
	<g>
		<g>
			<polygon fill="#C5D2D3" points="891.9,1113.4 885.7,1116.9 885.7,1135.2 891.8,1131.6 			"/>
			<polygon fill="#C5D2D3" points="814.8,1116.9 808.6,1113.4 808.6,1131.6 814.8,1135.2 			"/>
			<path fill="#C5D2D3" d="M832.6,1147.6c0-0.1,0-0.2,0-0.2c0-0.1,0-0.2,0-0.3c0-0.1,0-0.2,0-0.2c0-0.1,0-0.2,0.1-0.3
				c0-0.1,0-0.2,0.1-0.2c0-0.1,0.1-0.2,0.1-0.3c0-0.1,0.1-0.2,0.1-0.2c0-0.1,0.1-0.2,0.1-0.3c0-0.1,0.1-0.2,0.1-0.2
				c0-0.1,0.1-0.2,0.1-0.3c0-0.1,0.1-0.1,0.1-0.2c0.1-0.1,0.1-0.2,0.2-0.3c0-0.1,0.1-0.1,0.1-0.2c0.1-0.1,0.2-0.2,0.3-0.3
				c0,0,0.1-0.1,0.1-0.1c0.1-0.2,0.3-0.4,0.5-0.5c0,0,0.1-0.1,0.1-0.1c0.1-0.1,0.3-0.3,0.4-0.4c0.1-0.1,0.1-0.1,0.2-0.2
				c0.1-0.1,0.2-0.1,0.3-0.2c0.1-0.1,0.2-0.1,0.2-0.2c0.1-0.1,0.2-0.1,0.3-0.2c0.1-0.1,0.2-0.1,0.3-0.2c0.1-0.1,0.2-0.1,0.3-0.2
				c0.1-0.1,0.2-0.1,0.3-0.2c0.1-0.1,0.2-0.1,0.3-0.2c0.1-0.1,0.3-0.2,0.4-0.3c0.3-0.2,0.5-0.3,0.8-0.4c0.1,0,0.2-0.1,0.2-0.1
				c0.2-0.1,0.4-0.2,0.7-0.3c0.1,0,0.1-0.1,0.2-0.1c0.3-0.1,0.6-0.2,0.9-0.4c0.1,0,0.1,0,0.2-0.1c0.3-0.1,0.5-0.2,0.8-0.3
				c0.1,0,0.2-0.1,0.3-0.1c0.1,0,0.3-0.1,0.4-0.1c0.1,0,0.2-0.1,0.4-0.1c0.1,0,0.3-0.1,0.4-0.1c0.1,0,0.2-0.1,0.4-0.1
				c0.2,0,0.3-0.1,0.5-0.1c0.1,0,0.3-0.1,0.4-0.1c0.2,0,0.3-0.1,0.5-0.1c0.1,0,0.2,0,0.4-0.1c0.3-0.1,0.7-0.1,1-0.2c0,0,0.1,0,0.1,0
				c0.3,0,0.6-0.1,0.9-0.1c0.1,0,0.2,0,0.3,0c0.2,0,0.4,0,0.6,0c0.1,0,0.2,0,0.4,0c0.2,0,0.4,0,0.6,0c0.1,0,0.2,0,0.3,0
				c0.2,0,0.3,0,0.5,0c0.1,0,0.2,0,0.4,0c0.2,0,0.4,0,0.6,0c0.1,0,0.2,0,0.3,0c0.6,0,1.1,0,1.7,0.1c0,0,0,0,0,0
				c0.6,0,1.1,0.1,1.7,0.2c0,0,0.1,0,0.1,0c0.2,0,0.5,0.1,0.7,0.1c0.1,0,0.2,0,0.3,0.1c0.2,0,0.4,0.1,0.5,0.1c0.1,0,0.2,0,0.3,0.1
				c0.2,0,0.4,0.1,0.6,0.1c0.1,0,0.2,0.1,0.3,0.1c0.2,0,0.4,0.1,0.5,0.1c0.1,0,0.2,0.1,0.3,0.1c0.3,0.1,0.6,0.2,0.8,0.3
				c0,0,0.1,0,0.1,0c0.3,0.1,0.6,0.2,0.9,0.3c0.1,0,0.1,0.1,0.2,0.1c0.4,0.2,0.8,0.3,1.2,0.5c0,0,0.1,0,0.1,0.1
				c0.4,0.2,0.8,0.4,1.2,0.6c3.5,2,5.3,4.7,5.2,7.3l0.1-18.2c0-2.7-1.7-5.3-5.2-7.3c-0.4-0.2-0.8-0.4-1.2-0.6c0,0-0.1,0-0.1-0.1
				c-0.4-0.2-0.8-0.4-1.2-0.5c0,0-0.1,0-0.1,0c0,0-0.1,0-0.1,0c-0.3-0.1-0.6-0.2-0.9-0.3c0,0-0.1,0-0.1,0c-0.3-0.1-0.6-0.2-0.8-0.3
				c0,0-0.1,0-0.1,0c-0.1,0-0.1,0-0.2,0c-0.2,0-0.4-0.1-0.5-0.1c-0.1,0-0.2-0.1-0.3-0.1c-0.2,0-0.4-0.1-0.6-0.1
				c-0.1,0-0.1,0-0.2-0.1c0,0,0,0-0.1,0c-0.2,0-0.4-0.1-0.5-0.1c-0.1,0-0.2,0-0.3-0.1c-0.2,0-0.5-0.1-0.7-0.1c0,0-0.1,0-0.1,0
				c0,0,0,0,0,0c-0.6-0.1-1.1-0.1-1.7-0.2c0,0,0,0,0,0c0,0,0,0,0,0c-0.6,0-1.1-0.1-1.7-0.1c0,0,0,0,0,0c-0.1,0-0.2,0-0.3,0
				c-0.2,0-0.4,0-0.6,0c-0.1,0-0.2,0-0.4,0c-0.2,0-0.3,0-0.5,0c0,0-0.1,0-0.1,0c-0.1,0-0.2,0-0.2,0c-0.2,0-0.4,0-0.6,0
				c-0.1,0-0.2,0-0.4,0c-0.2,0-0.4,0-0.6,0c-0.1,0-0.1,0-0.2,0c0,0-0.1,0-0.1,0c-0.3,0-0.6,0.1-0.9,0.1c0,0-0.1,0-0.1,0
				c-0.3,0-0.7,0.1-1,0.2c0,0-0.1,0-0.1,0c-0.1,0-0.2,0-0.3,0.1c-0.2,0-0.3,0.1-0.5,0.1c-0.1,0-0.3,0.1-0.4,0.1
				c-0.2,0-0.3,0.1-0.5,0.1c-0.1,0-0.2,0.1-0.4,0.1c-0.1,0-0.3,0.1-0.4,0.1c-0.1,0-0.2,0.1-0.4,0.1c-0.1,0-0.3,0.1-0.4,0.1
				c-0.1,0-0.1,0-0.2,0.1c0,0-0.1,0-0.1,0c-0.1,0-0.3,0.1-0.4,0.1l0-15l0-5l-0.1,18.2l0,1.8c-0.1,0-0.2,0.1-0.3,0.1
				c-0.1,0-0.1,0-0.2,0.1c-0.3,0.1-0.6,0.2-0.9,0.4c-0.1,0-0.1,0.1-0.2,0.1c-0.2,0.1-0.4,0.2-0.7,0.3c-0.1,0-0.2,0.1-0.2,0.1
				c-0.3,0.1-0.6,0.3-0.8,0.4c-0.1,0-0.1,0.1-0.2,0.1c-0.1,0-0.1,0.1-0.2,0.1c-0.1,0.1-0.2,0.1-0.3,0.2c-0.1,0.1-0.2,0.1-0.3,0.2
				c-0.1,0.1-0.2,0.1-0.3,0.2c-0.1,0.1-0.2,0.1-0.3,0.2c-0.1,0.1-0.2,0.1-0.3,0.2c-0.1,0.1-0.2,0.1-0.2,0.2
				c-0.1,0.1-0.2,0.1-0.3,0.2c0,0-0.1,0.1-0.1,0.1c0,0-0.1,0.1-0.1,0.1c-0.1,0.1-0.3,0.3-0.4,0.4c0,0-0.1,0.1-0.1,0.1
				c-0.2,0.2-0.3,0.4-0.5,0.5c0,0,0,0,0,0c0,0-0.1,0.1-0.1,0.1c-0.1,0.1-0.2,0.2-0.3,0.3c0,0.1-0.1,0.1-0.1,0.2
				c-0.1,0.1-0.1,0.2-0.2,0.3c0,0,0,0.1-0.1,0.1c0,0,0,0.1-0.1,0.1c0,0.1-0.1,0.2-0.1,0.3c0,0.1-0.1,0.1-0.1,0.2
				c0,0.1-0.1,0.2-0.1,0.3c0,0,0,0.1-0.1,0.1c0,0,0,0.1,0,0.1c0,0.1-0.1,0.2-0.1,0.3c0,0.1,0,0.2-0.1,0.2c0,0.1,0,0.2-0.1,0.3
				c0,0,0,0.1,0,0.1c0,0,0,0.1,0,0.1c0,0.1,0,0.2,0,0.3c0,0.1,0,0.2,0,0.2c0,0.1,0,0.2,0,0.3c0,0.1,0,0.1,0,0.2c0,0.1,0,0.1,0,0.2
				l-0.1,18.2c0-0.1,0-0.2,0-0.3C832.5,1147.8,832.5,1147.7,832.6,1147.6z"/>
			<path fill="#C5D2D3" d="M900.1,1135.3l-8.7,0c-0.1,0.3-0.2,0.6-0.4,0.9c0,0.1,0,0.1-0.1,0.2c-0.1,0.3-0.3,0.6-0.4,0.9
				c0,0.1-0.1,0.1-0.1,0.2c-0.2,0.3-0.3,0.6-0.5,0.9c0,0,0,0,0,0c-0.2,0.3-0.4,0.6-0.6,0.9c0,0.1-0.1,0.1-0.1,0.2
				c-0.2,0.3-0.4,0.6-0.6,0.8c-0.1,0.1-0.1,0.1-0.2,0.2c-0.2,0.2-0.4,0.5-0.6,0.7c-0.1,0.1-0.2,0.2-0.2,0.3
				c-0.2,0.2-0.4,0.5-0.6,0.7c-0.1,0.1-0.1,0.1-0.2,0.2c-0.3,0.3-0.6,0.6-0.9,0.9l0,7.2l-6.6,3.9l-6.2-3.6c-0.7,0.2-1.3,0.5-2,0.7
				c-0.2,0.1-0.4,0.1-0.6,0.2c-0.4,0.1-0.7,0.2-1.1,0.3c-0.2,0.1-0.5,0.1-0.7,0.2c-0.4,0.1-0.8,0.2-1.2,0.3
				c-0.2,0.1-0.4,0.1-0.7,0.2c-0.4,0.1-0.9,0.2-1.3,0.3c-0.2,0-0.3,0.1-0.5,0.1c-0.6,0.1-1.2,0.3-1.9,0.4c-0.4,0.1-0.8,0.1-1.1,0.2
				c-0.2,0-0.4,0.1-0.6,0.1c-0.6,0.1-1.2,0.2-1.7,0.2l0,5l-18.2,0l0-5c-0.4-0.1-0.9-0.1-1.3-0.2c-0.4-0.1-0.8-0.1-1.3-0.2
				c-0.2,0-0.5-0.1-0.7-0.1c-0.5-0.1-1-0.2-1.5-0.3c-0.1,0-0.3-0.1-0.4-0.1c-0.7-0.1-1.3-0.3-2-0.5c-0.2,0-0.4-0.1-0.5-0.1
				c-0.5-0.1-1-0.3-1.5-0.4c-0.2-0.1-0.4-0.1-0.6-0.2c-0.4-0.1-0.9-0.3-1.3-0.4c-0.2-0.1-0.4-0.1-0.6-0.2c-0.6-0.2-1.2-0.4-1.8-0.6
				l-6.1,3.6l-6.8-3.9l0-7.1c-2-1.8-3.6-3.8-4.7-5.8c-0.4-0.7-0.7-1.3-0.9-2h0l0,0l0,0l-8.7,0l-0.1-10.5l-0.1,18.2l0.1,10.5l8.2,0
				l0,11.4l12.9,7.5l6.1-3.6c0.6,0.2,1.2,0.4,1.8,0.6c0.2,0.1,0.4,0.1,0.6,0.2c0.4,0.1,0.9,0.3,1.3,0.4c0.1,0,0.2,0.1,0.3,0.1
				c0.1,0,0.2,0.1,0.3,0.1c0.5,0.1,1,0.3,1.5,0.4c0.2,0,0.4,0.1,0.5,0.1c0.7,0.2,1.3,0.3,2,0.5c0,0,0,0,0.1,0c0.1,0,0.3,0,0.4,0.1
				c0.5,0.1,1,0.2,1.5,0.3c0.2,0,0.5,0.1,0.7,0.1c0.4,0.1,0.8,0.1,1.3,0.2c0.1,0,0.2,0,0.3,0.1c0.3,0,0.6,0.1,1,0.1l0,5l18.2,0l0-5
				c0.6-0.1,1.1-0.2,1.7-0.2c0.2,0,0.4-0.1,0.6-0.1c0.4-0.1,0.7-0.1,1.1-0.2c0,0,0,0,0,0c0.6-0.1,1.3-0.2,1.9-0.4
				c0.2,0,0.3-0.1,0.5-0.1c0.4-0.1,0.9-0.2,1.3-0.3c0.2-0.1,0.4-0.1,0.7-0.2c0.4-0.1,0.8-0.2,1.2-0.3c0.2-0.1,0.5-0.1,0.7-0.2
				c0.4-0.1,0.7-0.2,1.1-0.3c0.1,0,0.3-0.1,0.4-0.1c0.1,0,0.2-0.1,0.2-0.1c0.7-0.2,1.4-0.5,2-0.7l6.2,3.6l12.8-7.5l0-11.4l8,0
				L900.1,1135.3z"/>
		</g>
		<path fill="#FFFFFF" d="M891.4,1135.3l8.7,0l-0.1-10.5l-8.7,0c-1.1-2.7-2.9-5.4-5.6-7.8l6.1-3.6l-12.9-7.5l-6.1,3.6
			c-4.2-1.6-8.8-2.6-13.5-3.2l0-5l-18.2,0l0,5c-4.7,0.6-9.3,1.7-13.5,3.2l-6.2-3.6l-12.8,7.5l6.2,3.6c-2.7,2.4-4.5,5.1-5.5,7.8
			l-8.7,0l0.1,10.5l8.7,0c1.1,2.7,2.9,5.4,5.6,7.8l-6.1,3.6l12.9,7.5l6.1-3.6c4.2,1.6,8.8,2.6,13.5,3.2l0,5l18.2,0l0-5
			c4.7-0.6,9.3-1.7,13.5-3.2l6.2,3.6l12.8-7.5l-6.2-3.6C888.5,1140.7,890.4,1138,891.4,1135.3z M863,1137.3c-6.9,4-18.2,4-25.1,0
			c-7-4-7-10.5-0.1-14.6c6.9-4,18.2-4,25.1,0C869.8,1126.8,869.9,1133.3,863,1137.3z"/>
	</g>
	<g>
		<g>
			<polygon fill="#C5D2D3" points="796.8,1153.1 790.7,1156.7 790.6,1174.9 796.7,1171.4 			"/>
			<polygon fill="#C5D2D3" points="719.8,1156.7 713.6,1153.1 713.5,1171.4 719.7,1174.9 			"/>
			<path fill="#C5D2D3" d="M737.5,1187.4c0-0.1,0-0.2,0-0.2c0-0.1,0-0.2,0-0.3c0-0.1,0-0.2,0-0.2c0-0.1,0-0.2,0.1-0.3
				c0-0.1,0-0.2,0.1-0.2c0-0.1,0.1-0.2,0.1-0.3c0-0.1,0.1-0.2,0.1-0.2c0-0.1,0.1-0.2,0.1-0.3c0-0.1,0.1-0.2,0.1-0.2
				c0-0.1,0.1-0.2,0.1-0.3c0-0.1,0.1-0.1,0.1-0.2c0.1-0.1,0.1-0.2,0.2-0.3c0-0.1,0.1-0.1,0.1-0.2c0.1-0.1,0.2-0.2,0.3-0.3
				c0,0,0.1-0.1,0.1-0.1c0.1-0.2,0.3-0.4,0.5-0.5c0,0,0.1-0.1,0.1-0.1c0.1-0.1,0.3-0.3,0.4-0.4c0.1-0.1,0.1-0.1,0.2-0.2
				c0.1-0.1,0.2-0.1,0.3-0.2c0.1-0.1,0.2-0.1,0.2-0.2c0.1-0.1,0.2-0.1,0.3-0.2c0.1-0.1,0.2-0.1,0.3-0.2c0.1-0.1,0.2-0.1,0.3-0.2
				c0.1-0.1,0.2-0.1,0.3-0.2c0.1-0.1,0.2-0.1,0.3-0.2c0.1-0.1,0.3-0.2,0.4-0.3c0.3-0.2,0.5-0.3,0.8-0.4c0.1,0,0.2-0.1,0.2-0.1
				c0.2-0.1,0.4-0.2,0.7-0.3c0.1,0,0.1-0.1,0.2-0.1c0.3-0.1,0.6-0.2,0.9-0.4c0.1,0,0.1,0,0.2-0.1c0.3-0.1,0.5-0.2,0.8-0.3
				c0.1,0,0.2-0.1,0.3-0.1c0.1,0,0.3-0.1,0.4-0.1c0.1,0,0.2-0.1,0.4-0.1c0.1,0,0.3-0.1,0.4-0.1c0.1,0,0.2-0.1,0.4-0.1
				c0.2,0,0.3-0.1,0.5-0.1c0.1,0,0.3-0.1,0.4-0.1c0.2,0,0.3-0.1,0.5-0.1c0.1,0,0.2,0,0.4-0.1c0.3-0.1,0.7-0.1,1-0.2c0,0,0.1,0,0.1,0
				c0.3,0,0.6-0.1,0.9-0.1c0.1,0,0.2,0,0.3,0c0.2,0,0.4,0,0.6,0c0.1,0,0.2,0,0.4,0c0.2,0,0.4,0,0.6,0c0.1,0,0.2,0,0.3,0
				c0.2,0,0.3,0,0.5,0c0.1,0,0.2,0,0.4,0c0.2,0,0.4,0,0.6,0c0.1,0,0.2,0,0.3,0c0.6,0,1.1,0,1.7,0.1c0,0,0,0,0,0
				c0.6,0,1.1,0.1,1.7,0.2c0,0,0.1,0,0.1,0c0.2,0,0.5,0.1,0.7,0.1c0.1,0,0.2,0,0.3,0.1c0.2,0,0.4,0.1,0.5,0.1c0.1,0,0.2,0,0.3,0.1
				c0.2,0,0.4,0.1,0.6,0.1c0.1,0,0.2,0.1,0.3,0.1c0.2,0,0.4,0.1,0.5,0.1c0.1,0,0.2,0.1,0.3,0.1c0.3,0.1,0.6,0.2,0.8,0.3
				c0,0,0.1,0,0.1,0c0.3,0.1,0.6,0.2,0.9,0.3c0.1,0,0.1,0.1,0.2,0.1c0.4,0.2,0.8,0.3,1.2,0.5c0,0,0.1,0,0.1,0.1
				c0.4,0.2,0.8,0.4,1.2,0.6c3.5,2,5.3,4.7,5.2,7.3l0.1-18.2c0-2.7-1.7-5.3-5.2-7.3c-0.4-0.2-0.8-0.4-1.2-0.6c0,0-0.1,0-0.1-0.1
				c-0.4-0.2-0.8-0.4-1.2-0.5c0,0-0.1,0-0.1,0c0,0-0.1,0-0.1,0c-0.3-0.1-0.6-0.2-0.9-0.3c0,0-0.1,0-0.1,0c-0.3-0.1-0.6-0.2-0.8-0.3
				c0,0-0.1,0-0.1,0c-0.1,0-0.1,0-0.2,0c-0.2,0-0.4-0.1-0.5-0.1c-0.1,0-0.2-0.1-0.3-0.1c-0.2,0-0.4-0.1-0.6-0.1
				c-0.1,0-0.1,0-0.2-0.1c0,0,0,0-0.1,0c-0.2,0-0.4-0.1-0.5-0.1c-0.1,0-0.2,0-0.3-0.1c-0.2,0-0.5-0.1-0.7-0.1c0,0-0.1,0-0.1,0
				c0,0,0,0,0,0c-0.6-0.1-1.1-0.1-1.7-0.2c0,0,0,0,0,0c0,0,0,0,0,0c-0.6,0-1.1-0.1-1.7-0.1c0,0,0,0,0,0c-0.1,0-0.2,0-0.3,0
				c-0.2,0-0.4,0-0.6,0c-0.1,0-0.2,0-0.4,0c-0.2,0-0.3,0-0.5,0c0,0-0.1,0-0.1,0c-0.1,0-0.2,0-0.2,0c-0.2,0-0.4,0-0.6,0
				c-0.1,0-0.2,0-0.4,0c-0.2,0-0.4,0-0.6,0c-0.1,0-0.1,0-0.2,0c0,0-0.1,0-0.1,0c-0.3,0-0.6,0.1-0.9,0.1c0,0-0.1,0-0.1,0
				c-0.3,0-0.7,0.1-1,0.2c0,0-0.1,0-0.1,0c-0.1,0-0.2,0-0.3,0.1c-0.2,0-0.3,0.1-0.5,0.1c-0.1,0-0.3,0.1-0.4,0.1
				c-0.2,0-0.3,0.1-0.5,0.1c-0.1,0-0.2,0.1-0.4,0.1c-0.1,0-0.3,0.1-0.4,0.1c-0.1,0-0.2,0.1-0.4,0.1c-0.1,0-0.3,0.1-0.4,0.1
				c-0.1,0-0.1,0-0.2,0.1c0,0-0.1,0-0.1,0c-0.1,0-0.3,0.1-0.4,0.1l0-15l0-5l-0.1,18.2l0,1.8c-0.1,0-0.2,0.1-0.3,0.1
				c-0.1,0-0.1,0-0.2,0.1c-0.3,0.1-0.6,0.2-0.9,0.4c-0.1,0-0.1,0.1-0.2,0.1c-0.2,0.1-0.4,0.2-0.7,0.3c-0.1,0-0.2,0.1-0.2,0.1
				c-0.3,0.1-0.6,0.3-0.8,0.4c-0.1,0-0.1,0.1-0.2,0.1c-0.1,0-0.1,0.1-0.2,0.1c-0.1,0.1-0.2,0.1-0.3,0.2c-0.1,0.1-0.2,0.1-0.3,0.2
				c-0.1,0.1-0.2,0.1-0.3,0.2c-0.1,0.1-0.2,0.1-0.3,0.2c-0.1,0.1-0.2,0.1-0.3,0.2c-0.1,0.1-0.2,0.1-0.2,0.2
				c-0.1,0.1-0.2,0.1-0.3,0.2c0,0-0.1,0.1-0.1,0.1c0,0-0.1,0.1-0.1,0.1c-0.1,0.1-0.3,0.3-0.4,0.4c0,0-0.1,0.1-0.1,0.1
				c-0.2,0.2-0.3,0.4-0.5,0.5c0,0,0,0,0,0c0,0-0.1,0.1-0.1,0.1c-0.1,0.1-0.2,0.2-0.3,0.3c0,0.1-0.1,0.1-0.1,0.2
				c-0.1,0.1-0.1,0.2-0.2,0.3c0,0,0,0.1-0.1,0.1c0,0,0,0.1-0.1,0.1c0,0.1-0.1,0.2-0.1,0.3c0,0.1-0.1,0.1-0.1,0.2
				c0,0.1-0.1,0.2-0.1,0.3c0,0,0,0.1-0.1,0.1c0,0,0,0.1,0,0.1c0,0.1-0.1,0.2-0.1,0.3c0,0.1,0,0.2-0.1,0.2c0,0.1,0,0.2-0.1,0.3
				c0,0,0,0.1,0,0.1c0,0,0,0.1,0,0.1c0,0.1,0,0.2,0,0.3c0,0.1,0,0.2,0,0.2c0,0.1,0,0.2,0,0.3c0,0.1,0,0.1,0,0.2c0,0.1,0,0.1,0,0.2
				l-0.1,18.2c0-0.1,0-0.2,0-0.3C737.5,1187.6,737.5,1187.5,737.5,1187.4z"/>
			<path fill="#C5D2D3" d="M805.1,1175.1l-8.7,0c-0.1,0.3-0.2,0.6-0.4,0.9c0,0.1,0,0.1-0.1,0.2c-0.1,0.3-0.3,0.6-0.4,0.9
				c0,0.1-0.1,0.1-0.1,0.2c-0.2,0.3-0.3,0.6-0.5,0.9c0,0,0,0,0,0c-0.2,0.3-0.4,0.6-0.6,0.9c0,0.1-0.1,0.1-0.1,0.2
				c-0.2,0.3-0.4,0.6-0.6,0.8c-0.1,0.1-0.1,0.1-0.2,0.2c-0.2,0.2-0.4,0.5-0.6,0.7c-0.1,0.1-0.2,0.2-0.2,0.3
				c-0.2,0.2-0.4,0.5-0.6,0.7c-0.1,0.1-0.1,0.1-0.2,0.2c-0.3,0.3-0.6,0.6-0.9,0.9l0,7.2l-6.6,3.9l-6.2-3.6c-0.7,0.2-1.3,0.5-2,0.7
				c-0.2,0.1-0.4,0.1-0.6,0.2c-0.4,0.1-0.7,0.2-1.1,0.3c-0.2,0.1-0.5,0.1-0.7,0.2c-0.4,0.1-0.8,0.2-1.2,0.3
				c-0.2,0.1-0.4,0.1-0.7,0.2c-0.4,0.1-0.9,0.2-1.3,0.3c-0.2,0-0.3,0.1-0.5,0.1c-0.6,0.1-1.2,0.3-1.9,0.4c-0.4,0.1-0.8,0.1-1.1,0.2
				c-0.2,0-0.4,0.1-0.6,0.1c-0.6,0.1-1.2,0.2-1.7,0.2l0,5l-18.2,0l0-5c-0.4-0.1-0.9-0.1-1.3-0.2c-0.4-0.1-0.8-0.1-1.3-0.2
				c-0.2,0-0.5-0.1-0.7-0.1c-0.5-0.1-1-0.2-1.5-0.3c-0.1,0-0.3-0.1-0.4-0.1c-0.7-0.1-1.3-0.3-2-0.5c-0.2,0-0.4-0.1-0.5-0.1
				c-0.5-0.1-1-0.3-1.5-0.4c-0.2-0.1-0.4-0.1-0.6-0.2c-0.4-0.1-0.9-0.3-1.3-0.4c-0.2-0.1-0.4-0.1-0.6-0.2c-0.6-0.2-1.2-0.4-1.8-0.6
				l-6.1,3.6l-6.8-3.9l0-7.1c-2-1.8-3.6-3.8-4.7-5.8c-0.4-0.7-0.7-1.3-0.9-2h0l0,0l0,0l-8.7,0l-0.1-10.5l-0.1,18.2l0.1,10.5l8.2,0
				l0,11.4l12.9,7.5l6.1-3.6c0.6,0.2,1.2,0.4,1.8,0.6c0.2,0.1,0.4,0.1,0.6,0.2c0.4,0.1,0.9,0.3,1.3,0.4c0.1,0,0.2,0.1,0.3,0.1
				c0.1,0,0.2,0.1,0.3,0.1c0.5,0.1,1,0.3,1.5,0.4c0.2,0,0.4,0.1,0.5,0.1c0.7,0.2,1.3,0.3,2,0.5c0,0,0,0,0.1,0c0.1,0,0.3,0,0.4,0.1
				c0.5,0.1,1,0.2,1.5,0.3c0.2,0,0.5,0.1,0.7,0.1c0.4,0.1,0.8,0.1,1.3,0.2c0.1,0,0.2,0,0.3,0.1c0.3,0,0.6,0.1,1,0.1l0,5l18.2,0l0-5
				c0.6-0.1,1.1-0.2,1.7-0.2c0.2,0,0.4-0.1,0.6-0.1c0.4-0.1,0.7-0.1,1.1-0.2c0,0,0,0,0,0c0.6-0.1,1.3-0.2,1.9-0.4
				c0.2,0,0.3-0.1,0.5-0.1c0.4-0.1,0.9-0.2,1.3-0.3c0.2-0.1,0.4-0.1,0.7-0.2c0.4-0.1,0.8-0.2,1.2-0.3c0.2-0.1,0.5-0.1,0.7-0.2
				c0.4-0.1,0.7-0.2,1.1-0.3c0.1,0,0.3-0.1,0.4-0.1c0.1,0,0.2-0.1,0.2-0.1c0.7-0.2,1.4-0.5,2-0.7l6.2,3.6l12.8-7.5l0-11.4l8,0
				L805.1,1175.1z"/>
		</g>
		<path fill="#FFFFFF" d="M796.4,1175.1l8.7,0l-0.1-10.5l-8.7,0c-1.1-2.7-2.9-5.4-5.6-7.8l6.1-3.6l-12.9-7.5l-6.1,3.6
			c-4.2-1.6-8.8-2.6-13.5-3.2l0-5l-18.2,0l0,5c-4.7,0.6-9.3,1.7-13.5,3.2l-6.2-3.6l-12.8,7.5l6.2,3.6c-2.7,2.4-4.5,5.1-5.5,7.8
			l-8.7,0l0.1,10.5l8.7,0c1.1,2.7,2.9,5.4,5.6,7.8l-6.1,3.6l12.9,7.5l6.1-3.6c4.2,1.6,8.8,2.6,13.5,3.2l0,5l18.2,0l0-5
			c4.7-0.6,9.3-1.7,13.5-3.2l6.2,3.6l12.8-7.5l-6.2-3.6C793.5,1180.4,795.3,1177.8,796.4,1175.1z M767.9,1177.1
			c-6.9,4-18.2,4-25.1,0c-7-4-7-10.5-0.1-14.6c6.9-4,18.2-4,25.1,0C774.8,1166.5,774.8,1173,767.9,1177.1z"/>
	</g>
</g>
</svg>
