<?xml version="1.0" encoding="utf-8"?>
<!-- Generator: Adobe Illustrator 18.0.0, SVG Export Plug-In . SVG Version: 6.00 Build 0)  -->
<!DOCTYPE svg PUBLIC "-//W3C//DTD SVG 1.1//EN" "http://www.w3.org/Graphics/SVG/1.1/DTD/svg11.dtd">
<svg version="1.1" id="Layer_1" xmlns="http://www.w3.org/2000/svg" xmlns:xlink="http://www.w3.org/1999/xlink" x="0px" y="0px"
	 width="1400px" height="1400px" viewBox="0 0 1400 1400" enable-background="new 0 0 1400 1400" xml:space="preserve">
<rect fill="#A9D6FF" width="1400" height="1400"/>
<g>
	<g>
		<g>
			<polygon fill="#031E6C" points="940.1,1147.6 939.9,1207.8 1014.5,1250.9 1014.7,1190.6 			"/>
			<g>
				<polygon fill="#5880DB" points="940.1,1147.6 960.2,1135.9 1034.7,1178.9 1014.7,1190.6 				"/>
			</g>
			<g>
				<polygon fill="#041D5B" points="1014.7,1190.6 1034.7,1178.9 1034.6,1239.2 1014.5,1250.9 				"/>
			</g>
			<polygon fill="#92D7FE" points="951.5,1140.9 950.5,1141.5 1025,1184.6 1026.1,1184 			"/>
			<polygon fill="#4367C7" points="940.1,1147.6 940.1,1166 940.1,1166 1014.6,1209 1014.7,1190.6 			"/>
			<g>
				<polygon fill="#355DB7" points="1014.7,1209.1 1034.7,1197.4 1034.7,1178.9 1014.7,1190.6 1014.6,1209.1 				"/>
				<path fill="#041D5B" d="M1014.5,1247.6l0,3.3l0.1,0L1014.5,1247.6C1014.5,1247.6,1014.5,1247.6,1014.5,1247.6z"/>
			</g>
			<polygon fill="#92D7FE" points="1025,1244.8 1026.1,1244.1 1026.1,1184 1025,1184.6 			"/>
		</g>
		<g>
			<g>
				<path fill="#031E6C" d="M994.5,1154.1c2.3,1.3,4.2,4.6,4.2,7.3l0,9.6l-3-1.7l0-9.6c0-0.8-0.5-1.7-1.2-2.1l-17.4-10.1
					c-0.7-0.4-1.2-0.1-1.2,0.7l0,9.6l-3-1.7l0-9.6c0-2.7,1.9-3.8,4.2-2.4L994.5,1154.1z"/>
			</g>
			<path fill="#031E6C" d="M998.2,1152l-17.4-10.1c-1.2-0.7-2.2-0.7-3-0.3l-3.7,2.2c0.8-0.4,1.8-0.4,3,0.3l2.5,1.4l-3.3,1.9
				c-0.2,0.1-0.4,0.4-0.4,0.8l0,9.6l3.7-2.2l0-9.6c0-0.2,0-0.3,0.1-0.5l14.8,8.5c2.3,1.3,4.2,4.6,4.2,7.3l0,9.6l3.7-2.2l0-9.6
				C1002.5,1156.6,1000.6,1153.3,998.2,1152z"/>
		</g>
	</g>
	<g>
		<path fill="#F2F2F2" d="M522.2,1008.2l-1.5-649.5l-14.1-8.2l1.5,649.5c0,6.8,2.4,11.6,6.3,13.9l14.1,8.2
			C524.6,1019.8,522.2,1015,522.2,1008.2z"/>
		<g>
			<path fill="#FFFFFF" d="M520.7,358.7l0.1,49.5L872.7,205l1.4,600c0,13.7-9.6,30.4-21.5,37.3l-308.6,178.2
				c-11.9,6.9-21.6,1.4-21.7-12.4L520.7,358.7z"/>
		</g>
		<path fill="#77BDFB" d="M858.6,196.8l-337.8,195l-0.1-33.2c0-13.7,9.6-30.4,21.5-37.3l308.6-178.2c6-3.5,11.4-3.8,15.4-1.5
			l-14.1-8.2c-3.9-2.3-9.4-2-15.4,1.5L528.2,313.2c-11.9,6.9-21.6,23.6-21.5,37.3l0.1,49.5l14.1,8.2L872.7,205L858.6,196.8z"/>
		<g>
			<path fill="#4367C7" d="M850.9,143.2c11.9-6.9,21.6-1.4,21.7,12.4l0.1,49.5L520.9,408.2l-0.1-49.5c0-13.7,9.6-30.4,21.5-37.3
				L850.9,143.2z"/>
		</g>
		<g>
			<g>
				<path fill="#FED22C" d="M782.7,211.1c4.1-2.4,7.5-0.5,7.5,4.3c0,4.8-3.3,10.5-7.5,12.9c-4.1,2.4-7.5,0.5-7.5-4.3
					C775.2,219.3,778.6,213.5,782.7,211.1z"/>
			</g>
			<g>
				<path fill="#F965A8" d="M808.2,196.4c4.1-2.4,7.5-0.5,7.5,4.3c0,4.8-3.3,10.5-7.5,12.9c-4.1,2.4-7.5,0.5-7.5-4.3
					C800.8,204.6,804.1,198.8,808.2,196.4z"/>
			</g>
			<g>
				<path fill="#92D7FE" d="M833.8,181.7c4.1-2.4,7.5-0.5,7.5,4.3c0,4.8-3.3,10.5-7.5,12.9c-4.1,2.4-7.5,0.5-7.5-4.3
					C826.3,189.8,829.6,184,833.8,181.7z"/>
			</g>
		</g>
	</g>
	<g>
		<g>
			<polygon fill="#F2F2F2" points="683.8,549.7 684.2,699.8 553.7,775.2 553.2,625.1 			"/>
		</g>
		<g>
			<polygon fill="#F2F2F2" points="683.3,363.9 683.7,513.9 553.1,589.3 552.7,439.3 			"/>
		</g>
		<g>
			<polygon fill="#F2F2F2" points="843,271.7 843.4,421.7 712.8,497.1 712.4,347.1 			"/>
		</g>
		<g>
			<polygon fill="#F2F2F2" points="843.5,457.5 843.9,607.6 713.3,683 712.9,532.9 			"/>
		</g>
		<g>
			<polygon fill="#F2F2F2" points="684.3,735.5 684.8,885.6 554.2,961 553.8,810.9 			"/>
		</g>
		<g>
			<polygon fill="#F2F2F2" points="844,643.3 844.5,793.4 713.9,868.8 713.4,718.7 			"/>
		</g>
	</g>
	<g>
		<path fill="#031E6C" d="M902.2,441.5c5.5-3.2,10-0.6,10,5.7l0.6,205.3c0,6.3-4.4,14.1-10,17.3L663.2,808.1c-5.5,3.2-10,0.6-10-5.7
			l-0.6-205.3c0-6.3,4.4-14.1,10-17.3L902.2,441.5z"/>
		<path fill="#FFFFFF" d="M907.3,447.2c0-1.4-0.3-2-0.4-2.1c0,0,0,0-0.2,0c-0.2,0-0.9,0.1-2,0.7L665.1,584.2
			c-4,2.3-7.5,8.3-7.5,12.9l0.1,25.8l249.7-144.1L907.3,447.2z"/>
		<g>
			<path fill="#FFFFFF" d="M887.9,569.9c1.4-0.8,2.6-0.2,2.6,1.5c0,1.7-1.2,3.7-2.6,4.5l-67,38.7c-1.4,0.8-2.6,0.2-2.6-1.5
				c0-1.7,1.2-3.7,2.6-4.5L887.9,569.9z"/>
		</g>
		<g>
			<path fill="#FFFFFF" d="M887.8,543.4c1.4-0.8,2.6-0.2,2.6,1.5s-1.2,3.7-2.6,4.5l-67,38.7c-1.4,0.8-2.6,0.2-2.6-1.5
				s1.2-3.7,2.6-4.5L887.8,543.4z"/>
		</g>
		<g>
			<path fill="#FFFFFF" d="M810.4,614.7c1.4-0.8,2.6-0.2,2.6,1.5c0,1.7-1.2,3.7-2.6,4.5l-32.3,18.6c-1.4,0.8-2.6,0.2-2.6-1.5
				c0-1.7,1.2-3.7,2.6-4.5L810.4,614.7z"/>
		</g>
		<g>
			<path fill="#F965A8" d="M835.8,586.1c1.4-0.8,2.6-0.2,2.6,1.5s-1.2,3.7-2.6,4.5l-57.7,33.3c-1.4,0.8-2.6,0.2-2.6-1.5
				s1.2-3.7,2.6-4.5L835.8,586.1z"/>
		</g>
		<g>
			<path fill="#FFFFFF" d="M767.8,639.3c1.4-0.8,2.6-0.2,2.6,1.5c0,1.7-1.2,3.7-2.6,4.5l-13.8,7.9c-1.4,0.8-2.6,0.2-2.6-1.5
				c0-1.7,1.2-3.7,2.6-4.5L767.8,639.3z"/>
		</g>
		<g>
			<path fill="#92D7FE" d="M888.5,647.7c1.4-0.8,2.6-0.2,2.6,1.5c0,1.7-1.2,3.7-2.6,4.5L683.3,772.2c-1.4,0.8-2.6,0.2-2.6-1.5
				c0-1.7,1.2-3.7,2.6-4.5L888.5,647.7z"/>
		</g>
		<g>
			<path fill="#FED22C" d="M835.7,559.6c1.4-0.8,2.6-0.2,2.6,1.5c0,1.7-1.2,3.7-2.6,4.5L778,598.9c-1.4,0.8-2.6,0.2-2.6-1.5
				c0-1.7,1.2-3.7,2.6-4.5L835.7,559.6z"/>
		</g>
		<g>
			<path fill="#92D7FE" d="M888.5,634.9c1.4-0.8,2.6-0.2,2.6,1.5c0,1.7-1.2,3.7-2.6,4.5L683.3,759.4c-1.4,0.8-2.6,0.2-2.6-1.5
				c0-1.7,1.2-3.7,2.6-4.5L888.5,634.9z"/>
		</g>
		<g>
			<path fill="#92D7FE" d="M888.5,622.1c1.4-0.8,2.6-0.2,2.6,1.5c0,1.7-1.2,3.7-2.6,4.5L683.2,746.7c-1.4,0.8-2.6,0.2-2.6-1.5
				c0-1.7,1.2-3.7,2.6-4.5L888.5,622.1z"/>
		</g>
		<g>
			<path fill="#3AE0C0" d="M767.9,651.8c1.4-0.8,2.6-0.2,2.6,1.5c0,1.7-1.2,3.7-2.6,4.5l-51.7,29.9c-1.4,0.8-2.6,0.2-2.6-1.5
				c0-1.7,1.2-3.7,2.6-4.5L767.9,651.8z"/>
		</g>
		<g>
			<path fill="#92D7FE" d="M888.4,609.4c1.4-0.8,2.6-0.2,2.6,1.5c0,1.7-1.2,3.7-2.6,4.5L683.2,733.9c-1.4,0.8-2.6,0.2-2.6-1.5
				c0-1.7,1.2-3.7,2.6-4.5L888.4,609.4z"/>
		</g>
		<g>
			<path fill="#92D7FE" d="M888.4,596.6c1.4-0.8,2.6-0.2,2.6,1.5s-1.2,3.7-2.6,4.5L683.1,721.1c-1.4,0.8-2.6,0.2-2.6-1.5
				s1.2-3.7,2.6-4.5L888.4,596.6z"/>
		</g>
		<g>
			<path fill="#FED22C" d="M767.9,625.3c1.4-0.8,2.6-0.2,2.6,1.5c0,1.7-1.2,3.7-2.6,4.5l-51.7,29.9c-1.4,0.8-2.6,0.2-2.6-1.5
				s1.2-3.7,2.6-4.5L767.9,625.3z"/>
		</g>
		<g>
			<path fill="#3AE0C0" d="M706.7,687.2c1.4-0.8,2.6-0.2,2.6,1.5c0,1.7-1.2,3.7-2.6,4.5l-23.6,13.6c-1.4,0.8-2.6,0.2-2.6-1.5
				c0-1.7,1.2-3.7,2.6-4.5L706.7,687.2z"/>
		</g>
		<g>
			<path fill="#FFFFFF" d="M744.7,652.6c1.4-0.8,2.6-0.2,2.6,1.5c0,1.7-1.2,3.7-2.6,4.5l-61.6,35.6c-1.4,0.8-2.6,0.2-2.6-1.5
				c0-1.7,1.2-3.7,2.6-4.5L744.7,652.6z"/>
		</g>
		<g>
			<path fill="#FED22C" d="M767.8,598.8c1.4-0.8,2.6-0.2,2.6,1.5c0,1.7-1.2,3.7-2.6,4.5l-51.7,29.9c-1.4,0.8-2.6,0.2-2.6-1.5
				c0-1.7,1.2-3.7,2.6-4.5L767.8,598.8z"/>
		</g>
		<g>
			<path fill="#FED22C" d="M706.6,660.7c1.4-0.8,2.6-0.2,2.6,1.5c0,1.7-1.2,3.7-2.6,4.5L683,680.3c-1.4,0.8-2.6,0.2-2.6-1.5
				s1.2-3.7,2.6-4.5L706.6,660.7z"/>
		</g>
		<g>
			<path fill="#3AE0C0" d="M744.6,626.1c1.4-0.8,2.6-0.2,2.6,1.5c0,1.7-1.2,3.7-2.6,4.5L683,667.7c-1.4,0.8-2.6,0.2-2.6-1.5
				c0-1.7,1.2-3.7,2.6-4.5L744.6,626.1z"/>
		</g>
		<g>
			<path fill="#F965A8" d="M744.5,599.6c1.4-0.8,2.6-0.2,2.6,1.5c0,1.7-1.2,3.7-2.6,4.5l-61.6,35.6c-1.4,0.8-2.6,0.2-2.6-1.5
				c0-1.7,1.2-3.7,2.6-4.5L744.5,599.6z"/>
		</g>
		<g>
			<path fill="#FFFFFF" d="M810.3,588.2c1.4-0.8,2.6-0.2,2.6,1.5c0,1.7-1.2,3.7-2.6,4.5l-32.3,18.6c-1.4,0.8-2.6,0.2-2.6-1.5
				c0-1.7,1.2-3.7,2.6-4.5L810.3,588.2z"/>
		</g>
		<g>
			<path fill="#FFFFFF" d="M810.2,561.6c1.4-0.8,2.6-0.2,2.6,1.5c0,1.7-1.2,3.7-2.6,4.5L778,586.3c-1.4,0.8-2.6,0.2-2.6-1.5
				c0-1.7,1.2-3.7,2.6-4.5L810.2,561.6z"/>
		</g>
		<g>
			<path fill="#F965A8" d="M888.4,555.7c1.2-0.7,2.1-0.1,2.1,1.2l0,1.2c0,1.3-0.9,3-2.1,3.6l-42.2,24.4c-1.2,0.7-2.1,0.1-2.1-1.2
				l0-1.2c0-1.3,0.9-3,2.1-3.6L888.4,555.7z"/>
		</g>
		<g>
			<path fill="#F965A8" d="M767.6,586.2c1.4-0.8,2.6-0.2,2.6,1.5c0,1.7-1.2,3.7-2.6,4.5l-13.8,7.9c-1.4,0.8-2.6,0.2-2.6-1.5
				c0-1.7,1.2-3.7,2.6-4.5L767.6,586.2z"/>
		</g>
	</g>
	<g>
		<path fill="#E9B488" d="M751.1,802.1c0,0-15.3-10.2-28.8-24.5c0,0-9.1-0.6-14.6-4.7c-5.5-4.1-5.5-4.4-6.3-6.3
			c-0.8-1.9-2.2-6.9-2.2-6.9s-6.6-2.2-8.5-5.2c-1.9-3,3.6-2.8,7.7-1.1c4.1,1.7,13.8,6.6,13.8,6.6s11,4.4,14.3,6.6
			s31.4,17.6,31.4,17.6L751.1,802.1z"/>
		<path fill="#FEFBF0" d="M789.6,974.8c0,0-12-1.1-19.1-1.9c0,0-6-1-6.4,4.6c-0.4,5.5,3,9.7,12.7,14.5l12.7,5.6c0,0,4.8,3.4,9.3,3.4
			c4.5,0,7.9-1.5,8.2-4.9v-28.8L789.6,974.8z"/>
		<path fill="#FEFBF0" d="M813.6,957.9c0,0-12-1.1-19.1-1.9c0,0-6-1-6.4,4.6c-0.4,5.5,3,9.7,12.7,14.5l12.7,5.6c0,0,4.8,3.4,9.3,3.4
			c4.5,0,7.9-1.5,8.2-4.9v-28.8L813.6,957.9z"/>
		<path fill="#FED22C" d="M776.9,837.5l-3.7-0.7c0,0-1.1,25.4,1.9,44.1s4.9,35.9,9.3,57.2c4.5,21.3,2.2,39.3,2.2,39.3
			s-0.4,7.1,7.1,9.3c7.5,2.2,13.5-4.9,13.5-4.9s-1.1-58.7-1.5-66.2s-4.1-20.2-4.1-20.2s5.2,10.5,7.1,21.7v47.1c0,0,0.7,6,10.1,7.1
			c9.3,1.1,12.4-7.5,12.4-7.5v-40c0,0-1.4-12.8-3-24.5c-1.3-9.8-1.3-19.7,0.1-29.5c2-13.3,4.1-32.3,2.9-43.2
			C829.2,826.3,776.9,837.5,776.9,837.5z"/>
		<path fill="#E9B488" d="M781,701.8V716c0,0-1.5,13.1,6.7,13.1v11.2h20.6V728l-17.6-29.2l-9.8-2.6L781,701.8z"/>
		<path fill="#713D22" d="M781,701.8c0,0,1.1,0,2.6,2.2c1.5,2.2,2.6,6.7,2.6,6.7s2.2-0.4,3.4,3c1.1,3.4,1.1,3.4,1.1,3.4
			s6.4,1.9,8.2,6c1.9,4.1,4.9,5.6,9.3,4.9c0,0,4.5-0.7,7.5-7.9c3-7.1,4.9-17.6-1.9-25.4c-6.7-7.9-10.8-9-21.7-9
			C781.3,685.7,777.2,697.4,781,701.8z"/>
		<path fill="#3AE0C0" d="M794.6,737.3c0,0-8.7,2.2-21.1,12.7c-12.3,10.5-22.4,34-22.4,34s-4.9,9.3-2.2,15c0,0,3,5.6,7.1,5.6
			c4.1,0,12.8-9.7,15.4-13.1c2.6-3.4,4.4-5.6,4.4-5.6s0.7,11.2,0,18.7s-2.6,32.2-2.6,32.2s0.2,16.8,7.7,23.9
			c7.6,7.1,19.9,0.4,29.7-3.7c9.7-4.1,16.5-10.8,18.7-14.6c2.2-3.7,3-22.4,0-32.9c-3-10.5-5.2-23.2-3-34.8
			c2.2-11.6,7.5-25.4,2.2-37.4S808.8,729.9,794.6,737.3z"/>
	</g>
	<g>
		<g>
			<path fill="#031E6C" d="M675.4,590.2c2.4-1.4,4.4-0.3,4.4,2.5s-1.9,6.2-4.4,7.6s-4.4,0.3-4.4-2.5S673,591.6,675.4,590.2z"/>
		</g>
		<g>
			<path fill="#031E6C" d="M690.3,581.6c2.4-1.4,4.4-0.3,4.4,2.5c0,2.8-1.9,6.2-4.4,7.6c-2.4,1.4-4.4,0.3-4.4-2.5
				C686,586.4,687.9,583,690.3,581.6z"/>
		</g>
		<g>
			<path fill="#031E6C" d="M705.3,573c2.4-1.4,4.4-0.3,4.4,2.5c0,2.8-2,6.2-4.4,7.6s-4.4,0.3-4.4-2.5S702.9,574.4,705.3,573z"/>
		</g>
	</g>
	<g>
		<g>
			<path fill="#3AE0C0" d="M578.2,490.3c-1.8,30.8-23.2,66.7-49.6,81.9c-26.3,15.2-47.9,4.2-49.9-24.4l8.3-4.8
				c1.9,23.4,19.8,32.3,41.6,19.8c21.8-12.6,39.6-42.1,41.3-67.6L578.2,490.3z"/>
		</g>
		<g>
			<path fill="#FED22C" d="M528.3,457.6c26.3-15.2,47.9-4.2,49.9,24.4l-8.3,4.8c-1.9-23.4-19.8-32.3-41.6-19.8
				c-21.8,12.6-39.6,42.1-41.3,67.6l-8.3,4.8C480.5,508.7,502,472.8,528.3,457.6z"/>
		</g>
		<g>
			<path fill="#F965A8" d="M662.8,380c8.7-5,16.9-7.2,24-6.8l-4.5,10.6c-5.8-0.2-12.5,1.6-19.5,5.7c-23,13.3-41.6,45.5-41.5,71.9
				c0,15.3,6.4,25.4,16.2,28.5l-4.5,10.6c-12.1-3.5-19.9-15.6-20-34.3C613,434.4,635.3,395.9,662.8,380z"/>
		</g>
		<g>
			<path fill="#4367C7" d="M692.9,374.2c12.1,3.5,19.9,15.6,20,34.3c0.1,31.6-22.2,70.2-49.7,86.1c-8.7,5-16.9,7.2-24,6.8l4.5-10.6
				c5.8,0.2,12.5-1.6,19.5-5.7c23-13.3,41.6-45.5,41.5-71.9c0-15.3-6.4-25.4-16.2-28.5L692.9,374.2z"/>
		</g>
		<g>
			<path fill="#F965A8" d="M352.5,620.6c1.9,23.4,19.8,32.3,41.6,19.8c13-7.5,24.5-21,32.1-36.1l6.8,1.4
				c-9.1,18.4-23.1,35-38.9,44.1c-26.3,15.2-47.9,4.2-49.9-24.4L352.5,620.6z"/>
		</g>
		<g>
			<path fill="#4367C7" d="M393.8,535.3c27.5-15.9,49.9-3.1,50,28.5c0,10.5-2.4,21.8-6.7,32.8l-6.8-1.4c3.4-8.9,5.3-18.1,5.3-26.6
				c-0.1-26.4-18.8-37.1-41.8-23.8c-21.8,12.6-39.6,42.1-41.3,67.6l-8.3,4.8C346,586.4,367.5,550.5,393.8,535.3z"/>
		</g>
	</g>
	<g>
		<path fill="#E9B488" d="M523.1,830l-1.4-0.1v-6.1c0,0,0,1.1-4.3,5.2s-4.4,10.8-4.4,10.8v22.9l7.9-1.6v-25.7c0,0,3.4-0.9,4.1-2.8
			c0,0,0,0,0-0.1C525.3,831.4,524.4,830.1,523.1,830z"/>
		<path fill="#FEFBF0" d="M462.6,1053.9c0,0-9.1,3.7-12.4,11.8c0,0-0.7,10.4,9.9,22.2s15,14.9,18.9,12c3.8-3-1.8-24.4-1.8-24.4
			l-3-10.8L462.6,1053.9z"/>
		<path fill="#FEFBF0" d="M492.7,1096l2.6,1.3c0,0,11.1,12.1,14.5,16.2s4.7,6.4,3.7,10.4c0,0-3,5-15.6,1.3
			c-12.6-3.7-23.4-19.9-23.4-19.9s-2-3.7,4-8.1L492.7,1096z"/>
		<path fill="#031E6C" d="M509,920.7c0,0,4,23.9,9.8,43.7c5.7,19.9,4.7,35.7,0,40.4c-4.7,4.7-23.6,36.7-29.6,43.1
			s-13.8,20.5-13.8,20.5s-12.1-2-12.8-14.5c0,0,11.8-25.4,24.7-41c13-15.6,14.6-20.6,14.6-20.6s-17.3-27.7-19.9-43.7
			c-2.6-16,5.2-24.2,5.2-24.2L509,920.7z"/>
		<path fill="#031E6C" d="M464.5,927.4c0,0-6.3,15.5-3.9,32.6c2.4,17.2,12.4,52.9,12.4,52.9s-4.3,17.2-2.4,35.9
			c1.9,18.7,7.7,48.5,7.7,48.5s9.8,5.7,16.8,0c0,0-4.7-66-5-73.7c-0.3-7.7,2.5-15.1,2.5-15.1s6.3-39.7,4.9-45.8
			c-1.3-6.1-8.4-42.1-8.4-42.1L464.5,927.4z"/>
		<path fill="#F965A8" d="M490.2,837.7c0,0,7.5-1.4,11,1.9c3.5,3.4,6.5,10.6,8.9,17.4c2.4,6.8,2.4,9.5,2.4,9.5v-7.4c0,0,5,1,8.4,1.3
			v24.2c0,0-1,7.1-5.7,6.7c-4.7-0.3-9.6-7.4-9.6-7.4s0.8,21.5,3.9,27.3c3,5.7,4,8.7,4,8.7s-6.4,14.8-19.5,14.8s-31-8.1-31-8.1
			s6.3-11.4,6.8-18.8c0,0-1.8,2.7-6.8-3.7c-5-6.4-10.6-29.7-8.7-42.7c0,0,1.3-7.6,17.5-16.5C471.7,845,490.1,846.8,490.2,837.7z"/>
		<path fill="#E9B488" d="M499.6,896.8c0,0,7-5.8,10.3-7.9c3.2-2.2,8-2.5,10.9-9.6c3-7,10.2-8.1,9.6-11.9c-0.5-3.8-10.8-2.2-14.3,0
			c-3.4,2.2-5.1,10-11.6,13.6c-6.5,3.6-8.7,4.1-8.7,4.1S493.2,892.5,499.6,896.8z"/>
		<path fill="#E9B488" d="M499.6,806.6c0,0,3.7,13.5,3,22.2c-0.7,8.7-1.5,10.8-1.5,10.8s-3.9,1-8.6,0v13.5c0,0-3,5-8.7,3.7
			c-5.7-1.3-12.1-11.8-12.1-11.8s5.7-4.5,5-13.2c0,0-5.4,1.1-6.7-6c-1.3-7.1,3.4-7.7,7.4-2.7C477.4,823.1,495.6,817.1,499.6,806.6z"
			/>
		<path fill="#713D23" d="M499.6,806.8l0.1-0.2c0,0,0-6.4-6.7-9.4s-21.2-3.4-27.6,6.1c-6.4,9.4-2.7,17.4-3.4,28.5s-3,15.9-10.8,19.9
			c-7.7,4-7.7,26.9,3.4,28.3s31.1-14.1,31.7-32.6c0.3-11,4.2-19.8,7.2-25.2C496.2,817.3,498.3,812.2,499.6,806.8z"/>
	</g>
	<path fill="#4367C7" d="M997.3,162.4c3.5-2,6.4-0.4,6.4,3.6l0.5,181.1c0,4-2.8,8.9-6.3,11L750.9,500.7c-3.5,2-6.4,0.4-6.4-3.6
		L744,316c0-4,2.8-9,6.3-11L997.3,162.4z"/>
	<path fill="#FFFFFF" d="M749,315.9c0-2.2,1.9-5.5,3.8-6.6l245.8-141.9l0.5,179.8c0,2.3-1.9,5.5-3.8,6.6L749.5,495.7L749,315.9z"/>
	<path fill="#F965A8" d="M749.4,455.6l0.1,40.1l245.8-141.9c2-1.1,3.8-4.4,3.8-6.6l-0.1-35.7L749.4,455.6z"/>
	<g>
		<path fill="#F965A8" d="M857,288.1c1.1-0.6,2.2-0.9,3.2-0.6l34.5,9.4c2.9,0.8,2.9,5.8,0,10L860.4,356c-1,1.4-2.1,2.4-3.2,3.1
			c-2.8,1.6-5.4,0.6-5.4-3.1l-0.1-29.3l-0.1-29.3C851.6,293.8,854.2,289.7,857,288.1z"/>
	</g>
	<g>
		<path fill="#E04492" d="M975.8,341.8c2.3-1.3,4.2-0.3,4.2,2.4s-1.9,5.9-4.2,7.2L772.8,468.7c-2.3,1.3-4.2,0.3-4.2-2.4
			c0-2.6,1.9-5.9,4.2-7.2L975.8,341.8z"/>
	</g>
	<path fill="#FFFFFF" d="M883.5,400.7c0-2.5-2.7-4-4.8-2.8l-106,61.2c-2.3,1.3-4.2,4.6-4.2,7.2c0,2.6,1.9,3.7,4.2,2.4L880,406.7
		C882.2,405.5,883.5,403.2,883.5,400.7L883.5,400.7z"/>
	<g>
		<path fill="#FFFFFF" d="M879.5,393.7c4.1-2.4,7.5-0.5,7.5,4.3c0,4.7-3.3,10.5-7.5,12.9c-4.1,2.4-7.5,0.5-7.5-4.3
			C872.1,401.9,875.4,396.1,879.5,393.7z"/>
	</g>
	<g>
		<path fill="#E9B488" d="M987.7,759c0,0-8.2-0.3-12.5-3.7c-4.2-3.4-6.1-5.5-6.9-10.2c-0.8-4.7,1.4-7.4,3.1-7.8
			c1.7-0.4,6,6.9,7.7,7.3c1.7,0.4-1.3-3.6,0.9-5.1s7.8,7.9,16.6,13.7C1005.4,759,987.7,759,987.7,759z"/>
		<path fill="#E9B488" d="M939.2,777.2c0,0-8.2-0.3-12.5-3.7c-4.2-3.4-6.1-5.5-6.9-10.2c-0.8-4.7,1.4-7.4,3.1-7.8
			c1.7-0.4,6,6.9,7.7,7.3c1.7,0.4-1.3-3.6,0.9-5.1s7.8,7.9,16.6,13.7C957,777.2,939.2,777.2,939.2,777.2z"/>
		<path fill="#FED22C" d="M972.7,741c0,0-3.3,8.4-5.2,22.9s-1.9,14.5-1.9,14.5l-16.7-9.7c0,0-10.3,2.5-10,11.6
			c0,0,18.1,13,24.1,16.6c6,3.6,9.7,7.8,14.8,2c5.1-5.8,9.3-25.1,9.2-27.5C986.9,769,972.7,741,972.7,741z"/>
		<g enable-background="new    ">
			<g>
				<path fill="#FFFFFF" d="M1010.2,716.4c10.4,6,10.5,15.8,0.1,21.8l-30.1,17.5c-10.4,6-27.3,6-37.7,0l-30.3-17.5
					c-10.4-6-10.5-15.8-0.1-21.8l30.1-17.5c10.4-6,27.3-6,37.7,0L1010.2,716.4z"/>
			</g>
			<path fill="#F2F2F2" d="M1010.3,738.3l-30.1,17.5c-10.4,6-27.3,6-37.7,0l-30.3-17.5c-5.3-3-7.9-7-7.9-11l-0.1,22.1
				c0,4,2.6,8,7.9,11l30.3,17.5c10.4,6,27.3,6,37.7,0l30.1-17.5c5.2-3,7.7-6.9,7.7-10.8l0.1-22.1
				C1018.1,731.3,1015.5,735.3,1010.3,738.3z"/>
		</g>
		<path fill="#FFFFFF" d="M988.4,971.6l-4.9,1.1c0,0-11.4-7.1-16.8-1.1c0,0-3.4,3.6,10.9,10.9c13.9,7.1,19.9,7.1,19.9,7.1
			s7.6-2.6,6.7-21.2h-11.4L988.4,971.6z"/>
		<g>
			<g>
				<polygon fill="#2CC4A7" points="994,700.5 989.4,703.2 989.3,716.8 993.9,714.1 				"/>
				<polygon fill="#2CC4A7" points="936.4,703.2 931.8,700.5 931.8,714.1 936.4,716.8 				"/>
				<path fill="#2CC4A7" d="M949.7,726.1c0-0.1,0-0.1,0-0.2c0-0.1,0-0.1,0-0.2c0-0.1,0-0.1,0-0.2c0-0.1,0-0.1,0-0.2
					c0-0.1,0-0.1,0.1-0.2c0-0.1,0-0.1,0.1-0.2c0-0.1,0-0.1,0.1-0.2c0-0.1,0.1-0.1,0.1-0.2c0-0.1,0.1-0.1,0.1-0.2
					c0-0.1,0.1-0.1,0.1-0.2c0-0.1,0.1-0.1,0.1-0.2c0-0.1,0.1-0.2,0.1-0.2c0,0,0.1-0.1,0.1-0.1c0.1-0.1,0.1-0.2,0.2-0.3
					c0,0,0.1-0.1,0.1-0.1c0.1-0.1,0.2-0.3,0.3-0.4c0,0,0.1-0.1,0.1-0.1c0.1-0.1,0.2-0.2,0.3-0.3c0,0,0.1-0.1,0.1-0.1
					c0.1-0.1,0.1-0.1,0.2-0.2c0.1-0.1,0.1-0.1,0.2-0.2c0.1-0.1,0.1-0.1,0.2-0.2c0.1,0,0.1-0.1,0.2-0.1c0.1-0.1,0.1-0.1,0.2-0.2
					c0.1,0,0.1-0.1,0.2-0.1c0.1-0.1,0.2-0.1,0.2-0.2c0.1-0.1,0.2-0.1,0.3-0.2c0.2-0.1,0.4-0.2,0.6-0.3c0.1,0,0.1-0.1,0.2-0.1
					c0.2-0.1,0.3-0.2,0.5-0.2c0.1,0,0.1-0.1,0.2-0.1c0.2-0.1,0.4-0.2,0.7-0.3c0,0,0.1,0,0.1,0c0.2-0.1,0.4-0.1,0.6-0.2
					c0.1,0,0.2-0.1,0.2-0.1c0.1,0,0.2-0.1,0.3-0.1c0.1,0,0.2-0.1,0.3-0.1c0.1,0,0.2-0.1,0.3-0.1c0.1,0,0.2,0,0.3-0.1
					c0.1,0,0.2-0.1,0.3-0.1c0.1,0,0.2,0,0.3-0.1c0.1,0,0.2,0,0.3-0.1c0.1,0,0.2,0,0.3,0c0.2,0,0.5-0.1,0.8-0.1c0,0,0.1,0,0.1,0
					c0.2,0,0.4-0.1,0.7-0.1c0.1,0,0.2,0,0.3,0c0.1,0,0.3,0,0.4,0c0.1,0,0.2,0,0.3,0c0.1,0,0.3,0,0.4,0c0.1,0,0.2,0,0.2,0
					c0.1,0,0.3,0,0.4,0c0.1,0,0.2,0,0.3,0c0.1,0,0.3,0,0.4,0c0.1,0,0.2,0,0.2,0c0.4,0,0.8,0,1.3,0.1c0,0,0,0,0,0
					c0.4,0,0.9,0.1,1.3,0.1c0,0,0.1,0,0.1,0c0.2,0,0.4,0.1,0.5,0.1c0.1,0,0.1,0,0.2,0c0.1,0,0.3,0.1,0.4,0.1c0.1,0,0.1,0,0.2,0
					c0.1,0,0.3,0.1,0.4,0.1c0.1,0,0.2,0,0.2,0.1c0.1,0,0.3,0.1,0.4,0.1c0.1,0,0.2,0,0.2,0.1c0.2,0.1,0.4,0.1,0.6,0.2
					c0,0,0.1,0,0.1,0c0.2,0.1,0.5,0.2,0.7,0.3c0,0,0.1,0,0.1,0.1c0.3,0.1,0.6,0.2,0.9,0.4c0,0,0.1,0,0.1,0c0.3,0.1,0.6,0.3,0.9,0.5
					c2.6,1.5,3.9,3.5,3.9,5.5l0-13.6c0-2-1.3-4-3.9-5.5c-0.3-0.2-0.6-0.3-0.9-0.5c0,0-0.1,0-0.1,0c-0.3-0.1-0.6-0.3-0.9-0.4
					c0,0-0.1,0-0.1,0c0,0,0,0-0.1,0c-0.2-0.1-0.5-0.2-0.7-0.3c0,0-0.1,0-0.1,0c-0.2-0.1-0.4-0.1-0.6-0.2c0,0-0.1,0-0.1,0
					c0,0-0.1,0-0.1,0c-0.1,0-0.3-0.1-0.4-0.1c-0.1,0-0.2,0-0.2-0.1c-0.1,0-0.3-0.1-0.4-0.1c-0.1,0-0.1,0-0.2,0c0,0,0,0,0,0
					c-0.1,0-0.3-0.1-0.4-0.1c-0.1,0-0.1,0-0.2,0c-0.2,0-0.4-0.1-0.5-0.1c0,0-0.1,0-0.1,0c0,0,0,0,0,0c-0.4-0.1-0.9-0.1-1.3-0.1
					c0,0,0,0,0,0c0,0,0,0,0,0c-0.4,0-0.8-0.1-1.3-0.1c0,0,0,0,0,0c-0.1,0-0.1,0-0.2,0c-0.1,0-0.3,0-0.4,0c-0.1,0-0.2,0-0.3,0
					c-0.1,0-0.3,0-0.4,0c0,0,0,0-0.1,0c-0.1,0-0.1,0-0.2,0c-0.1,0-0.3,0-0.4,0c-0.1,0-0.2,0-0.3,0c-0.1,0-0.3,0-0.4,0
					c0,0-0.1,0-0.1,0c0,0-0.1,0-0.1,0c-0.2,0-0.4,0-0.7,0.1c0,0-0.1,0-0.1,0c-0.3,0-0.5,0.1-0.8,0.1c0,0,0,0-0.1,0
					c-0.1,0-0.1,0-0.2,0c-0.1,0-0.2,0-0.3,0.1c-0.1,0-0.2,0-0.3,0.1c-0.1,0-0.2,0.1-0.3,0.1c-0.1,0-0.2,0-0.3,0.1
					c-0.1,0-0.2,0.1-0.3,0.1c-0.1,0-0.2,0.1-0.3,0.1c-0.1,0-0.2,0.1-0.3,0.1c0,0-0.1,0-0.1,0c0,0-0.1,0-0.1,0
					c-0.1,0-0.2,0.1-0.3,0.1l0-11.2l0-3.8l0,13.6l0,1.3c-0.1,0-0.2,0.1-0.2,0.1c0,0-0.1,0-0.1,0c-0.2,0.1-0.4,0.2-0.7,0.3
					c-0.1,0-0.1,0.1-0.2,0.1c-0.2,0.1-0.3,0.2-0.5,0.2c-0.1,0-0.1,0.1-0.2,0.1c-0.2,0.1-0.4,0.2-0.6,0.3c-0.1,0-0.1,0.1-0.2,0.1
					c0,0-0.1,0.1-0.1,0.1c-0.1,0.1-0.2,0.1-0.2,0.2c-0.1,0-0.1,0.1-0.2,0.1c-0.1,0.1-0.2,0.1-0.2,0.2c-0.1,0-0.1,0.1-0.2,0.1
					c-0.1,0.1-0.1,0.1-0.2,0.2c-0.1,0.1-0.1,0.1-0.2,0.2c-0.1,0.1-0.1,0.1-0.2,0.2c0,0-0.1,0-0.1,0.1c0,0,0,0-0.1,0.1
					c-0.1,0.1-0.2,0.2-0.3,0.3c0,0-0.1,0.1-0.1,0.1c-0.1,0.1-0.2,0.3-0.3,0.4c0,0,0,0,0,0c0,0,0,0.1-0.1,0.1
					c-0.1,0.1-0.1,0.2-0.2,0.3c0,0-0.1,0.1-0.1,0.1c-0.1,0.1-0.1,0.2-0.1,0.2c0,0,0,0,0,0.1c0,0,0,0.1,0,0.1c0,0.1-0.1,0.1-0.1,0.2
					c0,0.1-0.1,0.1-0.1,0.2c0,0.1-0.1,0.1-0.1,0.2c0,0,0,0.1,0,0.1c0,0,0,0.1,0,0.1c0,0.1,0,0.1-0.1,0.2c0,0.1,0,0.1-0.1,0.2
					c0,0.1,0,0.1,0,0.2c0,0,0,0.1,0,0.1c0,0,0,0,0,0.1c0,0.1,0,0.1,0,0.2c0,0.1,0,0.1,0,0.2c0,0.1,0,0.1,0,0.2c0,0,0,0.1,0,0.1
					c0,0,0,0.1,0,0.1l0,13.6c0-0.1,0-0.2,0-0.2C949.6,726.2,949.7,726.1,949.7,726.1z"/>
				<path fill="#2CC4A7" d="M993.6,716.9c-0.1,0.2-0.2,0.5-0.3,0.7c0,0,0,0.1-0.1,0.1c-0.1,0.2-0.2,0.4-0.3,0.7c0,0,0,0.1-0.1,0.1
					c-0.1,0.2-0.3,0.4-0.4,0.7c0,0,0,0,0,0c-0.1,0.2-0.3,0.4-0.4,0.6c0,0-0.1,0.1-0.1,0.1c-0.2,0.2-0.3,0.4-0.5,0.6
					c0,0-0.1,0.1-0.1,0.1c-0.1,0.2-0.3,0.3-0.4,0.5c-0.1,0.1-0.1,0.1-0.2,0.2c-0.2,0.2-0.3,0.3-0.5,0.5c0,0-0.1,0.1-0.1,0.1
					c-0.2,0.2-0.4,0.4-0.7,0.7l0,5.3l-5,2.9l-4.6-2.7c-0.5,0.2-1,0.4-1.5,0.5c-0.2,0.1-0.3,0.1-0.5,0.2c-0.3,0.1-0.5,0.2-0.8,0.2
					c-0.2,0.1-0.4,0.1-0.5,0.2c-0.3,0.1-0.6,0.2-0.9,0.2c-0.2,0-0.3,0.1-0.5,0.1c-0.3,0.1-0.7,0.2-1,0.2c-0.1,0-0.3,0.1-0.4,0.1
					c-0.5,0.1-0.9,0.2-1.4,0.3c-0.3,0.1-0.6,0.1-0.9,0.1c-0.1,0-0.3,0-0.4,0.1c-0.4,0.1-0.9,0.1-1.3,0.2l0,3.8l-13.6,0l0-3.8
					c-0.3,0-0.6-0.1-1-0.1c-0.3,0-0.6-0.1-0.9-0.1c-0.2,0-0.3-0.1-0.5-0.1c-0.4-0.1-0.7-0.1-1.1-0.2c-0.1,0-0.2,0-0.3-0.1
					c-0.5-0.1-1-0.2-1.5-0.3c-0.1,0-0.3-0.1-0.4-0.1c-0.4-0.1-0.7-0.2-1.1-0.3c-0.2,0-0.3-0.1-0.5-0.1c-0.3-0.1-0.7-0.2-1-0.3
					c-0.1,0-0.3-0.1-0.4-0.1c-0.5-0.2-0.9-0.3-1.4-0.5l-4.6,2.7l-5.1-2.9l0-5.3c-1.5-1.4-2.7-2.8-3.5-4.3c-0.3-0.5-0.5-1-0.7-1.5
					l0,0l-6.5,0l0-7.9l0,13.6l0,7.9l6.1,0l0,8.5l9.6,5.6l4.6-2.7c0.4,0.2,0.9,0.3,1.4,0.5c0.1,0,0.3,0.1,0.4,0.1
					c0.3,0.1,0.6,0.2,1,0.3c0.1,0,0.2,0.1,0.2,0.1c0.1,0,0.2,0,0.2,0.1c0.4,0.1,0.7,0.2,1.1,0.3c0.1,0,0.3,0.1,0.4,0.1
					c0.5,0.1,1,0.2,1.5,0.3c0,0,0,0,0,0c0.1,0,0.2,0,0.3,0.1c0.4,0.1,0.7,0.1,1.1,0.2c0.2,0,0.3,0.1,0.5,0.1
					c0.3,0.1,0.6,0.1,0.9,0.1c0.1,0,0.2,0,0.3,0c0.2,0,0.5,0.1,0.7,0.1l0,3.8l13.6,0l0-3.8c0.4-0.1,0.8-0.1,1.3-0.2
					c0.1,0,0.3,0,0.4-0.1c0.3,0,0.5-0.1,0.8-0.1c0,0,0,0,0,0c0.5-0.1,0.9-0.2,1.4-0.3c0.1,0,0.3-0.1,0.4-0.1c0.3-0.1,0.7-0.1,1-0.2
					c0.2,0,0.3-0.1,0.5-0.1c0.3-0.1,0.6-0.1,0.9-0.2c0.2,0,0.4-0.1,0.5-0.2c0.3-0.1,0.5-0.2,0.8-0.2c0.1,0,0.2-0.1,0.3-0.1
					c0.1,0,0.1,0,0.2-0.1c0.5-0.2,1-0.3,1.5-0.5l4.6,2.7l9.6-5.6l0-8.5l6,0l0-13.6L993.6,716.9z"/>
			</g>
			<path fill="#3AE0C0" d="M993.6,716.9l6.5,0l0-7.9l-6.5,0c-0.8-2-2.2-4-4.2-5.8l4.6-2.7l-9.6-5.6l-4.6,2.7
				c-3.1-1.2-6.6-2-10.1-2.4l0-3.8l-13.6,0l0,3.8c-3.5,0.5-6.9,1.3-10.1,2.4l-4.6-2.7l-9.6,5.6l4.6,2.7c-2,1.8-3.4,3.8-4.1,5.8
				l-6.5,0l0,7.9l6.5,0c0.8,2,2.2,4,4.2,5.8l-4.6,2.7l9.6,5.6l4.6-2.7c3.1,1.2,6.6,2,10.1,2.4l0,3.8l13.6,0l0-3.8
				c3.5-0.4,6.9-1.3,10.1-2.4l4.6,2.7l9.6-5.6l-4.6-2.7C991.5,720.9,992.9,718.9,993.6,716.9z M972.4,718.4c-5.2,3-13.6,3-18.8,0
				c-5.2-3-5.2-7.9-0.1-10.9c5.2-3,13.6-3,18.8,0C977.5,710.5,977.5,715.4,972.4,718.4z"/>
		</g>
		<path fill="#FFFFFF" d="M1008.4,957.2l-4.9,1.1c0,0-11.4-7.1-16.8-1.1c0,0-3.4,3.6,10.9,10.9c13.9,7.1,19.9,7.1,19.9,7.1
			s7.6-2.6,6.7-21.2h-11.4L1008.4,957.2z"/>
		<path fill="#031E6C" d="M980.2,815.9l-6.9,0.5c0,0-6.6,29.8,3.5,68.4s6.8,87.9,6.8,87.9s3.3,6,8.7,6c5.4,0,9.2-4.9,11.9-10.3
			v-10.9c0,0,4.9,6,10.9,6c6,0,9.2-3.8,9.2-3.8v-50.5c0,0-1.6-16.8-3.8-28.2c-2.2-11.4,7.6-39.6,5.4-57.5
			C1025.9,823.5,998,809.4,980.2,815.9z"/>
		<path fill="#E9B488" d="M981.4,690.6c0,0-2.7,21.7,0,25.5c2.7,3.8,13.6,0,13.6,0V728c0,0,3.8,4.9,8.7,3.3s8.7-6.5,8.7-6.5v-20.6
			L981.4,690.6z"/>
		<path fill="#FED22C" d="M994.9,728c0,0-19,7.1-22.2,13s-1.1,12.9,0,23.5c1.1,10.7,4.9,44.3,0.5,51.9c0,0,6.5,10.3,16.3,16.3
			s14.1,7.1,22.8,2.7c8.7-4.3,13.6-11.9,13.6-11.9s10.3-73.3,5.4-86.8c-4.9-13.6-8.4-13.1-19-11.9C1001.7,725.9,994.9,728,994.9,728
			z"/>
		<path fill="#FED22C" d="M1021.2,722.8c0,0-3.3,8.4-5.2,22.9c-1.9,14.5-1.9,14.5-1.9,14.5l-16.7-9.7c0,0-10.3,2.5-10,11.6
			c0,0,18.1,13,24.1,16.6c6,3.6,9.7,7.8,14.8,2c5.1-5.8,9.3-25.1,9.2-27.5C1035.3,750.8,1021.2,722.8,1021.2,722.8z"/>
		<path fill="#713D23" d="M989,697.6c0,0-5.4-2.2-7.6-7.1c-2.2-4.9-1.6-14.7,10.9-16.3c12.5-1.6,24.4,6,27.7,14.1
			c3.3,8.1,2.2,15.5,8.7,22.7s26,12.6,27.1,27.8c1.1,15.2-15.2,32-28.8,23.3c-13.6-8.7-27.8-24.4-25-42.9
			C1004.9,700.9,989,697.6,989,697.6z"/>
	</g>
	<g>
		<polygon fill="#FFFFFF" points="853.7,999.5 817.1,1019.4 857.8,1050.7 894.5,1030.8 		"/>
		<path fill="#E9B488" d="M851.6,1054.1c0,0-5.7-1-8.9-2.2c-3.2-1.2-8.5-5.7-9.1-7.5c-0.6-1.8-1.4-9.1,0-10.7c1.4-1.6,6.5,4,8.6,5.7
			s2.1,1.8,2.1,1.8s-1.6-4.7-1.2-5.9c0.4-1.2,2.8-1.4,5.5,1.6s10.1,9.5,10.1,9.5L851.6,1054.1z"/>
		<path fill="#031E6C" d="M899.9,1245.7l-1.9,1.3c0,0-4.5,0.6-9.6-0.6c-5.1-1.3-10.9-1-10,3.9s9.3,8.7,12.9,10.3
			c3.5,1.6,10.6,3.9,11.6,5.1c1,1.3,2.6,3.2,8,1.9c5.5-1.3,5.7-3.5,5.7-3.5v-19.9L899.9,1245.7z"/>
		<path fill="#031E6C" d="M931.4,1230.6c0,0-6.4-3.2-8.7-2.9s-4.8,3.9,0,9s6.7,7.4,8.7,11.2c1.9,3.9,3.2,6.7,7.7,6.4
			c1.3-0.1,2.6-0.4,3.7-0.9c2.8-1.1,4.7-3.9,4.7-6.9v-10.3l-13.8-6.4L931.4,1230.6z"/>
		<path fill="#A78264" d="M887.1,1122l-1.5,4.9c0,0,0.5,28.5,5,49.1c4.5,20.6,7.4,71,7.4,71s1,4.8,7.1,5.1
			c6.1,0.3,12.2-3.5,12.2-3.5s1-29.9,0-47.5c-1-17.7-2-28.3,0.4-37.3c0,0,2.1,19.6,5.4,31.5s6.1,32.8,7.4,41.8c0,0,1.3,5.8,6.1,5.8
			s6.4-1,9.6-4.8c0,0,1.6-28.6,1.3-41.1s-7.1-29.9-7.1-29.9s1.6-45.3,1-57.5s-22.2-20.9-22.2-20.9L887.1,1122z"/>
		<path fill="#E9B488" d="M893.2,965.9v23.5c0,0-0.3,8,2.9,9.3c3.2,1.3,7.1,0,7.1,0v7.1c0,0,9.3,1.9,16.7-3.5v-7.4L908.3,971
			C908.3,971,896.4,963.6,893.2,965.9z"/>
		<path fill="#031E6C" d="M903.1,1005.7c0,0-10.3,3.9-16.4,9.6s-5.5,16.7-6.1,25.4c-0.6,8.7-1.9,14.5-1.9,14.5s-16.7-10-18.6-10.6
			c0,0-10.6,2.2-8,12.5c0,0,12.9,9,19.9,13.8c7.1,4.8,13.5,9,18,9c0,0-1.6,9-4.5,19.9c-2.9,10.9-1.9,26-1.9,26s11.6,6.4,21.8,5.5
			c10.3-1,14.5-4.2,14.5-4.2l4.8-19.3v16.1c0,0,11.9-5.8,16.7-14.5c0,0-0.6-18-1.9-24.1c-1.3-6.1,7.4-28.9,10-37.9
			c2.6-9-3.5-37.6-6.1-43.4c-2.6-5.8-12.9-11.2-23.5-6.1L903.1,1005.7z"/>
		<path fill="#713D23" d="M893.2,965.9c0,0-0.6-5.5,4.5-8.7c5.1-3.2,14.5-3.5,20.9,0c6.4,3.5,11.2,8.7,10.6,19.6
			c-0.6,10.9-9.3,19.6-9.3,19.6s-3.5,1-10.9-6.7s-9.1-17.7-10.9-20.9C896.2,965.6,893.2,965.9,893.2,965.9z"/>
	</g>
	<g>
		<g>
			<g>
				<polygon fill="#FFFFFF" points="565.6,624.9 565.9,711.8 501.2,749.1 490.1,768.4 478.9,762 414.3,799.3 414,712.4 				"/>
			</g>
			<g>
				<polygon fill="#DCE5FE" points="414.3,799.3 406.9,795 406.6,708.1 414,712.4 				"/>
			</g>
			<g>
				<polygon fill="#DCE5FE" points="414,712.4 406.6,708.1 558.2,620.6 565.6,624.9 				"/>
			</g>
		</g>
		<g>
			<path fill="#A9D6FF" d="M433.3,740.4l113.2-64.8c1.4-0.8,2.5-2.7,2.5-4.3c0-1.6-1.1-2.3-2.5-1.5l-113.2,64.7
				c-1.4,0.8-2.5,2.7-2.5,4.4C430.8,740.6,431.9,741.2,433.3,740.4z"/>
			<path fill="#A9D6FF" d="M433.3,729.7l113.2-64.7c1.4-0.8,2.5-2.7,2.5-4.4c0-1.6-1.1-2.3-2.5-1.5l-113.2,64.8
				c-1.4,0.8-2.5,2.7-2.5,4.3C430.8,729.8,431.9,730.5,433.3,729.7z"/>
			<path fill="#A9D6FF" d="M433.4,751.2l113.2-64.7c1.4-0.8,2.5-2.7,2.5-4.4c0-1.6-1.1-2.3-2.5-1.5l-113.2,64.7
				c-1.4,0.8-2.5,2.7-2.5,4.4C430.8,751.3,432,752,433.4,751.2z"/>
			<path fill="#A9D6FF" d="M546.6,691.4l-113.2,64.8c-1.4,0.8-2.5,2.7-2.5,4.3c0,1.6,1.1,2.3,2.5,1.5l113.2-64.8
				c1.4-0.8,2.5-2.7,2.5-4.3C549.1,691.3,548,690.6,546.6,691.4z"/>
		</g>
	</g>
	<g>
		<g>
			<polygon fill="#F965A8" points="594.5,852.4 594.7,922.7 583.6,929.1 583.4,858.8 			"/>
		</g>
		<g>
			<polygon fill="#FED22C" points="613.4,796.5 613.8,911.8 603.3,917.8 603,802.5 			"/>
		</g>
		<g>
			<polygon fill="#3AE0C0" points="636.7,799.2 637,898.4 624.7,905.5 624.4,806.3 			"/>
		</g>
		<g>
			<polygon fill="#4367C7" points="655,845.4 655.1,887.9 644,894.3 643.9,851.9 			"/>
		</g>
	</g>
	<g>
		<g>
			<polygon fill="#F2F2F2" points="607.7,1078.5 607.6,1079.1 665.1,1045.9 748.8,1094.5 752.8,1091.2 755.1,1090.6 755.1,1098.2 
				688.8,1136.5 598.8,1084.2 598.8,1076.8 			"/>
			<polygon fill="#FFFFFF" points="598.8,1076.8 688.8,1129.1 755.1,1090.9 665.1,1038.5 			"/>
			<polygon fill="#A9D6FF" points="681.5,1119.1 737.8,1086.5 741.8,1088.9 685.5,1121.4 			"/>
			<polygon fill="#A9D6FF" points="672.8,1114 729.1,1081.5 733.2,1083.9 676.8,1116.4 			"/>
			<polygon fill="#A9D6FF" points="664.1,1109 720.5,1076.5 724.5,1078.8 668.2,1111.3 			"/>
			<polygon fill="#A9D6FF" points="655.5,1104 711.8,1071.4 715.8,1073.8 659.5,1106.3 			"/>
			<polygon fill="#A9D6FF" points="646.8,1098.9 703.1,1066.4 707.2,1068.7 650.8,1101.3 			"/>
			<polygon fill="#A9D6FF" points="638.1,1093.9 694.5,1061.4 698.5,1063.7 642.2,1096.2 			"/>
			<polygon fill="#A9D6FF" points="629.5,1088.8 685.8,1056.3 689.8,1058.7 633.5,1091.2 			"/>
			<polygon fill="#A9D6FF" points="620.8,1083.8 677.1,1051.3 681.2,1053.6 624.8,1086.2 			"/>
			<polygon fill="#A9D6FF" points="616.2,1081.1 612.1,1078.8 668.4,1046.2 672.5,1048.6 			"/>
		</g>
		<g>
			<polygon fill="#F2F2F2" points="607.7,1066.9 607.6,1067.6 665.1,1034.4 748.8,1083 752.8,1079.6 755.1,1079 755.1,1086.7 
				688.8,1124.9 598.8,1072.6 598.8,1065.3 			"/>
			<polygon fill="#FFFFFF" points="598.8,1065.3 688.8,1117.6 755.1,1079.3 665.1,1027 			"/>
			<polygon fill="#A9D6FF" points="681.5,1107.5 737.8,1075 741.8,1077.3 685.5,1109.9 			"/>
			<polygon fill="#A9D6FF" points="672.8,1102.5 729.1,1070 733.2,1072.3 676.8,1104.8 			"/>
			<polygon fill="#A9D6FF" points="664.1,1097.4 720.5,1064.9 724.5,1067.3 668.2,1099.8 			"/>
			<polygon fill="#A9D6FF" points="655.5,1092.4 711.8,1059.9 715.8,1062.2 659.5,1094.8 			"/>
			<polygon fill="#A9D6FF" points="646.8,1087.4 703.1,1054.9 707.2,1057.2 650.8,1089.7 			"/>
			<polygon fill="#A9D6FF" points="638.1,1082.3 694.5,1049.8 698.5,1052.2 642.2,1084.7 			"/>
			<polygon fill="#A9D6FF" points="629.5,1077.3 685.8,1044.8 689.8,1047.1 633.5,1079.6 			"/>
			<polygon fill="#A9D6FF" points="620.8,1072.3 677.1,1039.7 681.2,1042.1 624.8,1074.6 			"/>
			<polygon fill="#A9D6FF" points="616.2,1069.6 612.1,1067.2 668.4,1034.7 672.5,1037 			"/>
		</g>
		<g>
			<polygon fill="#F2F2F2" points="607.7,1055.4 607.6,1056 665.1,1022.8 748.8,1071.4 752.8,1068.1 755.1,1067.5 755.1,1075.1 
				688.8,1113.4 598.8,1061.1 598.8,1053.7 			"/>
			<polygon fill="#FFFFFF" points="598.8,1053.7 688.8,1106 755.1,1067.8 665.1,1015.5 			"/>
			<polygon fill="#A9D6FF" points="681.5,1096 737.8,1063.5 741.8,1065.8 685.5,1098.3 			"/>
			<polygon fill="#A9D6FF" points="672.8,1090.9 729.1,1058.4 733.2,1060.8 676.8,1093.3 			"/>
			<polygon fill="#A9D6FF" points="664.1,1085.9 720.5,1053.4 724.5,1055.7 668.2,1088.2 			"/>
			<polygon fill="#A9D6FF" points="655.5,1080.9 711.8,1048.3 715.8,1050.7 659.5,1083.2 			"/>
			<polygon fill="#A9D6FF" points="646.8,1075.8 703.1,1043.3 707.2,1045.6 650.8,1078.2 			"/>
			<polygon fill="#A9D6FF" points="638.1,1070.8 694.5,1038.3 698.5,1040.6 642.2,1073.1 			"/>
			<polygon fill="#A9D6FF" points="629.5,1065.8 685.8,1033.2 689.8,1035.6 633.5,1068.1 			"/>
			<polygon fill="#A9D6FF" points="620.8,1060.7 677.1,1028.2 681.2,1030.5 624.8,1063.1 			"/>
			<polygon fill="#A9D6FF" points="616.2,1058 612.1,1055.7 668.4,1023.2 672.5,1025.5 			"/>
		</g>
		<g>
			<polygon fill="#F2F2F2" points="607.7,1043.8 607.6,1044.5 665.1,1011.3 748.8,1059.9 752.8,1056.5 755.1,1055.9 755.1,1063.6 
				688.8,1101.8 598.8,1049.5 598.8,1042.2 			"/>
			<polygon fill="#FFFFFF" points="598.8,1042.2 688.8,1094.5 755.1,1056.2 665.1,1003.9 			"/>
			<polygon fill="#A9D6FF" points="681.5,1084.4 737.8,1051.9 741.8,1054.2 685.5,1086.8 			"/>
			<polygon fill="#A9D6FF" points="672.8,1079.4 729.1,1046.9 733.2,1049.2 676.8,1081.7 			"/>
			<polygon fill="#A9D6FF" points="664.1,1074.4 720.5,1041.8 724.5,1044.2 668.2,1076.7 			"/>
			<polygon fill="#A9D6FF" points="655.5,1069.3 711.8,1036.8 715.8,1039.1 659.5,1071.7 			"/>
			<polygon fill="#A9D6FF" points="646.8,1064.3 703.1,1031.8 707.2,1034.1 650.8,1066.6 			"/>
			<polygon fill="#A9D6FF" points="638.1,1059.2 694.5,1026.7 698.5,1029.1 642.2,1061.6 			"/>
			<polygon fill="#A9D6FF" points="629.5,1054.2 685.8,1021.7 689.8,1024 633.5,1056.5 			"/>
			<polygon fill="#A9D6FF" points="620.8,1049.2 677.1,1016.6 681.2,1019 624.8,1051.5 			"/>
			<polygon fill="#A9D6FF" points="616.2,1046.5 612.1,1044.1 668.4,1011.6 672.5,1014 			"/>
		</g>
		<g>
			<polygon fill="#F2F2F2" points="607.7,1032.3 607.6,1032.9 665.1,999.7 748.8,1048.3 752.8,1045 755.1,1044.4 755.1,1052 
				688.8,1090.3 598.8,1038 598.8,1030.6 			"/>
			<polygon fill="#FFFFFF" points="598.8,1030.6 688.8,1082.9 755.1,1044.7 665.1,992.4 			"/>
			<polygon fill="#A9D6FF" points="681.5,1072.9 737.8,1040.4 741.8,1042.7 685.5,1075.2 			"/>
			<polygon fill="#A9D6FF" points="672.8,1067.8 729.1,1035.3 733.2,1037.7 676.8,1070.2 			"/>
			<polygon fill="#A9D6FF" points="664.1,1062.8 720.5,1030.3 724.5,1032.6 668.2,1065.2 			"/>
			<polygon fill="#A9D6FF" points="655.5,1057.8 711.8,1025.2 715.8,1027.6 659.5,1060.1 			"/>
			<polygon fill="#A9D6FF" points="646.8,1052.7 703.1,1020.2 707.2,1022.6 650.8,1055.1 			"/>
			<polygon fill="#A9D6FF" points="638.1,1047.7 694.5,1015.2 698.5,1017.5 642.2,1050 			"/>
			<polygon fill="#A9D6FF" points="629.5,1042.7 685.8,1010.1 689.8,1012.5 633.5,1045 			"/>
			<polygon fill="#A9D6FF" points="620.8,1037.6 677.1,1005.1 681.2,1007.4 624.8,1040 			"/>
			<polygon fill="#A9D6FF" points="616.2,1034.9 612.1,1032.6 668.4,1000.1 672.5,1002.4 			"/>
		</g>
		<g>
			<polygon fill="#F2F2F2" points="607.7,1020.7 607.6,1021.4 665.1,988.2 748.8,1036.8 752.8,1033.5 755.1,1032.8 755.1,1040.5 
				688.8,1078.7 598.8,1026.4 598.8,1019.1 			"/>
			<polygon fill="#FFFFFF" points="598.8,1019.1 688.8,1071.4 755.1,1033.1 665.1,980.8 			"/>
			<polygon fill="#A9D6FF" points="681.5,1061.3 737.8,1028.8 741.8,1031.2 685.5,1063.7 			"/>
			<polygon fill="#A9D6FF" points="672.8,1056.3 729.1,1023.8 733.2,1026.1 676.8,1058.6 			"/>
			<polygon fill="#A9D6FF" points="664.1,1051.3 720.5,1018.7 724.5,1021.1 668.2,1053.6 			"/>
			<polygon fill="#A9D6FF" points="655.5,1046.2 711.8,1013.7 715.8,1016 659.5,1048.6 			"/>
			<polygon fill="#A9D6FF" points="646.8,1041.2 703.1,1008.7 707.2,1011 650.8,1043.5 			"/>
			<polygon fill="#A9D6FF" points="638.1,1036.1 694.5,1003.6 698.5,1006 642.2,1038.5 			"/>
			<polygon fill="#A9D6FF" points="629.5,1031.1 685.8,998.6 689.8,1000.9 633.5,1033.5 			"/>
			<polygon fill="#A9D6FF" points="620.8,1026.1 677.1,993.6 681.2,995.9 624.8,1028.4 			"/>
			<polygon fill="#A9D6FF" points="616.2,1023.4 612.1,1021 668.4,988.5 672.5,990.9 			"/>
		</g>
	</g>
	<g>
		<g>
			<path fill="#313747" d="M716.5,1020.2c0.2,0.7,0.3,1.5,0.3,2.3c0,0.8-0.1,1.5-0.3,2.3l5.7,0l0-4.6H716.5z"/>
		</g>
		<g>
			<polygon fill="#232935" points="716.5,1024.7 716.5,1030.3 722.2,1030.3 722.2,1024.7 			"/>
		</g>
		<g>
			<polygon fill="#E54897" points="722.2,1025.9 722.2,1031.5 781.6,1031.5 781.6,1025.9 			"/>
		</g>
		<g>
			<polygon fill="#F965A8" points="722.2,1019 722.2,1020.2 722.2,1024.7 722.2,1025.9 781.6,1025.9 781.7,1019 			"/>
		</g>
		<path fill="#E54897" d="M687.4,1039.4c8.1,0,15.4-1.9,20.7-5c4.4-2.6,7.5-5.9,8.4-9.7c0.2-0.7,0.3-1.5,0.3-2.3c0,0,0-0.1,0-0.1
			l0,5.6c0,0,0,0.1,0,0.1c0,0.8-0.1,1.5-0.3,2.3c-0.9,3.8-3.9,7.1-8.4,9.7c-5.3,3.1-12.7,5-20.7,5c-16.2,0-29.2-7.6-29.2-17l0-5.6
			C658.2,1031.8,671.2,1039.4,687.4,1039.4z"/>
		<path fill="#DCF8FF" d="M670.5,1012.6c-4.4,2.5-7.1,6-7.1,9.9c0,3.9,2.7,7.3,7,9.9c4.3,2.5,10.4,4.1,17,4.1c6.6,0,12.7-1.6,17-4.1
			c4.4-2.5,7.1-6,7.1-9.9c0-3.9-2.7-7.3-7-9.9c-4.3-2.5-10.4-4.1-17-4.1C680.9,1008.5,674.9,1010.1,670.5,1012.6z"/>
		<path fill="#F965A8" d="M658.2,1022.4c-0.1,9.4,13,17,29.2,17c8.1,0,15.4-1.9,20.7-5c4.4-2.6,7.5-5.9,8.4-9.7
			c0.2-0.7,0.3-1.5,0.3-2.3c0-0.8-0.1-1.5-0.3-2.3c-1.9-8.3-14.1-14.7-28.9-14.7c-8.1,0-15.4,1.9-20.7,5
			C661.5,1013.5,658.2,1017.8,658.2,1022.4z M663.4,1022.4c0-3.9,2.7-7.3,7.1-9.9c4.4-2.5,10.4-4.1,17-4.1c6.6,0,12.7,1.6,17,4.1
			c4.3,2.5,7,6,7,9.9c0,3.9-2.7,7.3-7.1,9.9c-4.4,2.5-10.4,4.1-17,4.1c-6.6,0-12.7-1.6-17-4.1
			C666.1,1029.8,663.4,1026.3,663.4,1022.4z"/>
		<path fill="#FFFFFF" d="M686.6,1036.4c-4.4-0.1-8.4-0.8-11.9-2.1l33.3-19.2c2.1,2,3.4,4.4,3.6,6.9L686.6,1036.4z"/>
		<path fill="#FFFFFF" d="M694.6,1009.1c3.7,0.7,7,1.8,9.7,3.3l-34.1,19.7c-2.6-1.6-4.6-3.5-5.7-5.6L694.6,1009.1z"/>
	</g>
	<g>
		<g>
			<path fill="#E5AC45" d="M913.7,887.2c0,0.1,0,0.3,0,0.4c0,0.1,0,0.2,0,0.3c0,0.1,0,0.3-0.1,0.4c0,0.1,0,0.2-0.1,0.3
				c0,0.1-0.1,0.2-0.1,0.4c0,0.1-0.1,0.2-0.1,0.3c0,0.1-0.1,0.2-0.1,0.4c0,0.1-0.1,0.2-0.1,0.3c-0.1,0.1-0.1,0.3-0.2,0.4
				c0,0.1-0.1,0.2-0.2,0.3c-0.1,0.1-0.1,0.3-0.2,0.4c-0.1,0.1-0.1,0.2-0.2,0.3c-0.1,0.2-0.2,0.3-0.3,0.5c-0.1,0.1-0.1,0.2-0.2,0.3
				c-0.1,0.2-0.2,0.3-0.4,0.5c-0.1,0.1-0.1,0.1-0.2,0.2c-0.2,0.3-0.4,0.5-0.7,0.8c-0.1,0.1-0.1,0.1-0.2,0.2
				c-0.2,0.2-0.4,0.4-0.6,0.6c-0.1,0.1-0.2,0.2-0.3,0.3c-0.1,0.1-0.2,0.2-0.4,0.3c-0.1,0.1-0.2,0.2-0.4,0.3
				c-0.1,0.1-0.3,0.2-0.4,0.3c-0.1,0.1-0.2,0.2-0.4,0.3c-0.1,0.1-0.3,0.2-0.4,0.3c-0.1,0.1-0.3,0.2-0.4,0.3
				c-0.2,0.1-0.3,0.2-0.5,0.3c-0.2,0.1-0.4,0.2-0.6,0.4c-0.6,0.3-1.1,0.6-1.7,0.9c-0.2,0.1-0.3,0.1-0.5,0.2
				c-0.5,0.2-1.1,0.5-1.6,0.7c-0.1,0-0.1,0.1-0.2,0.1c-0.6,0.2-1.2,0.4-1.8,0.6c-0.4,0.1-0.9,0.3-1.3,0.4c-0.3,0.1-0.7,0.2-1,0.3
				c-0.5,0.1-0.9,0.2-1.4,0.3c-0.3,0.1-0.7,0.1-1,0.2c-0.1,0-0.3,0-0.4,0.1c-0.6,0.1-1.2,0.2-1.8,0.3c-0.2,0-0.3,0-0.5,0.1
				c-0.3,0-0.7,0.1-1,0.1c-0.6,0-1.1,0.1-1.7,0.1c-0.4,0-0.7,0-1.1,0c-0.5,0-0.9,0-1.4,0c-0.4,0-0.8,0-1.2,0c-0.4,0-0.9,0-1.3-0.1
				c-0.4,0-0.8-0.1-1.2-0.1c-0.4,0-0.9-0.1-1.3-0.1c-0.4,0-0.8-0.1-1.1-0.2c-0.5-0.1-0.9-0.2-1.4-0.2c-0.4-0.1-0.7-0.1-1.1-0.2
				c-0.5-0.1-1.1-0.2-1.6-0.4c-0.3-0.1-0.7-0.2-1-0.3c-0.2-0.1-0.4-0.1-0.5-0.2c-0.5-0.2-1-0.3-1.6-0.5c-0.1-0.1-0.3-0.1-0.4-0.2
				c-0.5-0.2-0.9-0.4-1.4-0.6c-0.2-0.1-0.4-0.2-0.7-0.3c-0.6-0.3-1.3-0.6-1.9-1c-3.5-2-5.7-4.4-6.8-7c-0.5-1.2-0.7-2.4-0.7-3.5
				l0,7.2c0,3.8,2.5,7.6,7.5,10.5c0.6,0.3,1.2,0.7,1.9,1c0.2,0.1,0.4,0.2,0.7,0.3c0.4,0.2,0.8,0.3,1.2,0.5c0.1,0,0.1,0,0.2,0.1
				c0.1,0.1,0.3,0.1,0.4,0.2c0.5,0.2,1,0.4,1.6,0.5c0.2,0.1,0.4,0.1,0.5,0.2c0.1,0,0.2,0.1,0.4,0.1c0.2,0.1,0.4,0.1,0.7,0.2
				c0.5,0.1,1.1,0.3,1.6,0.4c0.1,0,0.3,0.1,0.4,0.1c0.2,0,0.4,0.1,0.6,0.1c0.4,0.1,0.9,0.2,1.4,0.2c0.2,0,0.4,0.1,0.5,0.1
				c0.2,0,0.4,0,0.6,0.1c0.4,0.1,0.8,0.1,1.3,0.1c0.2,0,0.4,0.1,0.6,0.1c0.2,0,0.4,0,0.6,0c0.4,0,0.9,0.1,1.3,0.1c0.2,0,0.4,0,0.6,0
				c0.2,0,0.3,0,0.5,0c0.5,0,0.9,0,1.4,0c0.2,0,0.5,0,0.7,0c0.1,0,0.3,0,0.4,0c0.6,0,1.2-0.1,1.7-0.1c0.2,0,0.5,0,0.7,0
				c0.1,0,0.2,0,0.3,0c0.2,0,0.3,0,0.5-0.1c0.6-0.1,1.2-0.2,1.8-0.3c0.1,0,0.3,0,0.4-0.1c0.1,0,0.1,0,0.2,0c0.3-0.1,0.5-0.1,0.8-0.2
				c0.5-0.1,1-0.2,1.4-0.3c0.3-0.1,0.7-0.2,1-0.3c0.4-0.1,0.9-0.2,1.3-0.4c0.1,0,0.2-0.1,0.3-0.1c0.5-0.2,1-0.4,1.6-0.5
				c0.1,0,0.1-0.1,0.2-0.1c0.6-0.2,1.1-0.5,1.6-0.7c0.2-0.1,0.3-0.1,0.5-0.2c0.6-0.3,1.2-0.6,1.7-0.9c0.1-0.1,0.2-0.1,0.3-0.2
				c0.1-0.1,0.2-0.1,0.3-0.2c0.2-0.1,0.3-0.2,0.5-0.3c0.1-0.1,0.3-0.2,0.4-0.3c0.1-0.1,0.3-0.2,0.4-0.3c0.1-0.1,0.3-0.2,0.4-0.3
				c0.1-0.1,0.3-0.2,0.4-0.3c0.1-0.1,0.2-0.2,0.4-0.3c0.1-0.1,0.2-0.2,0.4-0.3c0,0,0.1-0.1,0.2-0.1c0,0,0.1-0.1,0.1-0.1
				c0.2-0.2,0.4-0.4,0.6-0.6c0.1-0.1,0.1-0.1,0.2-0.2c0.2-0.3,0.5-0.5,0.7-0.8c0,0,0,0,0,0c0-0.1,0.1-0.1,0.1-0.2
				c0.1-0.2,0.2-0.3,0.4-0.5c0.1-0.1,0.1-0.2,0.2-0.3c0.1-0.2,0.2-0.3,0.3-0.5c0,0,0.1-0.1,0.1-0.1c0-0.1,0.1-0.1,0.1-0.2
				c0.1-0.1,0.1-0.3,0.2-0.4c0.1-0.1,0.1-0.2,0.2-0.3c0.1-0.1,0.1-0.3,0.2-0.4c0-0.1,0.1-0.1,0.1-0.2c0-0.1,0-0.1,0.1-0.2
				c0-0.1,0.1-0.2,0.1-0.4c0-0.1,0.1-0.2,0.1-0.3c0-0.1,0.1-0.2,0.1-0.4c0-0.1,0-0.1,0-0.2c0,0,0-0.1,0-0.1c0-0.1,0-0.3,0.1-0.4
				c0-0.1,0-0.2,0-0.3c0-0.1,0-0.3,0-0.4c0-0.1,0-0.2,0-0.2c0-0.1,0-0.1,0-0.2l0-7.2C913.7,886.9,913.7,887,913.7,887.2z"/>
			<g>
				<path fill="#F2C05B" d="M906.2,876.2c10,5.8,10.1,15.2,0.1,20.9s-26.1,5.8-36.2,0c-10-5.8-10.1-15.2-0.1-20.9
					S896.2,870.4,906.2,876.2z"/>
			</g>
			<g>
				<path fill="#EC8659" d="M896.5,885.1c2.2,1.3,2.5,3.3,0.2,5.2l2.5,1.5l-2.4,1.4l-2.4-1.4c-1.7,0.9-3.8,1.6-5.2,1.8l-2.2-2.1
					c1.6-0.3,3.5-0.8,5.1-1.7c1.4-0.8,1.8-1.7,0.8-2.2c-0.9-0.5-2.3-0.4-4.7,0.3c-3.5,1-6.6,1.3-8.9,0c-2.2-1.3-2.4-3.1-0.2-4.9
					l-2.4-1.4l2.4-1.4l2.2,1.3c1.7-0.9,3.2-1.3,4.4-1.6l2.1,2c-0.9,0.2-2.6,0.5-4.4,1.6c-1.6,0.9-1.4,1.6-0.7,2
					c0.8,0.5,2.2,0.3,5.1-0.5C891.7,883.7,894.3,883.8,896.5,885.1z"/>
			</g>
		</g>
		<g>
			<path fill="#E5AC45" d="M947.5,915c0,0.1,0,0.3,0,0.4c0,0.1,0,0.2,0,0.3c0,0.1,0,0.3-0.1,0.4c0,0.1,0,0.2-0.1,0.3
				c0,0.1-0.1,0.2-0.1,0.4c0,0.1-0.1,0.2-0.1,0.3c0,0.1-0.1,0.2-0.1,0.4c0,0.1-0.1,0.2-0.1,0.3c-0.1,0.1-0.1,0.3-0.2,0.4
				c0,0.1-0.1,0.2-0.2,0.3c-0.1,0.1-0.1,0.3-0.2,0.4c-0.1,0.1-0.1,0.2-0.2,0.3c-0.1,0.2-0.2,0.3-0.3,0.5c-0.1,0.1-0.1,0.2-0.2,0.3
				c-0.1,0.2-0.2,0.3-0.4,0.5c-0.1,0.1-0.1,0.1-0.2,0.2c-0.2,0.3-0.4,0.5-0.7,0.8c-0.1,0.1-0.1,0.1-0.2,0.2
				c-0.2,0.2-0.4,0.4-0.6,0.6c-0.1,0.1-0.2,0.2-0.3,0.3c-0.1,0.1-0.2,0.2-0.4,0.3c-0.1,0.1-0.2,0.2-0.4,0.3
				c-0.1,0.1-0.3,0.2-0.4,0.3c-0.1,0.1-0.2,0.2-0.4,0.3c-0.1,0.1-0.3,0.2-0.4,0.3c-0.1,0.1-0.3,0.2-0.4,0.3
				c-0.2,0.1-0.3,0.2-0.5,0.3c-0.2,0.1-0.4,0.2-0.6,0.4c-0.6,0.3-1.1,0.6-1.7,0.9c-0.2,0.1-0.3,0.1-0.5,0.2
				c-0.5,0.2-1.1,0.5-1.6,0.7c-0.1,0-0.1,0.1-0.2,0.1c-0.6,0.2-1.2,0.4-1.8,0.6c-0.4,0.1-0.9,0.3-1.3,0.4c-0.3,0.1-0.7,0.2-1,0.3
				c-0.5,0.1-0.9,0.2-1.4,0.3c-0.3,0.1-0.7,0.1-1,0.2c-0.1,0-0.3,0-0.4,0.1c-0.6,0.1-1.2,0.2-1.8,0.3c-0.2,0-0.3,0-0.5,0.1
				c-0.3,0-0.7,0.1-1,0.1c-0.6,0-1.1,0.1-1.7,0.1c-0.4,0-0.7,0-1.1,0c-0.5,0-0.9,0-1.4,0c-0.4,0-0.8,0-1.2,0c-0.4,0-0.9,0-1.3-0.1
				c-0.4,0-0.8-0.1-1.2-0.1c-0.4,0-0.9-0.1-1.3-0.1c-0.4,0-0.8-0.1-1.1-0.2c-0.5-0.1-0.9-0.2-1.4-0.2c-0.4-0.1-0.7-0.1-1.1-0.2
				c-0.5-0.1-1.1-0.2-1.6-0.4c-0.3-0.1-0.7-0.2-1-0.3c-0.2-0.1-0.4-0.1-0.5-0.2c-0.5-0.2-1-0.3-1.6-0.5c-0.1-0.1-0.3-0.1-0.4-0.2
				c-0.5-0.2-0.9-0.4-1.4-0.6c-0.2-0.1-0.4-0.2-0.7-0.3c-0.6-0.3-1.3-0.6-1.9-1c-3.5-2-5.7-4.4-6.8-7c-0.5-1.2-0.7-2.4-0.7-3.5
				l0,7.2c0,3.8,2.5,7.6,7.5,10.5c0.6,0.3,1.2,0.7,1.9,1c0.2,0.1,0.4,0.2,0.7,0.3c0.4,0.2,0.8,0.3,1.2,0.5c0.1,0,0.1,0,0.2,0.1
				c0.1,0.1,0.3,0.1,0.4,0.2c0.5,0.2,1,0.4,1.6,0.5c0.2,0.1,0.4,0.1,0.5,0.2c0.1,0,0.2,0.1,0.4,0.1c0.2,0.1,0.4,0.1,0.7,0.2
				c0.5,0.1,1.1,0.3,1.6,0.4c0.1,0,0.3,0.1,0.4,0.1c0.2,0,0.4,0.1,0.6,0.1c0.4,0.1,0.9,0.2,1.4,0.2c0.2,0,0.4,0.1,0.5,0.1
				c0.2,0,0.4,0,0.6,0.1c0.4,0.1,0.8,0.1,1.3,0.1c0.2,0,0.4,0.1,0.6,0.1c0.2,0,0.4,0,0.6,0c0.4,0,0.9,0.1,1.3,0.1c0.2,0,0.4,0,0.6,0
				c0.2,0,0.3,0,0.5,0c0.5,0,0.9,0,1.4,0c0.2,0,0.5,0,0.7,0c0.1,0,0.3,0,0.4,0c0.6,0,1.2-0.1,1.7-0.1c0.2,0,0.5,0,0.7,0
				c0.1,0,0.2,0,0.3,0c0.2,0,0.3,0,0.5-0.1c0.6-0.1,1.2-0.2,1.8-0.3c0.1,0,0.3,0,0.4-0.1c0.1,0,0.1,0,0.2,0c0.3-0.1,0.5-0.1,0.8-0.2
				c0.5-0.1,1-0.2,1.4-0.3c0.3-0.1,0.7-0.2,1-0.3c0.4-0.1,0.9-0.2,1.3-0.4c0.1,0,0.2-0.1,0.3-0.1c0.5-0.2,1-0.4,1.6-0.5
				c0.1,0,0.1-0.1,0.2-0.1c0.6-0.2,1.1-0.5,1.6-0.7c0.2-0.1,0.3-0.1,0.5-0.2c0.6-0.3,1.2-0.6,1.7-0.9c0.1-0.1,0.2-0.1,0.3-0.2
				c0.1-0.1,0.2-0.1,0.3-0.2c0.2-0.1,0.3-0.2,0.5-0.3c0.1-0.1,0.3-0.2,0.4-0.3c0.1-0.1,0.3-0.2,0.4-0.3c0.1-0.1,0.3-0.2,0.4-0.3
				c0.1-0.1,0.3-0.2,0.4-0.3c0.1-0.1,0.2-0.2,0.4-0.3c0.1-0.1,0.2-0.2,0.4-0.3c0,0,0.1-0.1,0.2-0.1c0,0,0.1-0.1,0.1-0.1
				c0.2-0.2,0.4-0.4,0.6-0.6c0.1-0.1,0.1-0.1,0.2-0.2c0.2-0.3,0.5-0.5,0.7-0.8c0,0,0,0,0,0c0-0.1,0.1-0.1,0.1-0.2
				c0.1-0.2,0.2-0.3,0.4-0.5c0.1-0.1,0.1-0.2,0.2-0.3c0.1-0.2,0.2-0.3,0.3-0.5c0,0,0.1-0.1,0.1-0.1c0-0.1,0.1-0.1,0.1-0.2
				c0.1-0.1,0.1-0.3,0.2-0.4c0.1-0.1,0.1-0.2,0.2-0.3c0.1-0.1,0.1-0.3,0.2-0.4c0-0.1,0.1-0.1,0.1-0.2c0-0.1,0-0.1,0.1-0.2
				c0-0.1,0.1-0.2,0.1-0.4c0-0.1,0.1-0.2,0.1-0.3c0-0.1,0.1-0.2,0.1-0.4c0-0.1,0-0.1,0-0.2c0,0,0-0.1,0-0.1c0-0.1,0-0.3,0.1-0.4
				c0-0.1,0-0.2,0-0.3c0-0.1,0-0.3,0-0.4c0-0.1,0-0.2,0-0.2c0-0.1,0-0.1,0-0.2l0-7.2C947.5,914.7,947.5,914.9,947.5,915z"/>
			<g>
				<path fill="#F2C05B" d="M939.9,904.1c10,5.8,10.1,15.2,0.1,20.9c-9.9,5.8-26.1,5.8-36.2,0c-10-5.8-10.1-15.2-0.1-20.9
					C913.7,898.3,929.9,898.3,939.9,904.1z"/>
			</g>
			<g>
				<path fill="#EC8659" d="M930.3,913c2.2,1.3,2.5,3.3,0.2,5.2l2.5,1.5l-2.4,1.4l-2.4-1.4c-1.7,0.9-3.8,1.6-5.2,1.8l-2.2-2.1
					c1.6-0.3,3.5-0.8,5.1-1.7c1.4-0.8,1.8-1.7,0.8-2.2c-0.9-0.5-2.3-0.4-4.7,0.3c-3.5,1-6.6,1.3-8.9,0c-2.2-1.3-2.4-3.1-0.2-4.9
					l-2.4-1.4l2.4-1.4l2.2,1.3c1.7-0.9,3.2-1.3,4.4-1.6l2.1,2c-0.9,0.2-2.6,0.5-4.4,1.6c-1.6,0.9-1.4,1.6-0.7,2
					c0.8,0.5,2.2,0.3,5.1-0.5C925.5,911.6,928.1,911.7,930.3,913z"/>
			</g>
		</g>
		<g>
			<path fill="#E5AC45" d="M956.5,887.2c0,0.1,0,0.3,0,0.4c0,0.1,0,0.2,0,0.3c0,0.1,0,0.3-0.1,0.4c0,0.1,0,0.2-0.1,0.3
				c0,0.1-0.1,0.2-0.1,0.4c0,0.1-0.1,0.2-0.1,0.3c0,0.1-0.1,0.2-0.1,0.4c0,0.1-0.1,0.2-0.1,0.3c-0.1,0.1-0.1,0.3-0.2,0.4
				c0,0.1-0.1,0.2-0.2,0.3c-0.1,0.1-0.1,0.3-0.2,0.4c-0.1,0.1-0.1,0.2-0.2,0.3c-0.1,0.2-0.2,0.3-0.3,0.5c-0.1,0.1-0.1,0.2-0.2,0.3
				c-0.1,0.2-0.2,0.3-0.4,0.5c-0.1,0.1-0.1,0.1-0.2,0.2c-0.2,0.3-0.4,0.5-0.7,0.8c-0.1,0.1-0.1,0.1-0.2,0.2
				c-0.2,0.2-0.4,0.4-0.6,0.6c-0.1,0.1-0.2,0.2-0.3,0.3c-0.1,0.1-0.2,0.2-0.4,0.3c-0.1,0.1-0.2,0.2-0.4,0.3
				c-0.1,0.1-0.3,0.2-0.4,0.3c-0.1,0.1-0.2,0.2-0.4,0.3c-0.1,0.1-0.3,0.2-0.4,0.3c-0.1,0.1-0.3,0.2-0.4,0.3
				c-0.2,0.1-0.3,0.2-0.5,0.3c-0.2,0.1-0.4,0.2-0.6,0.4c-0.6,0.3-1.1,0.6-1.7,0.9c-0.2,0.1-0.3,0.1-0.5,0.2
				c-0.5,0.2-1.1,0.5-1.6,0.7c-0.1,0-0.1,0.1-0.2,0.1c-0.6,0.2-1.2,0.4-1.8,0.6c-0.4,0.1-0.9,0.3-1.3,0.4c-0.3,0.1-0.7,0.2-1,0.3
				c-0.5,0.1-0.9,0.2-1.4,0.3c-0.3,0.1-0.7,0.1-1,0.2c-0.1,0-0.3,0-0.4,0.1c-0.6,0.1-1.2,0.2-1.8,0.3c-0.2,0-0.3,0-0.5,0.1
				c-0.3,0-0.7,0.1-1,0.1c-0.6,0-1.1,0.1-1.7,0.1c-0.4,0-0.7,0-1.1,0c-0.5,0-0.9,0-1.4,0c-0.4,0-0.8,0-1.2,0c-0.4,0-0.9,0-1.3-0.1
				c-0.4,0-0.8-0.1-1.2-0.1c-0.4,0-0.9-0.1-1.3-0.1c-0.4,0-0.8-0.1-1.1-0.2c-0.5-0.1-0.9-0.2-1.4-0.2c-0.4-0.1-0.7-0.1-1.1-0.2
				c-0.5-0.1-1.1-0.2-1.6-0.4c-0.3-0.1-0.7-0.2-1-0.3c-0.2-0.1-0.4-0.1-0.5-0.2c-0.5-0.2-1-0.3-1.6-0.5c-0.1-0.1-0.3-0.1-0.4-0.2
				c-0.5-0.2-0.9-0.4-1.4-0.6c-0.2-0.1-0.4-0.2-0.7-0.3c-0.6-0.3-1.3-0.6-1.9-1c-3.5-2-5.7-4.4-6.8-7c-0.5-1.2-0.7-2.4-0.7-3.5
				l0,7.2c0,3.8,2.5,7.6,7.5,10.5c0.6,0.3,1.2,0.7,1.9,1c0.2,0.1,0.4,0.2,0.7,0.3c0.4,0.2,0.8,0.3,1.2,0.5c0.1,0,0.1,0,0.2,0.1
				c0.1,0.1,0.3,0.1,0.4,0.2c0.5,0.2,1,0.4,1.6,0.5c0.2,0.1,0.4,0.1,0.5,0.2c0.1,0,0.2,0.1,0.4,0.1c0.2,0.1,0.4,0.1,0.7,0.2
				c0.5,0.1,1.1,0.3,1.6,0.4c0.1,0,0.3,0.1,0.4,0.1c0.2,0,0.4,0.1,0.6,0.1c0.4,0.1,0.9,0.2,1.4,0.2c0.2,0,0.4,0.1,0.5,0.1
				c0.2,0,0.4,0,0.6,0.1c0.4,0.1,0.8,0.1,1.3,0.1c0.2,0,0.4,0.1,0.6,0.1c0.2,0,0.4,0,0.6,0c0.4,0,0.9,0.1,1.3,0.1c0.2,0,0.4,0,0.6,0
				c0.2,0,0.3,0,0.5,0c0.5,0,0.9,0,1.4,0c0.2,0,0.5,0,0.7,0c0.1,0,0.3,0,0.4,0c0.6,0,1.2-0.1,1.7-0.1c0.2,0,0.5,0,0.7,0
				c0.1,0,0.2,0,0.3,0c0.2,0,0.3,0,0.5-0.1c0.6-0.1,1.2-0.2,1.8-0.3c0.1,0,0.3,0,0.4-0.1c0.1,0,0.1,0,0.2,0c0.3-0.1,0.5-0.1,0.8-0.2
				c0.5-0.1,1-0.2,1.4-0.3c0.3-0.1,0.7-0.2,1-0.3c0.4-0.1,0.9-0.2,1.3-0.4c0.1,0,0.2-0.1,0.3-0.1c0.5-0.2,1-0.4,1.6-0.5
				c0.1,0,0.1-0.1,0.2-0.1c0.6-0.2,1.1-0.5,1.6-0.7c0.2-0.1,0.3-0.1,0.5-0.2c0.6-0.3,1.2-0.6,1.7-0.9c0.1-0.1,0.2-0.1,0.3-0.2
				c0.1-0.1,0.2-0.1,0.3-0.2c0.2-0.1,0.3-0.2,0.5-0.3c0.1-0.1,0.3-0.2,0.4-0.3c0.1-0.1,0.3-0.2,0.4-0.3c0.1-0.1,0.3-0.2,0.4-0.3
				c0.1-0.1,0.3-0.2,0.4-0.3c0.1-0.1,0.2-0.2,0.4-0.3c0.1-0.1,0.2-0.2,0.4-0.3c0,0,0.1-0.1,0.2-0.1c0,0,0.1-0.1,0.1-0.1
				c0.2-0.2,0.4-0.4,0.6-0.6c0.1-0.1,0.1-0.1,0.2-0.2c0.2-0.3,0.5-0.5,0.7-0.8c0,0,0,0,0,0c0-0.1,0.1-0.1,0.1-0.2
				c0.1-0.2,0.2-0.3,0.4-0.5c0.1-0.1,0.1-0.2,0.2-0.3c0.1-0.2,0.2-0.3,0.3-0.5c0,0,0.1-0.1,0.1-0.1c0-0.1,0.1-0.1,0.1-0.2
				c0.1-0.1,0.1-0.3,0.2-0.4c0.1-0.1,0.1-0.2,0.2-0.3c0.1-0.1,0.1-0.3,0.2-0.4c0-0.1,0.1-0.1,0.1-0.2c0-0.1,0-0.1,0.1-0.2
				c0-0.1,0.1-0.2,0.1-0.4c0-0.1,0.1-0.2,0.1-0.3c0-0.1,0.1-0.2,0.1-0.4c0-0.1,0-0.1,0-0.2c0,0,0-0.1,0-0.1c0-0.1,0-0.3,0.1-0.4
				c0-0.1,0-0.2,0-0.3c0-0.1,0-0.3,0-0.4c0-0.1,0-0.2,0-0.2c0-0.1,0-0.1,0-0.2l0-7.2C956.5,886.9,956.5,887,956.5,887.2z"/>
			<g>
				<path fill="#F2C05B" d="M949,876.2c10,5.8,10.1,15.2,0.1,20.9c-9.9,5.8-26.1,5.8-36.2,0c-10-5.8-10.1-15.2-0.1-20.9
					C922.8,870.4,939,870.4,949,876.2z"/>
			</g>
			<g>
				<path fill="#EC8659" d="M939.3,885.1c2.2,1.3,2.5,3.3,0.2,5.2l2.5,1.5l-2.4,1.4l-2.4-1.4c-1.7,0.9-3.8,1.6-5.2,1.8l-2.2-2.1
					c1.6-0.3,3.5-0.8,5.1-1.7c1.4-0.8,1.8-1.7,0.8-2.2c-0.9-0.5-2.3-0.4-4.7,0.3c-3.5,1-6.6,1.3-8.9,0c-2.2-1.3-2.4-3.1-0.2-4.9
					l-2.4-1.4l2.4-1.4l2.2,1.3c1.7-0.9,3.2-1.3,4.4-1.6l2.1,2c-0.9,0.2-2.6,0.5-4.4,1.6c-1.6,0.9-1.4,1.6-0.7,2
					c0.8,0.5,2.2,0.3,5.1-0.5C934.5,883.7,937.1,883.8,939.3,885.1z"/>
			</g>
		</g>
		<g>
			<path fill="#E5AC45" d="M936.7,875.9c0,0.1,0,0.3,0,0.4c0,0.1,0,0.2,0,0.3c0,0.1,0,0.3-0.1,0.4c0,0.1,0,0.2-0.1,0.3
				c0,0.1-0.1,0.2-0.1,0.4c0,0.1-0.1,0.2-0.1,0.3c0,0.1-0.1,0.2-0.1,0.4c0,0.1-0.1,0.2-0.1,0.3c-0.1,0.1-0.1,0.3-0.2,0.4
				c0,0.1-0.1,0.2-0.2,0.3c-0.1,0.1-0.1,0.3-0.2,0.4c-0.1,0.1-0.1,0.2-0.2,0.3c-0.1,0.2-0.2,0.3-0.3,0.5c-0.1,0.1-0.1,0.2-0.2,0.3
				c-0.1,0.2-0.2,0.3-0.4,0.5c-0.1,0.1-0.1,0.1-0.2,0.2c-0.2,0.3-0.4,0.5-0.7,0.8c-0.1,0.1-0.1,0.1-0.2,0.2
				c-0.2,0.2-0.4,0.4-0.6,0.6c-0.1,0.1-0.2,0.2-0.3,0.3c-0.1,0.1-0.2,0.2-0.4,0.3c-0.1,0.1-0.2,0.2-0.4,0.3
				c-0.1,0.1-0.3,0.2-0.4,0.3c-0.1,0.1-0.2,0.2-0.4,0.3c-0.1,0.1-0.3,0.2-0.4,0.3c-0.1,0.1-0.3,0.2-0.4,0.3
				c-0.2,0.1-0.3,0.2-0.5,0.3c-0.2,0.1-0.4,0.2-0.6,0.4c-0.6,0.3-1.1,0.6-1.7,0.9c-0.2,0.1-0.3,0.1-0.5,0.2
				c-0.5,0.2-1.1,0.5-1.6,0.7c-0.1,0-0.1,0.1-0.2,0.1c-0.6,0.2-1.2,0.4-1.8,0.6c-0.4,0.1-0.9,0.3-1.3,0.4c-0.3,0.1-0.7,0.2-1,0.3
				c-0.5,0.1-0.9,0.2-1.4,0.3c-0.3,0.1-0.7,0.1-1,0.2c-0.1,0-0.3,0-0.4,0.1c-0.6,0.1-1.2,0.2-1.8,0.3c-0.2,0-0.3,0-0.5,0.1
				c-0.3,0-0.7,0.1-1,0.1c-0.6,0-1.1,0.1-1.7,0.1c-0.4,0-0.7,0-1.1,0c-0.5,0-0.9,0-1.4,0c-0.4,0-0.8,0-1.2,0c-0.4,0-0.9,0-1.3-0.1
				c-0.4,0-0.8-0.1-1.2-0.1c-0.4,0-0.9-0.1-1.3-0.1c-0.4,0-0.8-0.1-1.1-0.2c-0.5-0.1-0.9-0.2-1.4-0.2c-0.4-0.1-0.7-0.1-1.1-0.2
				c-0.5-0.1-1.1-0.2-1.6-0.4c-0.3-0.1-0.7-0.2-1-0.3c-0.2-0.1-0.4-0.1-0.5-0.2c-0.5-0.2-1-0.3-1.6-0.5c-0.1-0.1-0.3-0.1-0.4-0.2
				c-0.5-0.2-0.9-0.4-1.4-0.6c-0.2-0.1-0.4-0.2-0.7-0.3c-0.6-0.3-1.3-0.6-1.9-1c-3.5-2-5.7-4.4-6.8-7c-0.5-1.2-0.7-2.4-0.7-3.5
				l0,7.2c0,3.8,2.5,7.6,7.5,10.5c0.6,0.3,1.2,0.7,1.9,1c0.2,0.1,0.4,0.2,0.7,0.3c0.4,0.2,0.8,0.3,1.2,0.5c0.1,0,0.1,0,0.2,0.1
				c0.1,0.1,0.3,0.1,0.4,0.2c0.5,0.2,1,0.4,1.6,0.5c0.2,0.1,0.4,0.1,0.5,0.2c0.1,0,0.2,0.1,0.4,0.1c0.2,0.1,0.4,0.1,0.7,0.2
				c0.5,0.1,1.1,0.3,1.6,0.4c0.1,0,0.3,0.1,0.4,0.1c0.2,0,0.4,0.1,0.6,0.1c0.4,0.1,0.9,0.2,1.4,0.2c0.2,0,0.4,0.1,0.5,0.1
				c0.2,0,0.4,0,0.6,0.1c0.4,0.1,0.8,0.1,1.3,0.1c0.2,0,0.4,0.1,0.6,0.1c0.2,0,0.4,0,0.6,0c0.4,0,0.9,0.1,1.3,0.1c0.2,0,0.4,0,0.6,0
				c0.2,0,0.3,0,0.5,0c0.5,0,0.9,0,1.4,0c0.2,0,0.5,0,0.7,0c0.1,0,0.3,0,0.4,0c0.6,0,1.2-0.1,1.7-0.1c0.2,0,0.5,0,0.7,0
				c0.1,0,0.2,0,0.3,0c0.2,0,0.3,0,0.5-0.1c0.6-0.1,1.2-0.2,1.8-0.3c0.1,0,0.3,0,0.4-0.1c0.1,0,0.1,0,0.2,0c0.3-0.1,0.5-0.1,0.8-0.2
				c0.5-0.1,1-0.2,1.4-0.3c0.3-0.1,0.7-0.2,1-0.3c0.4-0.1,0.9-0.2,1.3-0.4c0.1,0,0.2-0.1,0.3-0.1c0.5-0.2,1-0.4,1.6-0.5
				c0.1,0,0.1-0.1,0.2-0.1c0.6-0.2,1.1-0.5,1.6-0.7c0.2-0.1,0.3-0.1,0.5-0.2c0.6-0.3,1.2-0.6,1.7-0.9c0.1-0.1,0.2-0.1,0.3-0.2
				c0.1-0.1,0.2-0.1,0.3-0.2c0.2-0.1,0.3-0.2,0.5-0.3c0.1-0.1,0.3-0.2,0.4-0.3c0.1-0.1,0.3-0.2,0.4-0.3c0.1-0.1,0.3-0.2,0.4-0.3
				c0.1-0.1,0.3-0.2,0.4-0.3c0.1-0.1,0.2-0.2,0.4-0.3c0.1-0.1,0.2-0.2,0.4-0.3c0,0,0.1-0.1,0.2-0.1c0,0,0.1-0.1,0.1-0.1
				c0.2-0.2,0.4-0.4,0.6-0.6c0.1-0.1,0.1-0.1,0.2-0.2c0.2-0.3,0.5-0.5,0.7-0.8c0,0,0,0,0,0c0-0.1,0.1-0.1,0.1-0.2
				c0.1-0.2,0.2-0.3,0.4-0.5c0.1-0.1,0.1-0.2,0.2-0.3c0.1-0.2,0.2-0.3,0.3-0.5c0,0,0.1-0.1,0.1-0.1c0-0.1,0.1-0.1,0.1-0.2
				c0.1-0.1,0.1-0.3,0.2-0.4c0.1-0.1,0.1-0.2,0.2-0.3c0.1-0.1,0.1-0.3,0.2-0.4c0-0.1,0.1-0.1,0.1-0.2c0-0.1,0-0.1,0.1-0.2
				c0-0.1,0.1-0.2,0.1-0.4c0-0.1,0.1-0.2,0.1-0.3c0-0.1,0.1-0.2,0.1-0.4c0-0.1,0-0.1,0-0.2c0,0,0-0.1,0-0.1c0-0.1,0-0.3,0.1-0.4
				c0-0.1,0-0.2,0-0.3c0-0.1,0-0.3,0-0.4c0-0.1,0-0.2,0-0.2c0-0.1,0-0.1,0-0.2l0-7.2C936.7,875.6,936.7,875.8,936.7,875.9z"/>
			<g>
				<path fill="#F2C05B" d="M929.2,864.9c10,5.8,10.1,15.2,0.1,20.9s-26.1,5.8-36.2,0c-10-5.8-10.1-15.2-0.1-20.9
					S919.2,859.2,929.2,864.9z"/>
			</g>
			<g>
				<path fill="#EC8659" d="M919.5,873.9c2.2,1.3,2.5,3.3,0.2,5.2l2.5,1.5l-2.4,1.4l-2.4-1.4c-1.7,0.9-3.8,1.6-5.2,1.8l-2.2-2.1
					c1.6-0.3,3.5-0.8,5.1-1.7c1.4-0.8,1.8-1.7,0.8-2.2c-0.9-0.5-2.3-0.4-4.7,0.3c-3.5,1-6.6,1.3-8.9,0c-2.2-1.3-2.4-3.1-0.2-4.9
					l-2.4-1.4l2.4-1.4l2.2,1.3c1.7-0.9,3.2-1.3,4.4-1.6l2.1,2c-0.9,0.2-2.6,0.5-4.4,1.6c-1.6,0.9-1.4,1.6-0.7,2
					c0.8,0.5,2.2,0.3,5.1-0.5C914.8,872.5,917.3,872.6,919.5,873.9z"/>
			</g>
		</g>
		<g>
			<path fill="#E5AC45" d="M934,863.1c0,0.1,0,0.3,0,0.4c0,0.1,0,0.2,0,0.3c0,0.1,0,0.3-0.1,0.4c0,0.1,0,0.2-0.1,0.3
				c0,0.1-0.1,0.2-0.1,0.4c0,0.1-0.1,0.2-0.1,0.3c0,0.1-0.1,0.2-0.1,0.4c0,0.1-0.1,0.2-0.1,0.3c-0.1,0.1-0.1,0.3-0.2,0.4
				c0,0.1-0.1,0.2-0.2,0.3c-0.1,0.1-0.1,0.3-0.2,0.4c-0.1,0.1-0.1,0.2-0.2,0.3c-0.1,0.2-0.2,0.3-0.3,0.5c-0.1,0.1-0.1,0.2-0.2,0.3
				c-0.1,0.2-0.2,0.3-0.4,0.5c-0.1,0.1-0.1,0.1-0.2,0.2c-0.2,0.3-0.4,0.5-0.7,0.8c-0.1,0.1-0.1,0.1-0.2,0.2
				c-0.2,0.2-0.4,0.4-0.6,0.6c-0.1,0.1-0.2,0.2-0.3,0.3c-0.1,0.1-0.2,0.2-0.4,0.3c-0.1,0.1-0.2,0.2-0.4,0.3
				c-0.1,0.1-0.3,0.2-0.4,0.3c-0.1,0.1-0.2,0.2-0.4,0.3c-0.1,0.1-0.3,0.2-0.4,0.3c-0.1,0.1-0.3,0.2-0.4,0.3
				c-0.2,0.1-0.3,0.2-0.5,0.3c-0.2,0.1-0.4,0.2-0.6,0.4c-0.6,0.3-1.1,0.6-1.7,0.9c-0.2,0.1-0.3,0.1-0.5,0.2
				c-0.5,0.2-1.1,0.5-1.6,0.7c-0.1,0-0.1,0.1-0.2,0.1c-0.6,0.2-1.2,0.4-1.8,0.6c-0.4,0.1-0.9,0.3-1.3,0.4c-0.3,0.1-0.7,0.2-1,0.3
				c-0.5,0.1-0.9,0.2-1.4,0.3c-0.3,0.1-0.7,0.1-1,0.2c-0.1,0-0.3,0-0.4,0.1c-0.6,0.1-1.2,0.2-1.8,0.3c-0.2,0-0.3,0-0.5,0.1
				c-0.3,0-0.7,0.1-1,0.1c-0.6,0-1.1,0.1-1.7,0.1c-0.4,0-0.7,0-1.1,0c-0.5,0-0.9,0-1.4,0c-0.4,0-0.8,0-1.2,0c-0.4,0-0.9,0-1.3-0.1
				c-0.4,0-0.8-0.1-1.2-0.1c-0.4,0-0.9-0.1-1.3-0.1c-0.4,0-0.8-0.1-1.1-0.2c-0.5-0.1-0.9-0.2-1.4-0.2c-0.4-0.1-0.7-0.1-1.1-0.2
				c-0.5-0.1-1.1-0.2-1.6-0.4c-0.3-0.1-0.7-0.2-1-0.3c-0.2-0.1-0.4-0.1-0.5-0.2c-0.5-0.2-1-0.3-1.6-0.5c-0.1-0.1-0.3-0.1-0.4-0.2
				c-0.5-0.2-0.9-0.4-1.4-0.6c-0.2-0.1-0.4-0.2-0.7-0.3c-0.6-0.3-1.3-0.6-1.9-1c-3.5-2-5.7-4.4-6.8-7c-0.5-1.2-0.7-2.4-0.7-3.5
				l0,7.2c0,3.8,2.5,7.6,7.5,10.5c0.6,0.3,1.2,0.7,1.9,1c0.2,0.1,0.4,0.2,0.7,0.3c0.4,0.2,0.8,0.3,1.2,0.5c0.1,0,0.1,0,0.2,0.1
				c0.1,0.1,0.3,0.1,0.4,0.2c0.5,0.2,1,0.4,1.6,0.5c0.2,0.1,0.4,0.1,0.5,0.2c0.1,0,0.2,0.1,0.4,0.1c0.2,0.1,0.4,0.1,0.7,0.2
				c0.5,0.1,1.1,0.3,1.6,0.4c0.1,0,0.3,0.1,0.4,0.1c0.2,0,0.4,0.1,0.6,0.1c0.4,0.1,0.9,0.2,1.4,0.2c0.2,0,0.4,0.1,0.5,0.1
				c0.2,0,0.4,0,0.6,0.1c0.4,0.1,0.8,0.1,1.3,0.1c0.2,0,0.4,0.1,0.6,0.1c0.2,0,0.4,0,0.6,0c0.4,0,0.9,0.1,1.3,0.1c0.2,0,0.4,0,0.6,0
				c0.2,0,0.3,0,0.5,0c0.5,0,0.9,0,1.4,0c0.2,0,0.5,0,0.7,0c0.1,0,0.3,0,0.4,0c0.6,0,1.2-0.1,1.7-0.1c0.2,0,0.5,0,0.7,0
				c0.1,0,0.2,0,0.3,0c0.2,0,0.3,0,0.5-0.1c0.6-0.1,1.2-0.2,1.8-0.3c0.1,0,0.3,0,0.4-0.1c0.1,0,0.1,0,0.2,0c0.3-0.1,0.5-0.1,0.8-0.2
				c0.5-0.1,1-0.2,1.4-0.3c0.3-0.1,0.7-0.2,1-0.3c0.4-0.1,0.9-0.2,1.3-0.4c0.1,0,0.2-0.1,0.3-0.1c0.5-0.2,1-0.4,1.6-0.5
				c0.1,0,0.1-0.1,0.2-0.1c0.6-0.2,1.1-0.5,1.6-0.7c0.2-0.1,0.3-0.1,0.5-0.2c0.6-0.3,1.2-0.6,1.7-0.9c0.1-0.1,0.2-0.1,0.3-0.2
				c0.1-0.1,0.2-0.1,0.3-0.2c0.2-0.1,0.3-0.2,0.5-0.3c0.1-0.1,0.3-0.2,0.4-0.3c0.1-0.1,0.3-0.2,0.4-0.3c0.1-0.1,0.3-0.2,0.4-0.3
				c0.1-0.1,0.3-0.2,0.4-0.3c0.1-0.1,0.2-0.2,0.4-0.3c0.1-0.1,0.2-0.2,0.4-0.3c0,0,0.1-0.1,0.2-0.1c0,0,0.1-0.1,0.1-0.1
				c0.2-0.2,0.4-0.4,0.6-0.6c0.1-0.1,0.1-0.1,0.2-0.2c0.2-0.3,0.5-0.5,0.7-0.8c0,0,0,0,0,0c0-0.1,0.1-0.1,0.1-0.2
				c0.1-0.2,0.2-0.3,0.4-0.5c0.1-0.1,0.1-0.2,0.2-0.3c0.1-0.2,0.2-0.3,0.3-0.5c0,0,0.1-0.1,0.1-0.1c0-0.1,0.1-0.1,0.1-0.2
				c0.1-0.1,0.1-0.3,0.2-0.4c0.1-0.1,0.1-0.2,0.2-0.3c0.1-0.1,0.1-0.3,0.2-0.4c0-0.1,0.1-0.1,0.1-0.2c0-0.1,0-0.1,0.1-0.2
				c0-0.1,0.1-0.2,0.1-0.4c0-0.1,0.1-0.2,0.1-0.3c0-0.1,0.1-0.2,0.1-0.4c0-0.1,0-0.1,0-0.2c0,0,0-0.1,0-0.1c0-0.1,0-0.3,0.1-0.4
				c0-0.1,0-0.2,0-0.3c0-0.1,0-0.3,0-0.4c0-0.1,0-0.2,0-0.2c0-0.1,0-0.1,0-0.2l0-7.2C934,862.8,934,863,934,863.1z"/>
			<g>
				<path fill="#F2C05B" d="M926.5,852.1c10,5.8,10.1,15.2,0.1,20.9c-9.9,5.8-26.1,5.8-36.2,0c-10-5.8-10.1-15.2-0.1-20.9
					C900.2,846.3,916.4,846.3,926.5,852.1z"/>
			</g>
			<g>
				<path fill="#EC8659" d="M916.8,861.1c2.2,1.3,2.5,3.3,0.2,5.2l2.5,1.5l-2.4,1.4l-2.4-1.4c-1.7,0.9-3.8,1.6-5.2,1.8l-2.2-2.1
					c1.6-0.3,3.5-0.8,5.1-1.7c1.4-0.8,1.8-1.7,0.8-2.2c-0.9-0.5-2.3-0.4-4.7,0.3c-3.5,1-6.6,1.3-8.9,0c-2.2-1.3-2.4-3.1-0.2-4.9
					l-2.4-1.4l2.4-1.4l2.2,1.3c1.7-0.9,3.2-1.3,4.4-1.6l2.1,2c-0.9,0.2-2.6,0.5-4.4,1.6c-1.6,0.9-1.4,1.6-0.7,2
					c0.8,0.5,2.2,0.3,5.1-0.5C912,859.7,914.6,859.8,916.8,861.1z"/>
			</g>
		</g>
		<g>
			<path fill="#E5AC45" d="M934,855.1c0,0.1,0,0.3,0,0.4c0,0.1,0,0.2,0,0.3c0,0.1,0,0.3-0.1,0.4c0,0.1,0,0.2-0.1,0.3
				c0,0.1-0.1,0.2-0.1,0.4c0,0.1-0.1,0.2-0.1,0.3c0,0.1-0.1,0.2-0.1,0.4c0,0.1-0.1,0.2-0.1,0.3c-0.1,0.1-0.1,0.3-0.2,0.4
				c0,0.1-0.1,0.2-0.2,0.3c-0.1,0.1-0.1,0.3-0.2,0.4c-0.1,0.1-0.1,0.2-0.2,0.3c-0.1,0.2-0.2,0.3-0.3,0.5c-0.1,0.1-0.1,0.2-0.2,0.3
				c-0.1,0.2-0.2,0.3-0.4,0.5c-0.1,0.1-0.1,0.1-0.2,0.2c-0.2,0.3-0.4,0.5-0.7,0.8c-0.1,0.1-0.1,0.1-0.2,0.2
				c-0.2,0.2-0.4,0.4-0.6,0.6c-0.1,0.1-0.2,0.2-0.3,0.3c-0.1,0.1-0.2,0.2-0.4,0.3c-0.1,0.1-0.2,0.2-0.4,0.3
				c-0.1,0.1-0.3,0.2-0.4,0.3c-0.1,0.1-0.2,0.2-0.4,0.3c-0.1,0.1-0.3,0.2-0.4,0.3c-0.1,0.1-0.3,0.2-0.4,0.3
				c-0.2,0.1-0.3,0.2-0.5,0.3c-0.2,0.1-0.4,0.2-0.6,0.4c-0.6,0.3-1.1,0.6-1.7,0.9c-0.2,0.1-0.3,0.1-0.5,0.2
				c-0.5,0.2-1.1,0.5-1.6,0.7c-0.1,0-0.1,0.1-0.2,0.1c-0.6,0.2-1.2,0.4-1.8,0.6c-0.4,0.1-0.9,0.3-1.3,0.4c-0.3,0.1-0.7,0.2-1,0.3
				c-0.5,0.1-0.9,0.2-1.4,0.3c-0.3,0.1-0.7,0.1-1,0.2c-0.1,0-0.3,0-0.4,0.1c-0.6,0.1-1.2,0.2-1.8,0.3c-0.2,0-0.3,0-0.5,0.1
				c-0.3,0-0.7,0.1-1,0.1c-0.6,0-1.1,0.1-1.7,0.1c-0.4,0-0.7,0-1.1,0c-0.5,0-0.9,0-1.4,0c-0.4,0-0.8,0-1.2,0c-0.4,0-0.9,0-1.3-0.1
				c-0.4,0-0.8-0.1-1.2-0.1c-0.4,0-0.9-0.1-1.3-0.1c-0.4,0-0.8-0.1-1.1-0.2c-0.5-0.1-0.9-0.2-1.4-0.2c-0.4-0.1-0.7-0.1-1.1-0.2
				c-0.5-0.1-1.1-0.2-1.6-0.4c-0.3-0.1-0.7-0.2-1-0.3c-0.2-0.1-0.4-0.1-0.5-0.2c-0.5-0.2-1-0.3-1.6-0.5c-0.1-0.1-0.3-0.1-0.4-0.2
				c-0.5-0.2-0.9-0.4-1.4-0.6c-0.2-0.1-0.4-0.2-0.7-0.3c-0.6-0.3-1.3-0.6-1.9-1c-3.5-2-5.7-4.4-6.8-7c-0.5-1.2-0.7-2.4-0.7-3.5
				l0,7.2c0,3.8,2.5,7.6,7.5,10.5c0.6,0.3,1.2,0.7,1.9,1c0.2,0.1,0.4,0.2,0.7,0.3c0.4,0.2,0.8,0.3,1.2,0.5c0.1,0,0.1,0,0.2,0.1
				c0.1,0.1,0.3,0.1,0.4,0.2c0.5,0.2,1,0.4,1.6,0.5c0.2,0.1,0.4,0.1,0.5,0.2c0.1,0,0.2,0.1,0.4,0.1c0.2,0.1,0.4,0.1,0.7,0.2
				c0.5,0.1,1.1,0.3,1.6,0.4c0.1,0,0.3,0.1,0.4,0.1c0.2,0,0.4,0.1,0.6,0.1c0.4,0.1,0.9,0.2,1.4,0.2c0.2,0,0.4,0.1,0.5,0.1
				c0.2,0,0.4,0,0.6,0.1c0.4,0.1,0.8,0.1,1.3,0.1c0.2,0,0.4,0.1,0.6,0.1c0.2,0,0.4,0,0.6,0c0.4,0,0.9,0.1,1.3,0.1c0.2,0,0.4,0,0.6,0
				c0.2,0,0.3,0,0.5,0c0.5,0,0.9,0,1.4,0c0.2,0,0.5,0,0.7,0c0.1,0,0.3,0,0.4,0c0.6,0,1.2-0.1,1.7-0.1c0.2,0,0.5,0,0.7,0
				c0.1,0,0.2,0,0.3,0c0.2,0,0.3,0,0.5-0.1c0.6-0.1,1.2-0.2,1.8-0.3c0.1,0,0.3,0,0.4-0.1c0.1,0,0.1,0,0.2,0c0.3-0.1,0.5-0.1,0.8-0.2
				c0.5-0.1,1-0.2,1.4-0.3c0.3-0.1,0.7-0.2,1-0.3c0.4-0.1,0.9-0.2,1.3-0.4c0.1,0,0.2-0.1,0.3-0.1c0.5-0.2,1-0.4,1.6-0.5
				c0.1,0,0.1-0.1,0.2-0.1c0.6-0.2,1.1-0.5,1.6-0.7c0.2-0.1,0.3-0.1,0.5-0.2c0.6-0.3,1.2-0.6,1.7-0.9c0.1-0.1,0.2-0.1,0.3-0.2
				c0.1-0.1,0.2-0.1,0.3-0.2c0.2-0.1,0.3-0.2,0.5-0.3c0.1-0.1,0.3-0.2,0.4-0.3c0.1-0.1,0.3-0.2,0.4-0.3c0.1-0.1,0.3-0.2,0.4-0.3
				c0.1-0.1,0.3-0.2,0.4-0.3c0.1-0.1,0.2-0.2,0.4-0.3c0.1-0.1,0.2-0.2,0.4-0.3c0,0,0.1-0.1,0.2-0.1c0,0,0.1-0.1,0.1-0.1
				c0.2-0.2,0.4-0.4,0.6-0.6c0.1-0.1,0.1-0.1,0.2-0.2c0.2-0.3,0.5-0.5,0.7-0.8c0,0,0,0,0,0c0-0.1,0.1-0.1,0.1-0.2
				c0.1-0.2,0.2-0.3,0.4-0.5c0.1-0.1,0.1-0.2,0.2-0.3c0.1-0.2,0.2-0.3,0.3-0.5c0,0,0.1-0.1,0.1-0.1c0-0.1,0.1-0.1,0.1-0.2
				c0.1-0.1,0.1-0.3,0.2-0.4c0.1-0.1,0.1-0.2,0.2-0.3c0.1-0.1,0.1-0.3,0.2-0.4c0-0.1,0.1-0.1,0.1-0.2c0-0.1,0-0.1,0.1-0.2
				c0-0.1,0.1-0.2,0.1-0.4c0-0.1,0.1-0.2,0.1-0.3c0-0.1,0.1-0.2,0.1-0.4c0-0.1,0-0.1,0-0.2c0,0,0-0.1,0-0.1c0-0.1,0-0.3,0.1-0.4
				c0-0.1,0-0.2,0-0.3c0-0.1,0-0.3,0-0.4c0-0.1,0-0.2,0-0.2c0-0.1,0-0.1,0-0.2l0-7.2C934,854.8,934,854.9,934,855.1z"/>
			<g>
				<path fill="#F2C05B" d="M926.5,844.1c10,5.8,10.1,15.2,0.1,20.9c-9.9,5.8-26.1,5.8-36.2,0c-10-5.8-10.1-15.2-0.1-20.9
					S916.4,838.3,926.5,844.1z"/>
			</g>
			<g>
				<path fill="#EC8659" d="M916.8,853c2.2,1.3,2.5,3.3,0.2,5.2l2.5,1.5l-2.4,1.4l-2.4-1.4c-1.7,0.9-3.8,1.6-5.2,1.8l-2.2-2.1
					c1.6-0.3,3.5-0.8,5.1-1.7c1.4-0.8,1.8-1.7,0.8-2.2c-0.9-0.5-2.3-0.4-4.7,0.3c-3.5,1-6.6,1.3-8.9,0c-2.2-1.3-2.4-3.1-0.2-4.9
					l-2.4-1.4l2.4-1.4l2.2,1.3c1.7-0.9,3.2-1.3,4.4-1.6l2.1,2c-0.9,0.2-2.6,0.5-4.4,1.6c-1.6,0.9-1.4,1.6-0.7,2
					c0.8,0.5,2.2,0.3,5.1-0.5C912,851.6,914.6,851.7,916.8,853z"/>
			</g>
		</g>
		<g>
			<path fill="#E5AC45" d="M945.4,847.1c0,0.1,0,0.3,0,0.4c0,0.1,0,0.2,0,0.3c0,0.1,0,0.3-0.1,0.4c0,0.1,0,0.2-0.1,0.3
				c0,0.1-0.1,0.2-0.1,0.4c0,0.1-0.1,0.2-0.1,0.3c0,0.1-0.1,0.2-0.1,0.4c0,0.1-0.1,0.2-0.1,0.3c-0.1,0.1-0.1,0.3-0.2,0.4
				c0,0.1-0.1,0.2-0.2,0.3c-0.1,0.1-0.1,0.3-0.2,0.4c-0.1,0.1-0.1,0.2-0.2,0.3c-0.1,0.2-0.2,0.3-0.3,0.5c-0.1,0.1-0.1,0.2-0.2,0.3
				c-0.1,0.2-0.2,0.3-0.4,0.5c-0.1,0.1-0.1,0.1-0.2,0.2c-0.2,0.3-0.4,0.5-0.7,0.8c-0.1,0.1-0.1,0.1-0.2,0.2
				c-0.2,0.2-0.4,0.4-0.6,0.6c-0.1,0.1-0.2,0.2-0.3,0.3c-0.1,0.1-0.2,0.2-0.4,0.3c-0.1,0.1-0.2,0.2-0.4,0.3
				c-0.1,0.1-0.3,0.2-0.4,0.3c-0.1,0.1-0.2,0.2-0.4,0.3c-0.1,0.1-0.3,0.2-0.4,0.3c-0.1,0.1-0.3,0.2-0.4,0.3
				c-0.2,0.1-0.3,0.2-0.5,0.3c-0.2,0.1-0.4,0.2-0.6,0.4c-0.6,0.3-1.1,0.6-1.7,0.9c-0.2,0.1-0.3,0.1-0.5,0.2
				c-0.5,0.2-1.1,0.5-1.6,0.7c-0.1,0-0.1,0.1-0.2,0.1c-0.6,0.2-1.2,0.4-1.8,0.6c-0.4,0.1-0.9,0.3-1.3,0.4c-0.3,0.1-0.7,0.2-1,0.3
				c-0.5,0.1-0.9,0.2-1.4,0.3c-0.3,0.1-0.7,0.1-1,0.2c-0.1,0-0.3,0-0.4,0.1c-0.6,0.1-1.2,0.2-1.8,0.3c-0.2,0-0.3,0-0.5,0.1
				c-0.3,0-0.7,0.1-1,0.1c-0.6,0-1.1,0.1-1.7,0.1c-0.4,0-0.7,0-1.1,0c-0.5,0-0.9,0-1.4,0c-0.4,0-0.8,0-1.2,0c-0.4,0-0.9,0-1.3-0.1
				c-0.4,0-0.8-0.1-1.2-0.1c-0.4,0-0.9-0.1-1.3-0.1c-0.4,0-0.8-0.1-1.1-0.2c-0.5-0.1-0.9-0.2-1.4-0.2c-0.4-0.1-0.7-0.1-1.1-0.2
				c-0.5-0.1-1.1-0.2-1.6-0.4c-0.3-0.1-0.7-0.2-1-0.3c-0.2-0.1-0.4-0.1-0.5-0.2c-0.5-0.2-1-0.3-1.6-0.5c-0.1-0.1-0.3-0.1-0.4-0.2
				c-0.5-0.2-0.9-0.4-1.4-0.6c-0.2-0.1-0.4-0.2-0.7-0.3c-0.6-0.3-1.3-0.6-1.9-1c-3.5-2-5.7-4.4-6.8-7c-0.5-1.2-0.7-2.4-0.7-3.5
				l0,7.2c0,3.8,2.5,7.6,7.5,10.5c0.6,0.3,1.2,0.7,1.9,1c0.2,0.1,0.4,0.2,0.7,0.3c0.4,0.2,0.8,0.3,1.2,0.5c0.1,0,0.1,0,0.2,0.1
				c0.1,0.1,0.3,0.1,0.4,0.2c0.5,0.2,1,0.4,1.6,0.5c0.2,0.1,0.4,0.1,0.5,0.2c0.1,0,0.2,0.1,0.4,0.1c0.2,0.1,0.4,0.1,0.7,0.2
				c0.5,0.1,1.1,0.3,1.6,0.4c0.1,0,0.3,0.1,0.4,0.1c0.2,0,0.4,0.1,0.6,0.1c0.4,0.1,0.9,0.2,1.4,0.2c0.2,0,0.4,0.1,0.5,0.1
				c0.2,0,0.4,0,0.6,0.1c0.4,0.1,0.8,0.1,1.3,0.1c0.2,0,0.4,0.1,0.6,0.1c0.2,0,0.4,0,0.6,0c0.4,0,0.9,0.1,1.3,0.1c0.2,0,0.4,0,0.6,0
				c0.2,0,0.3,0,0.5,0c0.5,0,0.9,0,1.4,0c0.2,0,0.5,0,0.7,0c0.1,0,0.3,0,0.4,0c0.6,0,1.2-0.1,1.7-0.1c0.2,0,0.5,0,0.7,0
				c0.1,0,0.2,0,0.3,0c0.2,0,0.3,0,0.5-0.1c0.6-0.1,1.2-0.2,1.8-0.3c0.1,0,0.3,0,0.4-0.1c0.1,0,0.1,0,0.2,0c0.3-0.1,0.5-0.1,0.8-0.2
				c0.5-0.1,1-0.2,1.4-0.3c0.3-0.1,0.7-0.2,1-0.3c0.4-0.1,0.9-0.2,1.3-0.4c0.1,0,0.2-0.1,0.3-0.1c0.5-0.2,1-0.4,1.6-0.5
				c0.1,0,0.1-0.1,0.2-0.1c0.6-0.2,1.1-0.5,1.6-0.7c0.2-0.1,0.3-0.1,0.5-0.2c0.6-0.3,1.2-0.6,1.7-0.9c0.1-0.1,0.2-0.1,0.3-0.2
				c0.1-0.1,0.2-0.1,0.3-0.2c0.2-0.1,0.3-0.2,0.5-0.3c0.1-0.1,0.3-0.2,0.4-0.3c0.1-0.1,0.3-0.2,0.4-0.3c0.1-0.1,0.3-0.2,0.4-0.3
				c0.1-0.1,0.3-0.2,0.4-0.3c0.1-0.1,0.2-0.2,0.4-0.3c0.1-0.1,0.2-0.2,0.4-0.3c0,0,0.1-0.1,0.2-0.1c0,0,0.1-0.1,0.1-0.1
				c0.2-0.2,0.4-0.4,0.6-0.6c0.1-0.1,0.1-0.1,0.2-0.2c0.2-0.3,0.5-0.5,0.7-0.8c0,0,0,0,0,0c0-0.1,0.1-0.1,0.1-0.2
				c0.1-0.2,0.2-0.3,0.4-0.5c0.1-0.1,0.1-0.2,0.2-0.3c0.1-0.2,0.2-0.3,0.3-0.5c0,0,0.1-0.1,0.1-0.1c0-0.1,0.1-0.1,0.1-0.2
				c0.1-0.1,0.1-0.3,0.2-0.4c0.1-0.1,0.1-0.2,0.2-0.3c0.1-0.1,0.1-0.3,0.2-0.4c0-0.1,0.1-0.1,0.1-0.2c0-0.1,0-0.1,0.1-0.2
				c0-0.1,0.1-0.2,0.1-0.4c0-0.1,0.1-0.2,0.1-0.3c0-0.1,0.1-0.2,0.1-0.4c0-0.1,0-0.1,0-0.2c0,0,0-0.1,0-0.1c0-0.1,0-0.3,0.1-0.4
				c0-0.1,0-0.2,0-0.3c0-0.1,0-0.3,0-0.4c0-0.1,0-0.2,0-0.2c0-0.1,0-0.1,0-0.2l0-7.2C945.4,846.8,945.4,847,945.4,847.1z"/>
			<g>
				<path fill="#F2C05B" d="M937.9,836.2c10,5.8,10.1,15.2,0.1,20.9c-9.9,5.8-26.1,5.8-36.2,0c-10-5.8-10.1-15.2-0.1-20.9
					S927.9,830.4,937.9,836.2z"/>
			</g>
			<g>
				<path fill="#EC8659" d="M928.2,845.1c2.2,1.3,2.5,3.3,0.2,5.2l2.5,1.5l-2.4,1.4l-2.4-1.4c-1.7,0.9-3.8,1.6-5.2,1.8l-2.2-2.1
					c1.6-0.3,3.5-0.8,5.1-1.7c1.4-0.8,1.8-1.7,0.8-2.2c-0.9-0.5-2.3-0.4-4.7,0.3c-3.5,1-6.6,1.3-8.9,0c-2.2-1.3-2.4-3.1-0.2-4.9
					l-2.4-1.4l2.4-1.4l2.2,1.3c1.7-0.9,3.2-1.3,4.4-1.6l2.1,2c-0.9,0.2-2.6,0.5-4.4,1.6c-1.6,0.9-1.4,1.6-0.7,2
					c0.8,0.5,2.2,0.3,5.1-0.5C923.4,843.7,926,843.8,928.2,845.1z"/>
			</g>
		</g>
	</g>
	<g>
		<g enable-background="new    ">
			<path fill="#F2449C" d="M517.6,286.1c-10.5-6.1-25-5.2-41,4c-31.8,18.4-57.5,62.8-57.4,99.4c0.1,18.1,6.5,30.9,16.8,36.9
				l26.4,15.3c-10.3-6-16.7-18.8-16.8-36.9c-0.1-36.5,25.6-81,57.4-99.4c16-9.2,30.5-10.1,41-4L517.6,286.1z"/>
			<g>
				<path fill="#F965A8" d="M503,305.4c31.8-18.4,57.6-3.6,57.7,32.9c0.1,36.5-25.6,81-57.4,99.4s-57.6,3.6-57.7-32.9
					S471.2,323.8,503,305.4z"/>
			</g>
		</g>
		<g enable-background="new    ">
			<g>
				<path fill="#FFFFFF" d="M520.6,333.7c8.7-5,17.1-1.5,17.8,11.4c0.7,14.5-13.7,37.9-29.3,60c-1,1.4-2.2,2.5-3.4,3.2
					c-1.2,0.7-2.3,0.9-3.3,0.7c-15.7-3.8-30.4-10.2-30-25.4c0.4-13.6,8.9-27,17.6-32c1.7-1,3.5-1.7,5.1-2c6.9-1.2,9.6,2.4,10.1,3.1
					c0.5-1.3,3.2-8,10-14.8C517,336.1,518.8,334.8,520.6,333.7z"/>
			</g>
		</g>
	</g>
</g>
</svg>
